{"glyphs":{"0":{"ha":531,"x_min":54,"x_max":476,"o":"m 54 251 l 54 683 q 72 778 54 742 q 119 833 89 814 q 185 860 149 853 q 264 867 222 867 q 344 860 306 867 q 412 833 382 853 q 459 777 442 814 q 476 682 476 740 l 476 251 l 382 251 l 382 665 q 365 746 382 719 q 321 781 347 772 q 264 789 294 789 q 211 780 238 789 q 167 744 185 771 q 150 667 150 718 l 150 251 l 54 251 m 264 -8 q 185 -1 222 -8 q 119 25 149 6 q 72 81 89 44 q 54 174 54 117 l 54 607 l 150 607 l 150 192 q 167 114 150 140 q 211 78 185 88 q 264 68 238 68 q 321 77 294 68 q 365 113 347 86 q 382 193 382 140 l 382 607 l 476 607 l 476 175 q 459 81 476 118 q 412 25 442 44 q 344 -1 382 6 q 264 -8 306 -8 z "},"1":{"ha":390,"x_min":18,"x_max":317,"o":"m 225 0 l 225 735 l 69 553 l 18 601 l 226 861 l 317 861 l 317 0 l 225 0 z "},"2":{"ha":493,"x_min":44,"x_max":450,"o":"m 44 0 l 44 56 q 54 194 44 139 q 83 287 64 250 q 133 351 103 324 q 201 407 163 379 q 233 426 218 417 q 260 443 247 435 q 335 522 313 485 q 358 621 358 560 l 358 675 q 334 765 358 739 q 267 792 310 792 l 236 792 q 178 774 199 792 q 149 731 157 757 q 142 681 142 706 l 142 544 l 49 564 l 49 688 q 69 793 49 756 q 130 846 89 831 q 233 861 171 861 l 279 861 q 376 846 338 861 q 432 794 414 831 q 450 697 450 758 l 450 617 q 415 487 450 538 q 321 389 381 436 q 285 362 304 375 q 250 336 265 349 q 174 252 199 297 q 142 162 150 207 q 135 74 135 117 l 450 74 l 432 0 l 44 0 z "},"3":{"ha":508,"x_min":50,"x_max":456,"o":"m 239 -1 q 125 17 167 -1 q 67 77 83 36 q 50 182 50 118 l 50 300 l 142 289 l 142 206 q 164 107 142 140 q 238 74 186 74 l 268 74 q 343 109 322 74 q 364 204 364 144 l 364 276 q 351 360 364 332 q 314 399 338 389 q 257 410 290 410 l 151 410 l 151 474 l 244 474 q 305 485 278 474 q 348 527 332 496 q 364 617 364 558 l 364 681 q 342 769 364 746 q 272 792 321 792 l 233 792 q 177 776 197 792 q 149 735 157 761 q 142 681 142 710 l 142 572 l 50 590 l 50 683 q 94 817 50 774 q 221 861 139 861 l 286 861 q 377 846 339 861 q 435 791 415 831 q 456 678 456 751 l 456 622 q 442 543 456 578 q 405 485 428 508 q 357 451 382 463 q 311 439 332 439 l 311 438 q 358 429 333 438 q 406 403 383 421 q 442 357 428 386 q 456 286 456 328 l 456 183 q 408 43 456 88 q 274 -1 360 -1 l 239 -1 z "},"4":{"ha":585,"x_min":11,"x_max":581,"o":"m 349 0 l 350 175 l 40 175 l 11 221 l 335 861 l 450 861 l 447 250 l 581 250 l 563 175 l 449 175 l 450 0 l 349 0 m 117 250 l 354 250 l 354 742 l 117 250 z "},"5":{"ha":511,"x_min":57,"x_max":465,"o":"m 231 -3 q 126 19 164 -3 q 72 83 88 40 q 57 188 57 125 l 57 301 l 151 283 l 151 199 q 169 106 151 140 q 238 72 186 72 l 278 72 q 349 108 324 72 q 374 201 374 143 l 374 340 q 364 442 374 407 q 333 489 354 476 q 279 501 313 501 l 256 501 q 200 485 222 501 q 165 447 178 468 q 151 413 153 426 l 60 432 l 60 861 l 451 861 l 451 788 l 151 788 l 151 508 q 174 529 157 515 q 219 555 192 543 q 283 567 246 567 l 319 567 q 379 558 353 567 q 425 526 406 549 q 455 460 444 503 q 465 353 465 418 l 465 201 q 448 96 465 136 q 403 34 431 56 q 346 5 375 13 q 293 -3 317 -3 l 231 -3 z "},"6":{"ha":508,"x_min":54,"x_max":460,"o":"m 254 -6 q 177 1 214 -6 q 113 31 140 8 q 69 97 85 54 q 54 210 54 139 l 54 685 q 74 788 54 747 q 140 847 94 828 q 258 867 185 867 q 369 849 325 867 q 436 797 414 832 q 458 706 458 761 l 458 619 l 368 608 l 368 678 q 343 762 368 733 q 258 790 318 790 q 172 762 199 790 q 146 678 146 733 l 146 467 q 190 522 154 499 q 293 546 226 546 q 396 522 360 546 q 446 458 432 497 q 460 371 460 418 l 460 210 q 445 96 460 139 q 403 31 431 53 q 338 1 375 8 q 254 -6 300 -6 m 253 71 q 316 83 290 71 q 355 131 342 96 q 368 232 368 165 l 368 358 q 360 420 368 390 q 328 468 351 450 q 257 486 304 486 q 172 452 199 486 q 146 358 146 418 l 146 232 q 160 131 146 165 q 199 83 175 96 q 253 71 224 71 z "},"7":{"ha":494,"x_min":22,"x_max":493,"o":"m 38 0 l 361 788 l 22 788 l 39 861 l 493 861 l 144 0 l 38 0 z "},"8":{"ha":514,"x_min":51,"x_max":463,"o":"m 235 -3 q 130 17 171 -3 q 70 81 89 36 q 51 203 51 126 l 51 265 q 67 363 51 326 q 108 419 82 400 q 164 440 133 438 q 110 467 135 449 q 71 520 86 485 q 56 615 56 556 l 56 668 q 74 781 56 738 q 131 844 92 824 q 235 864 171 864 l 279 864 q 415 819 374 864 q 457 672 457 775 l 457 617 q 442 522 457 558 q 401 467 426 486 q 344 440 375 449 q 403 418 376 438 q 447 362 431 399 q 463 265 463 325 l 463 225 q 442 88 463 138 q 379 17 422 38 q 267 -3 336 -3 l 235 -3 m 253 72 q 317 83 290 72 q 356 127 343 94 q 369 226 369 160 l 369 288 q 361 357 369 329 q 328 399 353 385 q 257 414 304 414 q 186 399 211 414 q 152 357 161 385 q 143 288 143 329 l 143 214 q 158 124 143 154 q 199 83 174 93 q 253 72 224 72 m 257 485 q 318 495 293 485 q 356 533 343 506 q 368 614 368 561 l 368 668 q 360 735 368 707 q 328 779 351 764 q 257 794 304 794 q 187 779 211 794 q 154 736 163 764 q 146 671 146 708 l 146 613 q 158 533 146 561 q 196 495 171 506 q 257 485 221 485 z "},"9":{"ha":508,"x_min":50,"x_max":456,"o":"m 251 -7 q 140 10 185 -7 q 74 64 96 28 q 51 154 51 100 l 51 257 l 142 247 l 142 182 q 167 98 142 126 q 251 69 193 69 q 338 98 313 69 q 364 182 364 126 l 364 393 q 320 338 356 361 q 217 314 285 314 q 115 338 151 314 q 64 403 78 363 q 50 489 50 443 l 50 650 q 65 764 50 721 q 108 829 81 807 q 172 858 135 851 q 256 865 210 865 q 333 858 297 865 q 397 828 369 851 q 440 763 425 806 q 456 650 456 721 l 456 175 q 436 72 456 113 q 372 13 417 32 q 251 -7 326 -7 m 253 374 q 338 408 313 374 q 364 501 364 443 l 364 628 q 349 729 364 694 q 311 776 335 764 q 257 789 288 789 q 194 776 219 789 q 155 729 168 764 q 142 628 142 694 l 142 501 q 150 440 142 469 q 183 392 158 411 q 253 374 207 374 z "},"\r":{"ha":333,"x_min":0,"x_max":0,"o":""}," ":{"ha":226,"x_min":0,"x_max":0,"o":""}," ":{"ha":226,"x_min":0,"x_max":0,"o":""},"A":{"ha":529,"x_min":22,"x_max":506,"o":"m 22 0 l 203 861 l 326 861 l 506 0 l 408 0 l 367 203 l 385 186 l 140 186 l 156 203 l 117 0 l 22 0 m 158 250 l 149 261 l 378 261 l 365 250 l 276 739 l 274 753 l 254 753 l 251 739 l 158 250 z "},"Æ":{"ha":835,"x_min":21,"x_max":796,"o":"m 389 861 l 796 861 l 796 788 l 483 788 l 483 518 l 771 518 l 758 444 l 483 444 l 483 74 l 796 74 l 796 0 l 389 0 l 389 861 m 100 188 l 100 261 l 413 261 l 413 188 l 100 188 m 21 0 l 233 861 l 314 861 l 115 0 l 21 0 m 249 788 l 249 861 l 410 861 l 410 788 l 249 788 z "},"Ǽ":{"ha":835,"x_min":21,"x_max":796,"o":"m 389 861 l 796 861 l 796 788 l 483 788 l 483 518 l 771 518 l 758 444 l 483 444 l 483 74 l 796 74 l 796 0 l 389 0 l 389 861 m 100 188 l 100 261 l 413 261 l 413 188 l 100 188 m 21 0 l 233 861 l 314 861 l 115 0 l 21 0 m 249 788 l 249 861 l 410 861 l 410 788 l 249 788 m 339 947 l 461 1081 l 547 1081 l 399 947 l 339 947 z "},"Á":{"ha":529,"x_min":22,"x_max":506,"o":"m 22 0 l 203 861 l 326 861 l 506 0 l 408 0 l 367 203 l 385 186 l 140 186 l 156 203 l 117 0 l 22 0 m 158 250 l 149 261 l 378 261 l 365 250 l 276 739 l 274 753 l 254 753 l 251 739 l 158 250 m 185 947 l 315 1072 l 401 1072 l 244 947 l 185 947 z "},"Ă":{"ha":529,"x_min":22,"x_max":506,"o":"m 22 0 l 203 861 l 326 861 l 506 0 l 408 0 l 367 203 l 385 186 l 140 186 l 156 203 l 117 0 l 22 0 m 158 250 l 149 261 l 378 261 l 365 250 l 276 739 l 274 753 l 254 753 l 251 739 l 158 250 m 260 938 q 174 958 206 938 q 131 1008 143 978 q 118 1071 118 1039 l 178 1071 q 197 1012 178 1039 q 260 985 215 985 q 328 1012 310 985 q 349 1071 347 1039 l 407 1071 q 373 975 407 1013 q 260 938 339 938 z "},"Ắ":{"ha":529,"x_min":22,"x_max":506,"o":"m 22 0 l 203 861 l 326 861 l 506 0 l 408 0 l 367 203 l 385 186 l 140 186 l 156 203 l 117 0 l 22 0 m 158 250 l 149 261 l 378 261 l 365 250 l 276 739 l 274 753 l 254 753 l 251 739 l 158 250 m 261 918 q 190 934 217 918 q 151 976 163 950 q 140 1029 140 1001 l 200 1029 q 215 985 200 1004 q 261 965 229 965 q 312 985 297 965 q 328 1029 326 1004 l 386 1029 q 357 949 386 981 q 261 918 328 918 m 192 1060 l 293 1168 l 375 1168 l 251 1060 l 192 1060 z "},"Ặ":{"ha":529,"x_min":22,"x_max":506,"o":"m 22 0 l 203 861 l 326 861 l 506 0 l 408 0 l 367 203 l 385 186 l 140 186 l 156 203 l 117 0 l 22 0 m 158 250 l 149 261 l 378 261 l 365 250 l 276 739 l 274 753 l 254 753 l 251 739 l 158 250 m 261 -139 q 228 -129 233 -139 q 224 -99 224 -119 q 228 -67 224 -76 q 261 -58 233 -58 q 297 -67 292 -58 q 301 -99 301 -76 q 296 -129 301 -119 q 261 -139 290 -139 m 260 938 q 174 958 206 938 q 131 1008 143 978 q 118 1071 118 1039 l 178 1071 q 197 1012 178 1039 q 260 985 215 985 q 328 1012 310 985 q 349 1071 347 1039 l 407 1071 q 373 975 407 1013 q 260 938 339 938 z "},"Ằ":{"ha":529,"x_min":22,"x_max":506,"o":"m 22 0 l 203 861 l 326 861 l 506 0 l 408 0 l 367 203 l 385 186 l 140 186 l 156 203 l 117 0 l 22 0 m 158 250 l 149 261 l 378 261 l 365 250 l 276 739 l 274 753 l 254 753 l 251 739 l 158 250 m 260 918 q 189 934 215 918 q 151 976 163 950 q 140 1029 140 1001 l 199 1029 q 214 985 199 1004 q 263 965 229 965 q 312 985 297 965 q 326 1029 326 1004 l 388 1029 q 357 949 388 981 q 260 918 326 918 m 257 1060 l 132 1168 l 217 1168 l 315 1060 l 257 1060 z "},"Ẳ":{"ha":529,"x_min":22,"x_max":506,"o":"m 22 0 l 203 861 l 326 861 l 506 0 l 408 0 l 367 203 l 385 186 l 140 186 l 156 203 l 117 0 l 22 0 m 158 250 l 149 261 l 378 261 l 365 250 l 276 739 l 274 753 l 254 753 l 251 739 l 158 250 m 261 918 q 190 934 217 918 q 151 976 163 950 q 140 1029 140 1001 l 200 1029 q 215 985 200 1004 q 261 965 229 965 q 312 985 297 965 q 328 1029 326 1004 l 386 1029 q 357 949 386 981 q 261 918 328 918 m 239 1060 q 252 1090 239 1079 q 280 1113 265 1101 q 294 1142 294 1124 q 284 1164 294 1154 q 260 1174 274 1174 q 228 1162 239 1174 q 214 1136 218 1150 l 175 1151 q 205 1200 181 1182 q 269 1218 229 1218 q 330 1201 307 1218 q 353 1153 353 1183 q 338 1107 353 1121 q 309 1085 324 1093 q 294 1060 294 1076 l 239 1060 z "},"Ẵ":{"ha":529,"x_min":22,"x_max":506,"o":"m 22 0 l 203 861 l 326 861 l 506 0 l 408 0 l 367 203 l 385 186 l 140 186 l 156 203 l 117 0 l 22 0 m 158 250 l 149 261 l 378 261 l 365 250 l 276 739 l 274 753 l 254 753 l 251 739 l 158 250 m 261 918 q 190 934 217 918 q 151 976 163 950 q 140 1029 140 1001 l 200 1029 q 215 985 200 1004 q 261 965 229 965 q 312 985 297 965 q 326 1029 326 1004 l 386 1029 q 357 950 386 982 q 261 918 328 918 m 133 1056 q 153 1132 133 1107 q 204 1157 174 1157 q 247 1147 229 1157 q 281 1125 265 1136 q 313 1114 296 1114 q 340 1128 332 1114 q 349 1157 349 1142 l 392 1157 q 370 1080 392 1103 q 321 1057 349 1057 q 280 1069 297 1057 q 249 1092 263 1081 q 217 1103 235 1103 q 192 1090 203 1103 q 182 1056 182 1078 l 133 1056 z "},"Ǎ":{"ha":529,"x_min":22,"x_max":506,"o":"m 101 1075 l 168 1075 l 264 992 l 358 1075 l 424 1075 l 306 947 l 219 947 l 101 1075 m 22 0 l 203 861 l 326 861 l 506 0 l 408 0 l 367 203 l 385 186 l 140 186 l 156 203 l 117 0 l 22 0 m 158 250 l 149 261 l 378 261 l 365 250 l 276 739 l 274 753 l 254 753 l 251 739 l 158 250 z "},"Â":{"ha":529,"x_min":22,"x_max":506,"o":"m 22 0 l 203 861 l 326 861 l 506 0 l 408 0 l 367 203 l 385 186 l 140 186 l 156 203 l 117 0 l 22 0 m 158 250 l 149 261 l 378 261 l 365 250 l 276 739 l 274 753 l 254 753 l 251 739 l 158 250 m 103 947 l 219 1075 l 307 1075 l 424 947 l 358 947 l 264 1029 l 168 947 l 103 947 z "},"Ấ":{"ha":529,"x_min":22,"x_max":574,"o":"m 22 0 l 203 861 l 326 861 l 506 0 l 408 0 l 367 203 l 385 186 l 140 186 l 156 203 l 117 0 l 22 0 m 158 250 l 149 261 l 378 261 l 365 250 l 276 739 l 274 753 l 254 753 l 251 739 l 158 250 m 126 928 l 219 1032 l 306 1032 l 399 928 l 333 928 l 264 988 l 193 928 l 126 928 m 389 1008 l 489 1118 l 574 1118 l 450 1008 l 389 1008 z "},"Ậ":{"ha":529,"x_min":22,"x_max":506,"o":"m 22 0 l 203 861 l 326 861 l 506 0 l 408 0 l 367 203 l 385 186 l 140 186 l 156 203 l 117 0 l 22 0 m 158 250 l 149 261 l 378 261 l 365 250 l 276 739 l 274 753 l 254 753 l 251 739 l 158 250 m 261 -139 q 228 -129 233 -139 q 224 -99 224 -119 q 228 -67 224 -76 q 261 -58 233 -58 q 297 -67 292 -58 q 301 -99 301 -76 q 296 -129 301 -119 q 261 -139 290 -139 m 103 947 l 219 1075 l 307 1075 l 424 947 l 358 947 l 264 1029 l 168 947 l 103 947 z "},"Ầ":{"ha":529,"x_min":22,"x_max":506,"o":"m 22 0 l 203 861 l 326 861 l 506 0 l 408 0 l 367 203 l 385 186 l 140 186 l 156 203 l 117 0 l 22 0 m 158 250 l 149 261 l 378 261 l 365 250 l 276 739 l 274 753 l 254 753 l 251 739 l 158 250 m 126 928 l 219 1032 l 306 1032 l 399 928 l 333 928 l 264 988 l 193 928 l 126 928 m 422 1008 l 299 1118 l 382 1118 l 482 1008 l 422 1008 z "},"Ẩ":{"ha":529,"x_min":22,"x_max":517,"o":"m 22 0 l 203 861 l 326 861 l 506 0 l 408 0 l 367 203 l 385 186 l 140 186 l 156 203 l 117 0 l 22 0 m 158 250 l 149 261 l 378 261 l 365 250 l 276 739 l 274 753 l 254 753 l 251 739 l 158 250 m 126 928 l 219 1032 l 306 1032 l 399 928 l 333 928 l 264 988 l 193 928 l 126 928 m 403 1008 q 417 1039 403 1028 q 444 1062 431 1050 q 457 1092 457 1074 q 447 1114 457 1104 q 422 1124 438 1124 q 392 1112 403 1124 q 376 1085 381 1100 l 338 1100 q 368 1149 343 1131 q 433 1167 393 1167 q 493 1149 469 1167 q 517 1101 517 1132 q 508 1065 517 1078 q 487 1043 499 1051 q 466 1027 475 1035 q 457 1008 457 1019 l 403 1008 z "},"Ẫ":{"ha":529,"x_min":22,"x_max":506,"o":"m 22 0 l 203 861 l 326 861 l 506 0 l 408 0 l 367 203 l 385 186 l 140 186 l 156 203 l 117 0 l 22 0 m 158 250 l 149 261 l 378 261 l 365 250 l 276 739 l 274 753 l 254 753 l 251 739 l 158 250 m 126 928 l 219 1032 l 306 1032 l 399 928 l 333 928 l 264 988 l 193 928 l 126 928 m 132 1060 q 152 1136 132 1111 q 204 1161 172 1161 q 246 1151 228 1161 q 279 1128 264 1140 q 311 1117 294 1117 q 338 1131 329 1117 q 347 1161 347 1146 l 390 1161 q 369 1085 390 1108 q 319 1061 347 1061 q 278 1073 294 1061 q 248 1096 263 1085 q 214 1107 233 1107 q 189 1094 199 1107 q 179 1060 179 1082 l 132 1060 z "},"Ȁ":{"ha":529,"x_min":21,"x_max":506,"o":"m 22 0 l 203 861 l 326 861 l 506 0 l 408 0 l 367 203 l 385 186 l 140 186 l 156 203 l 117 0 l 22 0 m 158 250 l 149 261 l 378 261 l 365 250 l 276 739 l 274 753 l 254 753 l 251 739 l 158 250 m 169 947 l 21 1081 l 107 1081 l 229 947 l 169 947 m 293 947 l 144 1081 l 231 1081 l 353 947 l 293 947 z "},"Ä":{"ha":529,"x_min":22,"x_max":506,"o":"m 22 0 l 203 861 l 326 861 l 506 0 l 408 0 l 367 203 l 385 186 l 140 186 l 156 203 l 117 0 l 22 0 m 158 250 l 149 261 l 378 261 l 365 250 l 276 739 l 274 753 l 254 753 l 251 739 l 158 250 m 335 942 q 303 951 307 942 q 299 981 299 961 q 303 1012 299 1003 q 335 1021 307 1021 q 370 1012 365 1021 q 375 981 375 1003 q 370 951 375 961 q 335 942 365 942 m 188 942 q 155 951 160 942 q 150 981 150 961 q 155 1012 150 1003 q 188 1021 160 1021 q 223 1012 218 1021 q 228 981 228 1003 q 222 951 228 961 q 188 942 217 942 z "},"Ạ":{"ha":529,"x_min":22,"x_max":506,"o":"m 22 0 l 203 861 l 326 861 l 506 0 l 408 0 l 367 203 l 385 186 l 140 186 l 156 203 l 117 0 l 22 0 m 158 250 l 149 261 l 378 261 l 365 250 l 276 739 l 274 753 l 254 753 l 251 739 l 158 250 m 261 -139 q 228 -129 233 -139 q 224 -99 224 -119 q 228 -67 224 -76 q 261 -58 233 -58 q 297 -67 292 -58 q 301 -99 301 -76 q 296 -129 301 -119 q 261 -139 290 -139 z "},"À":{"ha":529,"x_min":22,"x_max":506,"o":"m 22 0 l 203 861 l 326 861 l 506 0 l 408 0 l 367 203 l 385 186 l 140 186 l 156 203 l 117 0 l 22 0 m 158 250 l 149 261 l 378 261 l 365 250 l 276 739 l 274 753 l 254 753 l 251 739 l 158 250 m 258 947 l 101 1072 l 188 1072 l 318 947 l 258 947 z "},"Ả":{"ha":529,"x_min":22,"x_max":506,"o":"m 22 0 l 203 861 l 326 861 l 506 0 l 408 0 l 367 203 l 385 186 l 140 186 l 156 203 l 117 0 l 22 0 m 158 250 l 149 261 l 378 261 l 365 250 l 276 739 l 274 753 l 254 753 l 251 739 l 158 250 m 238 947 q 249 976 238 964 q 274 999 260 989 q 299 1022 288 1010 q 310 1051 310 1035 q 295 1083 310 1071 q 260 1094 281 1094 q 217 1078 232 1094 q 199 1043 203 1063 l 158 1058 q 193 1118 164 1096 q 271 1140 222 1140 q 340 1119 314 1140 q 367 1063 367 1097 q 356 1017 367 1033 q 330 990 344 1000 q 304 972 315 981 q 293 947 293 963 l 238 947 z "},"Ȃ":{"ha":529,"x_min":22,"x_max":506,"o":"m 260 1075 q 374 1037 339 1075 q 408 942 408 999 l 350 942 q 329 1003 349 979 q 261 1028 310 1028 q 197 1002 215 1028 q 178 942 178 976 l 119 942 q 132 1006 119 975 q 175 1056 144 1036 q 260 1075 206 1075 m 22 0 l 203 861 l 326 861 l 506 0 l 408 0 l 367 203 l 385 186 l 140 186 l 156 203 l 117 0 l 22 0 m 158 250 l 149 261 l 378 261 l 365 250 l 276 739 l 274 753 l 254 753 l 251 739 l 158 250 z "},"Ā":{"ha":529,"x_min":22,"x_max":506,"o":"m 22 0 l 203 861 l 326 861 l 506 0 l 408 0 l 367 203 l 385 186 l 140 186 l 156 203 l 117 0 l 22 0 m 158 250 l 149 261 l 378 261 l 365 250 l 276 739 l 274 753 l 254 753 l 251 739 l 158 250 m 106 954 l 106 1013 l 422 1013 l 422 954 l 106 954 z "},"Ą":{"ha":529,"x_min":22,"x_max":538,"o":"m 22 0 l 203 861 l 326 861 l 506 0 l 408 0 l 367 203 l 385 186 l 140 186 l 156 203 l 117 0 l 22 0 m 158 250 l 149 261 l 378 261 l 365 250 l 276 739 l 274 753 l 254 753 l 251 739 l 158 250 m 428 -239 q 349 -209 381 -239 q 318 -128 318 -179 q 348 -51 318 -92 q 447 11 378 -11 l 499 6 q 419 -44 450 -14 q 388 -117 388 -75 q 407 -169 388 -149 q 456 -190 426 -190 q 492 -185 476 -190 q 525 -164 508 -179 l 538 -206 q 483 -231 510 -224 q 428 -239 457 -239 z "},"Å":{"ha":529,"x_min":22,"x_max":506,"o":"m 22 0 l 203 861 l 326 861 l 506 0 l 408 0 l 367 203 l 385 186 l 140 186 l 156 203 l 117 0 l 22 0 m 158 250 l 149 261 l 378 261 l 365 250 l 276 739 l 274 753 l 254 753 l 251 739 l 158 250 m 264 939 q 184 969 215 939 q 153 1042 153 1000 q 184 1115 153 1085 q 264 1146 215 1146 q 340 1115 308 1146 q 371 1042 371 1085 q 340 969 371 1000 q 264 939 308 939 m 264 979 q 308 997 289 979 q 328 1040 328 1015 q 308 1086 328 1067 q 264 1106 289 1106 q 216 1086 235 1106 q 197 1040 197 1067 q 216 997 197 1015 q 264 979 235 979 z "},"Ǻ":{"ha":529,"x_min":22,"x_max":506,"o":"m 22 0 l 203 861 l 326 861 l 506 0 l 408 0 l 367 203 l 385 186 l 140 186 l 156 203 l 117 0 l 22 0 m 158 250 l 149 261 l 378 261 l 365 250 l 276 739 l 274 753 l 254 753 l 251 739 l 158 250 m 264 939 q 184 969 215 939 q 153 1042 153 1000 q 184 1115 153 1085 q 264 1146 215 1146 q 340 1115 308 1146 q 371 1042 371 1085 q 340 969 371 1000 q 264 939 308 939 m 264 979 q 308 997 289 979 q 328 1040 328 1015 q 308 1086 328 1067 q 264 1106 289 1106 q 216 1086 235 1106 q 197 1040 197 1067 q 216 997 197 1015 q 264 979 235 979 m 185 1185 l 315 1310 l 401 1310 l 244 1185 l 185 1185 z "},"Ã":{"ha":529,"x_min":22,"x_max":506,"o":"m 22 0 l 203 861 l 326 861 l 506 0 l 408 0 l 367 203 l 385 186 l 140 186 l 156 203 l 117 0 l 22 0 m 158 250 l 149 261 l 378 261 l 365 250 l 276 739 l 274 753 l 254 753 l 251 739 l 158 250 m 113 942 q 135 1030 113 1001 q 194 1058 158 1058 q 246 1044 225 1058 q 285 1016 267 1031 q 325 1001 304 1001 q 360 1019 351 1001 q 369 1058 369 1038 l 415 1058 q 390 970 415 996 q 333 944 364 944 q 283 960 304 944 q 245 990 263 975 q 206 1004 228 1004 q 173 988 185 1004 q 161 942 161 971 l 113 942 z "},"B":{"ha":538,"x_min":72,"x_max":481,"o":"m 72 0 l 72 861 l 310 861 q 403 850 368 861 q 453 807 438 839 q 469 714 469 775 l 469 644 q 455 562 469 597 q 417 506 440 526 q 369 483 394 486 l 371 482 q 435 456 411 476 q 470 405 460 436 q 481 333 481 374 l 481 175 q 468 73 481 111 q 421 17 456 35 q 318 0 386 0 l 72 0 m 167 74 l 289 74 q 343 81 322 74 q 374 113 364 89 q 385 183 385 136 l 385 339 q 352 415 385 393 q 271 438 319 438 l 167 438 l 167 74 m 167 510 l 283 510 q 328 521 307 510 q 363 559 349 532 q 376 636 376 586 l 376 682 q 371 747 376 724 q 347 782 365 771 q 285 793 328 793 l 167 793 l 167 510 z "},"C":{"ha":518,"x_min":61,"x_max":464,"o":"m 263 -10 q 112 28 163 -10 q 61 139 61 67 l 61 711 q 108 832 61 793 q 258 871 154 871 q 413 833 363 871 q 464 710 464 794 l 464 526 l 371 514 l 371 688 q 349 766 371 738 q 261 794 326 794 q 176 765 197 794 q 156 689 156 736 l 156 161 q 180 94 156 121 q 261 68 204 68 q 346 94 321 68 q 371 161 371 121 l 371 326 l 464 339 l 464 140 q 412 28 464 67 q 263 -10 360 -10 z "},"Ć":{"ha":518,"x_min":61,"x_max":464,"o":"m 263 -10 q 112 28 163 -10 q 61 139 61 67 l 61 711 q 108 832 61 793 q 258 871 154 871 q 413 833 363 871 q 464 710 464 794 l 464 526 l 371 514 l 371 688 q 349 766 371 738 q 261 794 326 794 q 176 765 197 794 q 156 689 156 736 l 156 161 q 180 94 156 121 q 261 68 204 68 q 346 94 321 68 q 371 161 371 121 l 371 326 l 464 339 l 464 140 q 412 28 464 67 q 263 -10 360 -10 m 181 947 l 311 1072 l 397 1072 l 240 947 l 181 947 z "},"Č":{"ha":518,"x_min":61,"x_max":464,"o":"m 97 1075 l 164 1075 l 260 992 l 354 1075 l 419 1075 l 301 947 l 215 947 l 97 1075 m 263 -10 q 112 28 163 -10 q 61 139 61 67 l 61 711 q 108 832 61 793 q 258 871 154 871 q 413 833 363 871 q 464 710 464 794 l 464 526 l 371 514 l 371 688 q 349 766 371 738 q 261 794 326 794 q 176 765 197 794 q 156 689 156 736 l 156 161 q 180 94 156 121 q 261 68 204 68 q 346 94 321 68 q 371 161 371 121 l 371 326 l 464 339 l 464 140 q 412 28 464 67 q 263 -10 360 -10 z "},"Ç":{"ha":518,"x_min":61,"x_max":464,"o":"m 263 -10 q 112 28 163 -10 q 61 139 61 67 l 61 711 q 108 832 61 793 q 258 871 154 871 q 413 833 363 871 q 464 710 464 794 l 464 526 l 371 514 l 371 688 q 349 766 371 738 q 261 794 326 794 q 176 765 197 794 q 156 689 156 736 l 156 161 q 180 94 156 121 q 261 68 204 68 q 346 94 321 68 q 371 161 371 121 l 371 326 l 464 339 l 464 140 q 412 28 464 67 q 263 -10 360 -10 m 263 -250 q 209 -240 233 -250 q 169 -218 185 -229 l 193 -182 q 219 -201 200 -192 q 258 -210 239 -210 q 309 -189 292 -210 q 326 -144 326 -168 q 312 -106 326 -124 q 265 -87 297 -87 q 227 -96 244 -87 q 199 -115 210 -104 l 168 -92 l 240 0 l 282 0 l 225 -71 q 283 -51 253 -51 q 360 -79 338 -51 q 383 -140 383 -107 q 353 -215 383 -179 q 263 -250 322 -250 z "},"Ĉ":{"ha":518,"x_min":61,"x_max":464,"o":"m 263 -10 q 112 28 163 -10 q 61 139 61 67 l 61 711 q 108 832 61 793 q 258 871 154 871 q 413 833 363 871 q 464 710 464 794 l 464 526 l 371 514 l 371 688 q 349 766 371 738 q 261 794 326 794 q 176 765 197 794 q 156 689 156 736 l 156 161 q 180 94 156 121 q 261 68 204 68 q 346 94 321 68 q 371 161 371 121 l 371 326 l 464 339 l 464 140 q 412 28 464 67 q 263 -10 360 -10 m 99 947 l 215 1075 l 303 1075 l 419 947 l 354 947 l 260 1029 l 164 947 l 99 947 z "},"Ċ":{"ha":518,"x_min":61,"x_max":464,"o":"m 263 -10 q 112 28 163 -10 q 61 139 61 67 l 61 711 q 108 832 61 793 q 258 871 154 871 q 413 833 363 871 q 464 710 464 794 l 464 526 l 371 514 l 371 688 q 349 766 371 738 q 261 794 326 794 q 176 765 197 794 q 156 689 156 736 l 156 161 q 180 94 156 121 q 261 68 204 68 q 346 94 321 68 q 371 161 371 121 l 371 326 l 464 339 l 464 140 q 412 28 464 67 q 263 -10 360 -10 m 257 943 q 224 953 229 943 q 219 982 219 963 q 224 1015 219 1006 q 257 1024 229 1024 q 292 1015 288 1024 q 297 982 297 1006 q 292 953 297 963 q 257 943 286 943 z "},"D":{"ha":538,"x_min":72,"x_max":476,"o":"m 72 861 l 363 861 q 452 828 428 861 q 476 731 476 796 l 476 132 q 454 31 476 61 q 357 0 432 0 l 72 0 l 72 861 m 300 74 q 367 92 350 74 q 383 163 383 111 l 383 700 q 365 766 383 744 q 311 788 346 788 l 165 788 l 165 74 l 300 74 z "},"Ǆ":{"ha":963,"x_min":72,"x_max":939,"o":"m 589 1075 l 656 1075 l 750 992 l 846 1075 l 910 1075 l 793 947 l 706 947 l 589 1075 m 72 861 l 363 861 q 452 828 428 861 q 476 731 476 796 l 476 132 q 454 31 476 61 q 357 0 432 0 l 72 0 l 72 861 m 300 74 q 367 92 350 74 q 383 163 383 111 l 383 700 q 365 766 383 744 q 311 788 346 788 l 165 788 l 165 74 l 300 74 m 550 0 l 815 788 l 571 788 l 571 861 l 933 861 l 668 74 l 939 74 l 939 0 l 550 0 z "},"Ď":{"ha":538,"x_min":72,"x_max":476,"o":"m 110 1075 l 175 1075 l 271 992 l 365 1075 l 431 1075 l 314 947 l 226 947 l 110 1075 m 72 861 l 363 861 q 452 828 428 861 q 476 731 476 796 l 476 132 q 454 31 476 61 q 357 0 432 0 l 72 0 l 72 861 m 300 74 q 367 92 350 74 q 383 163 383 111 l 383 700 q 365 766 383 744 q 311 788 346 788 l 165 788 l 165 74 l 300 74 z "},"Đ":{"ha":538,"x_min":-10,"x_max":476,"o":"m -10 263 l -10 338 l 221 338 l 221 263 l -10 263 m 72 861 l 363 861 q 452 828 428 861 q 476 731 476 796 l 476 132 q 454 31 476 61 q 357 0 432 0 l 72 0 l 72 861 m 300 74 q 367 92 350 74 q 383 163 383 111 l 383 700 q 365 766 383 744 q 311 788 346 788 l 165 788 l 165 74 l 300 74 z "},"ǅ":{"ha":956,"x_min":72,"x_max":933,"o":"m 586 867 l 653 867 l 747 783 l 843 867 l 907 867 l 790 739 l 703 739 l 586 867 m 72 861 l 363 861 q 452 828 428 861 q 476 731 476 796 l 476 132 q 454 31 476 61 q 357 0 432 0 l 72 0 l 72 861 m 300 74 q 367 92 350 74 q 383 163 383 111 l 383 700 q 365 766 383 744 q 311 788 346 788 l 165 788 l 165 74 l 300 74 m 563 13 l 818 579 l 568 579 l 585 653 l 918 653 l 918 606 l 679 74 l 933 74 l 903 0 l 563 0 l 563 13 z "},"E":{"ha":506,"x_min":72,"x_max":468,"o":"m 72 861 l 468 861 l 468 788 l 167 788 l 167 518 l 443 518 l 431 444 l 167 444 l 167 74 l 468 74 l 468 0 l 72 0 l 72 861 z "},"É":{"ha":506,"x_min":72,"x_max":468,"o":"m 72 861 l 468 861 l 468 788 l 167 788 l 167 518 l 443 518 l 431 444 l 167 444 l 167 74 l 468 74 l 468 0 l 72 0 l 72 861 m 176 947 l 307 1072 l 393 1072 l 236 947 l 176 947 z "},"Ĕ":{"ha":506,"x_min":72,"x_max":468,"o":"m 72 861 l 468 861 l 468 788 l 167 788 l 167 518 l 443 518 l 431 444 l 167 444 l 167 74 l 468 74 l 468 0 l 72 0 l 72 861 m 251 938 q 166 958 197 938 q 122 1008 135 978 q 110 1071 110 1039 l 169 1071 q 188 1012 169 1039 q 251 985 207 985 q 320 1012 301 985 q 340 1071 339 1039 l 399 1071 q 365 975 399 1013 q 251 938 331 938 z "},"Ě":{"ha":506,"x_min":72,"x_max":468,"o":"m 93 1075 l 160 1075 l 256 992 l 350 1075 l 415 1075 l 297 947 l 211 947 l 93 1075 m 72 861 l 468 861 l 468 788 l 167 788 l 167 518 l 443 518 l 431 444 l 167 444 l 167 74 l 468 74 l 468 0 l 72 0 l 72 861 z "},"Ê":{"ha":506,"x_min":72,"x_max":468,"o":"m 72 861 l 468 861 l 468 788 l 167 788 l 167 518 l 443 518 l 431 444 l 167 444 l 167 74 l 468 74 l 468 0 l 72 0 l 72 861 m 94 947 l 211 1075 l 299 1075 l 415 947 l 350 947 l 256 1029 l 160 947 l 94 947 z "},"Ế":{"ha":506,"x_min":72,"x_max":564,"o":"m 72 861 l 468 861 l 468 788 l 167 788 l 167 518 l 443 518 l 431 444 l 167 444 l 167 74 l 468 74 l 468 0 l 72 0 l 72 861 m 118 928 l 211 1032 l 297 1032 l 390 928 l 325 928 l 256 988 l 185 928 l 118 928 m 381 1008 l 481 1118 l 565 1118 l 442 1008 l 381 1008 z "},"Ệ":{"ha":506,"x_min":72,"x_max":468,"o":"m 72 861 l 468 861 l 468 788 l 167 788 l 167 518 l 443 518 l 431 444 l 167 444 l 167 74 l 468 74 l 468 0 l 72 0 l 72 861 m 253 -139 q 220 -129 225 -139 q 215 -99 215 -119 q 220 -67 215 -76 q 253 -58 225 -58 q 288 -67 283 -58 q 293 -99 293 -76 q 288 -129 293 -119 q 253 -139 282 -139 m 94 947 l 211 1075 l 299 1075 l 415 947 l 350 947 l 256 1029 l 160 947 l 94 947 z "},"Ề":{"ha":506,"x_min":72,"x_max":474,"o":"m 72 861 l 468 861 l 468 788 l 167 788 l 167 518 l 443 518 l 431 444 l 167 444 l 167 74 l 468 74 l 468 0 l 72 0 l 72 861 m 118 928 l 211 1032 l 297 1032 l 390 928 l 325 928 l 256 988 l 185 928 l 118 928 m 414 1008 l 290 1118 l 374 1118 l 474 1008 l 414 1008 z "},"Ể":{"ha":506,"x_min":72,"x_max":508,"o":"m 72 861 l 468 861 l 468 788 l 167 788 l 167 518 l 443 518 l 431 444 l 167 444 l 167 74 l 468 74 l 468 0 l 72 0 l 72 861 m 118 928 l 211 1032 l 297 1032 l 390 928 l 325 928 l 256 988 l 185 928 l 118 928 m 394 1008 q 408 1039 394 1028 q 435 1062 422 1050 q 449 1092 449 1074 q 439 1114 449 1104 q 414 1124 429 1124 q 383 1112 394 1124 q 368 1085 372 1100 l 329 1100 q 360 1149 335 1131 q 425 1167 385 1167 q 485 1149 461 1167 q 508 1101 508 1132 q 499 1065 508 1078 q 478 1043 490 1051 q 458 1027 467 1035 q 449 1008 449 1019 l 394 1008 z "},"Ễ":{"ha":506,"x_min":72,"x_max":468,"o":"m 72 861 l 468 861 l 468 788 l 167 788 l 167 518 l 443 518 l 431 444 l 167 444 l 167 74 l 468 74 l 468 0 l 72 0 l 72 861 m 118 928 l 211 1032 l 297 1032 l 390 928 l 325 928 l 256 988 l 185 928 l 118 928 m 124 1060 q 144 1136 124 1111 q 196 1161 164 1161 q 238 1151 219 1161 q 271 1128 256 1140 q 303 1117 286 1117 q 330 1131 321 1117 q 339 1161 339 1146 l 382 1161 q 360 1085 382 1108 q 311 1061 339 1061 q 270 1073 286 1061 q 240 1096 254 1085 q 206 1107 225 1107 q 181 1094 190 1107 q 171 1060 171 1082 l 124 1060 z "},"Ȅ":{"ha":506,"x_min":13,"x_max":468,"o":"m 72 861 l 468 861 l 468 788 l 167 788 l 167 518 l 443 518 l 431 444 l 167 444 l 167 74 l 468 74 l 468 0 l 72 0 l 72 861 m 161 947 l 13 1081 l 99 1081 l 221 947 l 161 947 m 285 947 l 136 1081 l 222 1081 l 344 947 l 285 947 z "},"Ë":{"ha":506,"x_min":72,"x_max":468,"o":"m 72 861 l 468 861 l 468 788 l 167 788 l 167 518 l 443 518 l 431 444 l 167 444 l 167 74 l 468 74 l 468 0 l 72 0 l 72 861 m 326 942 q 294 951 299 942 q 290 981 290 961 q 294 1012 290 1003 q 326 1021 299 1021 q 362 1012 357 1021 q 367 981 367 1003 q 362 951 367 961 q 326 942 357 942 m 179 942 q 147 951 151 942 q 142 981 142 961 q 147 1012 142 1003 q 179 1021 151 1021 q 215 1012 210 1021 q 219 981 219 1003 q 214 951 219 961 q 179 942 208 942 z "},"Ė":{"ha":506,"x_min":72,"x_max":468,"o":"m 72 861 l 468 861 l 468 788 l 167 788 l 167 518 l 443 518 l 431 444 l 167 444 l 167 74 l 468 74 l 468 0 l 72 0 l 72 861 m 253 943 q 220 953 225 943 q 215 982 215 963 q 220 1015 215 1006 q 253 1024 225 1024 q 288 1015 283 1024 q 293 982 293 1006 q 288 953 293 963 q 253 943 282 943 z "},"Ẹ":{"ha":506,"x_min":72,"x_max":468,"o":"m 72 861 l 468 861 l 468 788 l 167 788 l 167 518 l 443 518 l 431 444 l 167 444 l 167 74 l 468 74 l 468 0 l 72 0 l 72 861 m 253 -139 q 220 -129 225 -139 q 215 -99 215 -119 q 220 -67 215 -76 q 253 -58 225 -58 q 288 -67 283 -58 q 293 -99 293 -76 q 288 -129 293 -119 q 253 -139 282 -139 z "},"È":{"ha":506,"x_min":72,"x_max":468,"o":"m 72 861 l 468 861 l 468 788 l 167 788 l 167 518 l 443 518 l 431 444 l 167 444 l 167 74 l 468 74 l 468 0 l 72 0 l 72 861 m 250 947 l 93 1072 l 179 1072 l 310 947 l 250 947 z "},"Ẻ":{"ha":506,"x_min":72,"x_max":468,"o":"m 72 861 l 468 861 l 468 788 l 167 788 l 167 518 l 443 518 l 431 444 l 167 444 l 167 74 l 468 74 l 468 0 l 72 0 l 72 861 m 229 947 q 240 976 229 964 q 265 999 251 989 q 290 1022 279 1010 q 301 1051 301 1035 q 287 1083 301 1071 q 251 1094 272 1094 q 209 1078 224 1094 q 190 1043 194 1063 l 150 1058 q 185 1118 156 1096 q 263 1140 214 1140 q 332 1119 306 1140 q 358 1063 358 1097 q 347 1017 358 1033 q 322 990 336 1000 q 296 972 307 981 q 285 947 285 963 l 229 947 z "},"Ȇ":{"ha":506,"x_min":72,"x_max":468,"o":"m 251 1075 q 365 1037 331 1075 q 400 942 400 999 l 342 942 q 321 1003 340 979 q 253 1028 301 1028 q 188 1002 207 1028 q 169 942 169 976 l 111 942 q 124 1006 111 975 q 167 1056 136 1036 q 251 1075 197 1075 m 72 861 l 468 861 l 468 788 l 167 788 l 167 518 l 443 518 l 431 444 l 167 444 l 167 74 l 468 74 l 468 0 l 72 0 l 72 861 z "},"Ē":{"ha":506,"x_min":72,"x_max":468,"o":"m 72 861 l 468 861 l 468 788 l 167 788 l 167 518 l 443 518 l 431 444 l 167 444 l 167 74 l 468 74 l 468 0 l 72 0 l 72 861 m 96 954 l 96 1013 l 413 1013 l 413 954 l 96 954 z "},"Ŋ":{"ha":567,"x_min":72,"x_max":494,"o":"m 265 -254 l 253 -181 l 342 -181 q 391 -162 379 -181 q 403 -110 403 -144 l 403 -21 l 169 619 l 167 628 l 165 629 l 165 0 l 72 0 l 72 861 l 167 861 l 397 199 l 400 192 l 401 189 l 401 861 l 494 861 l 494 -121 q 469 -222 494 -189 q 376 -254 443 -254 l 265 -254 z "},"Ę":{"ha":506,"x_min":72,"x_max":503,"o":"m 72 861 l 468 861 l 468 788 l 167 788 l 167 518 l 443 518 l 431 444 l 167 444 l 167 74 l 468 74 l 468 0 l 72 0 l 72 861 m 393 -237 q 315 -208 346 -237 q 283 -126 283 -178 q 313 -50 283 -90 q 413 13 343 -10 l 464 7 q 384 -43 415 -12 q 353 -115 353 -74 q 372 -168 353 -147 q 421 -189 392 -189 q 458 -183 442 -189 q 490 -162 474 -178 l 503 -204 q 449 -230 475 -222 q 393 -237 422 -237 z "},"Ð":{"ha":554,"x_min":13,"x_max":501,"o":"m 90 861 l 385 861 q 476 828 450 861 q 501 731 501 796 l 501 132 q 478 31 501 61 q 379 0 454 0 l 90 0 l 90 861 m 13 260 l 13 314 l 304 314 l 304 260 l 13 260 m 325 74 q 392 92 375 74 q 408 163 408 111 l 408 700 q 389 766 408 744 q 335 788 369 788 l 185 788 l 185 74 l 325 74 z "},"Ẽ":{"ha":506,"x_min":72,"x_max":468,"o":"m 72 861 l 468 861 l 468 788 l 167 788 l 167 518 l 443 518 l 431 444 l 167 444 l 167 74 l 468 74 l 468 0 l 72 0 l 72 861 m 104 942 q 127 1030 104 1001 q 186 1058 150 1058 q 238 1044 217 1058 q 277 1016 258 1031 q 317 1001 296 1001 q 352 1019 343 1001 q 361 1058 361 1038 l 407 1058 q 381 970 407 996 q 325 944 356 944 q 275 960 296 944 q 237 990 254 975 q 197 1004 219 1004 q 165 988 176 1004 q 153 942 153 971 l 104 942 z "},"F":{"ha":500,"x_min":72,"x_max":468,"o":"m 72 861 l 468 861 l 468 788 l 167 788 l 167 518 l 444 518 l 431 444 l 167 444 l 167 0 l 72 0 l 72 861 z "},"G":{"ha":524,"x_min":61,"x_max":468,"o":"m 268 -6 q 155 7 201 -6 q 85 49 108 19 q 61 131 61 79 l 61 729 q 114 839 61 810 q 267 868 167 868 q 416 839 364 868 q 468 728 468 810 l 468 586 l 374 579 l 374 710 q 347 776 374 760 q 268 792 321 792 q 185 776 215 792 q 154 711 154 761 l 154 144 q 169 97 154 113 q 209 76 183 82 q 269 71 235 71 q 326 76 301 71 q 363 97 350 82 q 376 144 376 113 l 376 383 l 242 383 l 250 463 l 468 463 l 468 131 q 444 49 468 79 q 376 7 421 19 q 268 -6 332 -6 z "},"Ğ":{"ha":524,"x_min":61,"x_max":468,"o":"m 268 -6 q 155 7 201 -6 q 85 49 108 19 q 61 131 61 79 l 61 729 q 114 839 61 810 q 267 868 167 868 q 416 839 364 868 q 468 728 468 810 l 468 586 l 374 579 l 374 710 q 347 776 374 760 q 268 792 321 792 q 185 776 215 792 q 154 711 154 761 l 154 144 q 169 97 154 113 q 209 76 183 82 q 269 71 235 71 q 326 76 301 71 q 363 97 350 82 q 376 144 376 113 l 376 383 l 242 383 l 250 463 l 468 463 l 468 131 q 444 49 468 79 q 376 7 421 19 q 268 -6 332 -6 m 258 938 q 173 958 204 938 q 129 1008 142 978 q 117 1071 117 1039 l 176 1071 q 195 1012 176 1039 q 258 985 214 985 q 327 1012 308 985 q 347 1071 346 1039 l 406 1071 q 372 975 406 1013 q 258 938 338 938 z "},"Ǧ":{"ha":524,"x_min":61,"x_max":468,"o":"m 100 1075 l 167 1075 l 261 992 l 357 1075 l 421 1075 l 304 947 l 217 947 l 100 1075 m 268 -6 q 155 7 201 -6 q 85 49 108 19 q 61 131 61 79 l 61 729 q 114 839 61 810 q 267 868 167 868 q 416 839 364 868 q 468 728 468 810 l 468 586 l 374 579 l 374 710 q 347 776 374 760 q 268 792 321 792 q 185 776 215 792 q 154 711 154 761 l 154 144 q 169 97 154 113 q 209 76 183 82 q 269 71 235 71 q 326 76 301 71 q 363 97 350 82 q 376 144 376 113 l 376 383 l 242 383 l 250 463 l 468 463 l 468 131 q 444 49 468 79 q 376 7 421 19 q 268 -6 332 -6 z "},"Ĝ":{"ha":524,"x_min":61,"x_max":468,"o":"m 268 -6 q 155 7 201 -6 q 85 49 108 19 q 61 131 61 79 l 61 729 q 114 839 61 810 q 267 868 167 868 q 416 839 364 868 q 468 728 468 810 l 468 586 l 374 579 l 374 710 q 347 776 374 760 q 268 792 321 792 q 185 776 215 792 q 154 711 154 761 l 154 144 q 169 97 154 113 q 209 76 183 82 q 269 71 235 71 q 326 76 301 71 q 363 97 350 82 q 376 144 376 113 l 376 383 l 242 383 l 250 463 l 468 463 l 468 131 q 444 49 468 79 q 376 7 421 19 q 268 -6 332 -6 m 100 947 l 217 1075 l 304 1075 l 421 947 l 356 947 l 261 1029 l 165 947 l 100 947 z "},"Ģ":{"ha":524,"x_min":61,"x_max":468,"o":"m 268 -6 q 155 7 201 -6 q 85 49 108 19 q 61 131 61 79 l 61 729 q 114 839 61 810 q 267 868 167 868 q 416 839 364 868 q 468 728 468 810 l 468 586 l 374 579 l 374 710 q 347 776 374 760 q 268 792 321 792 q 185 776 215 792 q 154 711 154 761 l 154 144 q 169 97 154 113 q 209 76 183 82 q 269 71 235 71 q 326 76 301 71 q 363 97 350 82 q 376 144 376 113 l 376 383 l 242 383 l 250 463 l 468 463 l 468 131 q 444 49 468 79 q 376 7 421 19 q 268 -6 332 -6 m 208 -233 q 242 -171 229 -200 q 256 -114 256 -142 q 230 -107 235 -114 q 225 -89 225 -100 q 231 -65 225 -72 q 267 -58 236 -58 q 298 -65 293 -58 q 303 -87 303 -71 q 296 -140 303 -111 q 277 -192 289 -168 q 253 -233 265 -217 l 208 -233 z "},"Ġ":{"ha":524,"x_min":61,"x_max":468,"o":"m 268 -6 q 155 7 201 -6 q 85 49 108 19 q 61 131 61 79 l 61 729 q 114 839 61 810 q 267 868 167 868 q 416 839 364 868 q 468 728 468 810 l 468 586 l 374 579 l 374 710 q 347 776 374 760 q 268 792 321 792 q 185 776 215 792 q 154 711 154 761 l 154 144 q 169 97 154 113 q 209 76 183 82 q 269 71 235 71 q 326 76 301 71 q 363 97 350 82 q 376 144 376 113 l 376 383 l 242 383 l 250 463 l 468 463 l 468 131 q 444 49 468 79 q 376 7 421 19 q 268 -6 332 -6 m 258 943 q 226 953 231 943 q 221 982 221 963 q 226 1015 221 1006 q 258 1024 231 1024 q 294 1015 289 1024 q 299 982 299 1006 q 293 953 299 963 q 258 943 288 943 z "},"ẞ":{"ha":651,"x_min":72,"x_max":588,"o":"m 393 -8 q 250 33 293 -8 q 207 161 207 74 l 289 169 q 297 110 289 136 q 328 69 306 85 q 393 54 350 54 q 474 74 444 54 q 503 151 503 93 q 499 208 503 186 q 483 249 496 231 q 438 290 469 268 q 388 319 417 303 q 336 350 360 335 q 283 388 303 369 q 252 431 263 406 q 242 490 242 456 q 256 559 242 531 q 303 619 269 588 l 363 675 q 393 713 383 694 q 403 756 403 732 q 376 801 403 789 q 307 813 350 813 l 257 813 q 183 797 200 813 q 165 729 165 781 l 165 0 l 74 0 l 72 746 q 101 840 72 815 q 215 864 131 864 l 339 864 q 452 840 413 864 q 492 765 492 817 q 481 700 492 726 q 447 651 471 674 l 371 575 q 338 533 350 553 q 325 490 325 514 q 338 445 325 464 q 379 410 350 426 q 424 385 404 397 q 462 363 444 374 q 493 346 479 353 q 554 296 533 319 q 581 242 575 272 q 588 168 588 211 q 544 33 588 74 q 393 -8 501 -8 z "},"H":{"ha":550,"x_min":72,"x_max":476,"o":"m 72 861 l 167 861 l 167 518 l 383 518 l 383 861 l 476 861 l 476 0 l 383 0 l 383 444 l 167 444 l 167 0 l 72 0 l 72 861 z "},"Ħ":{"ha":539,"x_min":11,"x_max":529,"o":"m 11 704 l 11 768 l 529 768 l 529 704 l 11 704 m 99 861 l 192 861 l 192 518 l 408 518 l 408 861 l 503 861 l 503 0 l 408 0 l 408 444 l 192 444 l 192 0 l 99 0 l 99 861 z "},"Ĥ":{"ha":550,"x_min":72,"x_max":476,"o":"m 72 861 l 167 861 l 167 518 l 383 518 l 383 861 l 476 861 l 476 0 l 383 0 l 383 444 l 167 444 l 167 0 l 72 0 l 72 861 m 114 947 l 231 1075 l 318 1075 l 435 947 l 369 947 l 275 1029 l 179 947 l 114 947 z "},"I":{"ha":239,"x_min":72,"x_max":167,"o":"m 72 861 l 167 861 l 167 0 l 72 0 l 72 861 z "},"Í":{"ha":239,"x_min":40,"x_max":258,"o":"m 72 861 l 167 861 l 167 0 l 72 0 l 72 861 m 40 947 l 171 1072 l 257 1072 l 100 947 l 40 947 z "},"Ĭ":{"ha":239,"x_min":-25,"x_max":264,"o":"m 72 861 l 167 861 l 167 0 l 72 0 l 72 861 m 117 938 q 31 958 63 938 q -12 1008 0 978 q -25 1071 -25 1039 l 35 1071 q 53 1012 35 1039 q 117 985 72 985 q 185 1012 167 985 q 206 1071 204 1039 l 264 1071 q 230 975 264 1013 q 117 938 196 938 z "},"Ǐ":{"ha":239,"x_min":-42,"x_max":279,"o":"m -42 1075 l 24 1075 l 119 992 l 215 1075 l 279 1075 l 163 947 l 75 947 l -42 1075 m 72 861 l 167 861 l 167 0 l 72 0 l 72 861 z "},"Î":{"ha":239,"x_min":-42,"x_max":279,"o":"m 72 861 l 167 861 l 167 0 l 72 0 l 72 861 m -42 947 l 75 1075 l 163 1075 l 279 947 l 214 947 l 119 1029 l 24 947 l -42 947 z "},"Ȉ":{"ha":239,"x_min":-124,"x_max":208,"o":"m 72 861 l 167 861 l 167 0 l 72 0 l 72 861 m 25 947 l -124 1081 l -37 1081 l 85 947 l 25 947 m 149 947 l 0 1081 l 86 1081 l 208 947 l 149 947 z "},"Ï":{"ha":239,"x_min":6,"x_max":232,"o":"m 72 861 l 167 861 l 167 0 l 72 0 l 72 861 m 190 942 q 158 951 163 942 q 154 981 154 961 q 158 1012 154 1003 q 190 1021 163 1021 q 226 1012 221 1021 q 231 981 231 1003 q 226 951 231 961 q 190 942 221 942 m 43 942 q 10 951 15 942 q 6 981 6 961 q 10 1012 6 1003 q 43 1021 15 1021 q 78 1012 74 1021 q 83 981 83 1003 q 78 951 83 961 q 43 942 72 942 z "},"İ":{"ha":239,"x_min":72,"x_max":167,"o":"m 72 861 l 167 861 l 167 0 l 72 0 l 72 861 m 117 943 q 84 953 89 943 q 79 982 79 963 q 84 1015 79 1006 q 117 1024 89 1024 q 152 1015 147 1024 q 157 982 157 1006 q 151 953 157 963 q 117 943 146 943 z "},"Ị":{"ha":239,"x_min":72,"x_max":167,"o":"m 72 861 l 167 861 l 167 0 l 72 0 l 72 861 m 117 -139 q 84 -129 89 -139 q 79 -99 79 -119 q 84 -67 79 -76 q 117 -58 89 -58 q 152 -67 147 -58 q 157 -99 157 -76 q 151 -129 157 -119 q 117 -139 146 -139 z "},"Ì":{"ha":239,"x_min":-43,"x_max":174,"o":"m 72 861 l 167 861 l 167 0 l 72 0 l 72 861 m 115 947 l -42 1072 l 44 1072 l 175 947 l 115 947 z "},"Ỉ":{"ha":239,"x_min":14,"x_max":224,"o":"m 72 861 l 167 861 l 167 0 l 72 0 l 72 861 m 93 947 q 104 976 93 964 q 129 999 115 989 q 154 1022 143 1010 q 165 1051 165 1035 q 151 1083 165 1071 q 115 1094 136 1094 q 73 1078 88 1094 q 54 1043 58 1063 l 14 1058 q 49 1118 19 1096 q 126 1140 78 1140 q 196 1119 169 1140 q 222 1063 222 1097 q 211 1017 222 1033 q 185 990 200 1000 q 160 972 171 981 q 149 947 149 963 l 93 947 z "},"Ȋ":{"ha":239,"x_min":-25,"x_max":264,"o":"m 115 1075 q 229 1037 194 1075 q 264 942 264 999 l 206 942 q 185 1003 206 979 q 117 1028 165 1028 q 52 1002 71 1028 q 33 942 33 976 l -25 942 q -12 1006 -25 975 q 31 1056 0 1036 q 115 1075 61 1075 m 72 861 l 167 861 l 167 0 l 72 0 l 72 861 z "},"Ī":{"ha":239,"x_min":-39,"x_max":276,"o":"m 72 861 l 167 861 l 167 0 l 72 0 l 72 861 m -39 954 l -39 1013 l 278 1013 l 278 954 l -39 954 z "},"Į":{"ha":239,"x_min":-21,"x_max":197,"o":"m 72 861 l 167 861 l 167 0 l 72 0 l 72 861 m 88 -232 q 9 -202 40 -232 q -22 -121 -22 -172 q 8 -44 -22 -85 q 107 18 38 -4 l 158 13 q 78 -37 110 -7 q 47 -110 47 -68 q 67 -162 47 -142 q 115 -183 86 -183 q 152 -178 136 -183 q 185 -157 168 -172 l 197 -199 q 143 -224 169 -217 q 88 -232 117 -232 z "},"Ĩ":{"ha":239,"x_min":-32,"x_max":271,"o":"m 72 861 l 167 861 l 167 0 l 72 0 l 72 861 m -32 942 q -9 1030 -32 1001 q 50 1058 14 1058 q 101 1044 81 1058 q 141 1016 122 1031 q 181 1001 160 1001 q 216 1019 207 1001 q 225 1058 225 1038 l 271 1058 q 245 970 271 996 q 189 944 219 944 q 139 960 160 944 q 101 990 118 975 q 61 1004 83 1004 q 28 988 40 1004 q 17 942 17 971 l -32 942 z "},"J":{"ha":283,"x_min":-1,"x_max":217,"o":"m 13 0 l -1 74 l 69 74 q 107 81 96 74 q 120 108 118 88 q 122 172 122 129 l 122 861 l 217 861 l 217 144 q 210 54 217 86 q 177 11 203 22 q 94 0 151 0 l 13 0 z "},"Ĵ":{"ha":283,"x_min":-1,"x_max":329,"o":"m 13 0 l -1 74 l 69 74 q 107 81 96 74 q 120 108 118 88 q 122 172 122 129 l 122 861 l 217 861 l 217 144 q 210 54 217 86 q 177 11 203 22 q 94 0 151 0 l 13 0 m 8 947 l 125 1075 l 213 1075 l 329 947 l 264 947 l 169 1029 l 74 947 l 8 947 z "},"K":{"ha":518,"x_min":72,"x_max":508,"o":"m 424 -15 l 169 464 l 410 869 l 481 826 l 267 469 l 508 28 l 424 -15 m 72 861 l 167 861 l 167 0 l 72 0 l 72 861 z "},"Ķ":{"ha":518,"x_min":72,"x_max":508,"o":"m 424 -15 l 169 464 l 410 869 l 481 826 l 267 469 l 508 28 l 424 -15 m 72 861 l 167 861 l 167 0 l 72 0 l 72 861 m 210 -233 q 244 -171 231 -200 q 257 -114 257 -142 q 231 -107 236 -114 q 226 -89 226 -100 q 232 -65 226 -72 q 268 -58 238 -58 q 299 -65 294 -58 q 304 -87 304 -71 q 297 -140 304 -111 q 278 -192 290 -168 q 254 -233 267 -217 l 210 -233 z "},"L":{"ha":456,"x_min":72,"x_max":436,"o":"m 72 861 l 167 861 l 167 74 l 436 74 l 436 0 l 72 0 l 72 861 z "},"Ǉ":{"ha":739,"x_min":72,"x_max":672,"o":"m 72 861 l 167 861 l 167 74 l 436 74 l 436 0 l 72 0 l 72 861 m 468 0 l 454 74 l 525 74 q 563 81 551 74 q 576 108 574 88 q 578 172 578 129 l 578 861 l 672 861 l 672 144 q 665 54 672 86 q 633 11 658 22 q 550 0 607 0 l 468 0 z "},"Ĺ":{"ha":456,"x_min":72,"x_max":436,"o":"m 72 861 l 167 861 l 167 74 l 436 74 l 436 0 l 72 0 l 72 861 m 83 947 l 214 1072 l 300 1072 l 143 947 l 83 947 z "},"Ľ":{"ha":456,"x_min":72,"x_max":436,"o":"m 72 861 l 167 861 l 167 74 l 436 74 l 436 0 l 72 0 l 72 861 m 286 699 l 318 899 l 378 899 l 326 699 l 286 699 z "},"Ļ":{"ha":456,"x_min":72,"x_max":436,"o":"m 72 861 l 167 861 l 167 74 l 436 74 l 436 0 l 72 0 l 72 861 m 196 -233 q 230 -171 217 -200 q 243 -114 243 -142 q 217 -107 222 -114 q 213 -89 213 -100 q 218 -65 213 -72 q 254 -58 224 -58 q 285 -65 281 -58 q 290 -87 290 -71 q 283 -140 290 -111 q 265 -192 276 -168 q 240 -233 253 -217 l 196 -233 z "},"Ŀ":{"ha":436,"x_min":72,"x_max":436,"o":"m 72 861 l 167 861 l 167 74 l 436 74 l 436 0 l 72 0 l 72 861 m 369 321 q 336 331 340 321 q 332 361 332 340 q 336 392 332 383 q 369 401 340 401 q 404 392 399 401 q 410 361 410 383 q 404 331 410 340 q 369 321 399 321 z "},"ǈ":{"ha":735,"x_min":72,"x_max":667,"o":"m 72 861 l 167 861 l 167 74 l 436 74 l 436 0 l 72 0 l 72 861 m 408 -242 l 396 -168 l 507 -168 q 556 -149 544 -168 q 568 -87 568 -131 l 568 653 l 660 653 l 660 -110 q 634 -210 660 -178 q 540 -242 608 -242 l 408 -242 m 614 736 q 571 745 581 736 q 561 781 561 754 q 571 817 561 807 q 614 826 581 826 q 656 817 647 826 q 665 781 665 807 q 656 745 665 754 q 614 736 647 736 z "},"Ł":{"ha":483,"x_min":-24,"x_max":422,"o":"m 57 861 l 151 861 l 151 74 l 422 74 l 422 0 l 57 0 l 57 861 m -4 278 l -24 350 l 258 425 l 278 353 l -4 278 z "},"M":{"ha":769,"x_min":72,"x_max":697,"o":"m 72 0 l 72 861 l 192 861 l 382 232 l 383 226 l 385 226 l 386 232 l 576 861 l 697 861 l 697 0 l 603 0 l 603 664 l 601 667 l 600 646 l 422 94 l 346 94 l 169 642 l 168 658 l 167 661 l 167 0 l 72 0 z "},"N":{"ha":567,"x_min":72,"x_max":494,"o":"m 72 0 l 72 861 l 167 861 l 397 203 l 400 196 l 401 194 l 401 861 l 494 861 l 494 0 l 397 0 l 169 622 l 167 632 l 165 632 l 165 0 l 72 0 z "},"Ǌ":{"ha":850,"x_min":72,"x_max":783,"o":"m 72 0 l 72 861 l 167 861 l 397 203 l 400 196 l 401 194 l 401 861 l 494 861 l 494 0 l 397 0 l 169 622 l 167 632 l 165 632 l 165 0 l 72 0 m 579 0 l 565 74 l 636 74 q 674 81 663 74 q 687 108 685 88 q 689 172 689 129 l 689 861 l 783 861 l 783 144 q 776 54 783 86 q 744 11 769 22 q 661 0 718 0 l 579 0 z "},"Ń":{"ha":567,"x_min":72,"x_max":494,"o":"m 72 0 l 72 861 l 167 861 l 397 203 l 400 196 l 401 194 l 401 861 l 494 861 l 494 0 l 397 0 l 169 622 l 167 632 l 165 632 l 165 0 l 72 0 m 206 947 l 336 1072 l 422 1072 l 265 947 l 206 947 z "},"Ň":{"ha":567,"x_min":72,"x_max":494,"o":"m 122 1075 l 189 1075 l 283 992 l 379 1075 l 444 1075 l 326 947 l 239 947 l 122 1075 m 72 0 l 72 861 l 167 861 l 397 203 l 400 196 l 401 194 l 401 861 l 494 861 l 494 0 l 397 0 l 169 622 l 167 632 l 165 632 l 165 0 l 72 0 z "},"Ņ":{"ha":567,"x_min":72,"x_max":494,"o":"m 72 0 l 72 861 l 167 861 l 397 203 l 400 196 l 401 194 l 401 861 l 494 861 l 494 0 l 397 0 l 169 622 l 167 632 l 165 632 l 165 0 l 72 0 m 231 -233 q 265 -171 251 -200 q 278 -114 278 -142 q 252 -107 257 -114 q 247 -89 247 -100 q 253 -65 247 -72 q 289 -58 258 -58 q 320 -65 315 -58 q 325 -87 325 -71 q 318 -140 325 -111 q 299 -192 311 -168 q 275 -233 288 -217 l 231 -233 z "},"ǋ":{"ha":846,"x_min":72,"x_max":778,"o":"m 72 0 l 72 861 l 167 861 l 397 203 l 400 196 l 401 194 l 401 861 l 494 861 l 494 0 l 397 0 l 169 622 l 167 632 l 165 632 l 165 0 l 72 0 m 519 -242 l 507 -168 l 618 -168 q 667 -149 656 -168 q 679 -87 679 -131 l 679 653 l 771 653 l 771 -110 q 745 -210 771 -178 q 651 -242 719 -242 l 519 -242 m 725 736 q 682 745 692 736 q 672 781 672 754 q 682 817 672 807 q 725 826 692 826 q 767 817 758 826 q 776 781 776 807 q 767 745 776 754 q 725 736 758 736 z "},"Ñ":{"ha":567,"x_min":72,"x_max":494,"o":"m 72 0 l 72 861 l 167 861 l 397 203 l 400 196 l 401 194 l 401 861 l 494 861 l 494 0 l 397 0 l 169 622 l 167 632 l 165 632 l 165 0 l 72 0 m 132 942 q 155 1030 132 1001 q 214 1058 178 1058 q 265 1044 244 1058 q 305 1016 286 1031 q 344 1001 324 1001 q 380 1019 371 1001 q 389 1058 389 1038 l 435 1058 q 409 970 435 996 q 353 944 383 944 q 303 960 324 944 q 265 990 282 975 q 225 1004 247 1004 q 192 988 204 1004 q 181 942 181 971 l 132 942 z "},"O":{"ha":528,"x_min":61,"x_max":467,"o":"m 263 -6 q 112 31 163 -6 q 61 135 61 68 l 61 735 q 108 834 61 794 q 263 872 156 874 q 419 833 372 871 q 467 735 467 794 l 467 135 q 417 32 467 69 q 263 -6 367 -6 m 263 71 q 349 95 322 71 q 375 158 375 119 l 375 711 q 351 771 375 746 q 261 796 328 796 q 176 772 199 796 q 153 713 153 747 l 153 157 q 179 95 153 119 q 263 71 206 71 z "},"Œ":{"ha":796,"x_min":61,"x_max":758,"o":"m 264 -6 q 113 31 164 -6 q 61 135 61 68 l 61 728 q 109 835 61 799 q 263 871 157 872 q 407 834 361 871 q 453 726 453 797 l 453 135 q 404 32 453 69 q 264 -6 356 -6 m 263 71 q 349 96 324 71 q 375 156 375 121 l 375 704 q 366 750 375 729 q 332 783 357 771 q 261 794 307 794 q 175 767 197 794 q 153 706 153 739 l 153 156 q 178 96 153 121 q 263 71 204 71 m 378 0 l 378 861 l 758 861 l 758 788 l 467 788 l 467 518 l 735 518 l 721 444 l 467 444 l 467 74 l 758 74 l 758 0 l 378 0 z "},"Ó":{"ha":528,"x_min":61,"x_max":467,"o":"m 263 -6 q 112 31 163 -6 q 61 135 61 68 l 61 735 q 108 834 61 794 q 263 872 156 874 q 419 833 372 871 q 467 735 467 794 l 467 135 q 417 32 467 69 q 263 -6 367 -6 m 263 71 q 349 95 322 71 q 375 158 375 119 l 375 711 q 351 771 375 746 q 261 796 328 796 q 176 772 199 796 q 153 713 153 747 l 153 157 q 179 95 153 119 q 263 71 206 71 m 186 947 l 317 1072 l 403 1072 l 246 947 l 186 947 z "},"Ŏ":{"ha":528,"x_min":61,"x_max":467,"o":"m 263 -6 q 112 31 163 -6 q 61 135 61 68 l 61 735 q 108 834 61 794 q 263 872 156 874 q 419 833 372 871 q 467 735 467 794 l 467 135 q 417 32 467 69 q 263 -6 367 -6 m 263 71 q 349 95 322 71 q 375 158 375 119 l 375 711 q 351 771 375 746 q 261 796 328 796 q 176 772 199 796 q 153 713 153 747 l 153 157 q 179 95 153 119 q 263 71 206 71 m 261 938 q 176 958 207 938 q 132 1008 144 978 q 119 1071 119 1039 l 179 1071 q 198 1012 179 1039 q 261 985 217 985 q 330 1012 311 985 q 350 1071 349 1039 l 408 1071 q 374 975 408 1013 q 261 938 340 938 z "},"Ǒ":{"ha":528,"x_min":61,"x_max":467,"o":"m 103 1075 l 169 1075 l 264 992 l 360 1075 l 424 1075 l 307 947 l 219 947 l 103 1075 m 263 -6 q 112 31 163 -6 q 61 135 61 68 l 61 735 q 108 834 61 794 q 263 872 156 874 q 419 833 372 871 q 467 735 467 794 l 467 135 q 417 32 467 69 q 263 -6 367 -6 m 263 71 q 349 95 322 71 q 375 158 375 119 l 375 711 q 351 771 375 746 q 261 796 328 796 q 176 772 199 796 q 153 713 153 747 l 153 157 q 179 95 153 119 q 263 71 206 71 z "},"Ô":{"ha":528,"x_min":61,"x_max":467,"o":"m 263 -6 q 112 31 163 -6 q 61 135 61 68 l 61 735 q 108 834 61 794 q 263 872 156 874 q 419 833 372 871 q 467 735 467 794 l 467 135 q 417 32 467 69 q 263 -6 367 -6 m 263 71 q 349 95 322 71 q 375 158 375 119 l 375 711 q 351 771 375 746 q 261 796 328 796 q 176 772 199 796 q 153 713 153 747 l 153 157 q 179 95 153 119 q 263 71 206 71 m 103 947 l 219 1075 l 307 1075 l 424 947 l 358 947 l 264 1029 l 168 947 l 103 947 z "},"Ố":{"ha":528,"x_min":61,"x_max":574,"o":"m 263 -6 q 112 31 163 -6 q 61 135 61 68 l 61 735 q 108 834 61 794 q 263 872 156 874 q 419 833 372 871 q 467 735 467 794 l 467 135 q 417 32 467 69 q 263 -6 367 -6 m 263 71 q 349 95 322 71 q 375 158 375 119 l 375 711 q 351 771 375 746 q 261 796 328 796 q 176 772 199 796 q 153 713 153 747 l 153 157 q 179 95 153 119 q 263 71 206 71 m 126 928 l 219 1032 l 306 1032 l 399 928 l 333 928 l 264 988 l 193 928 l 126 928 m 389 1008 l 489 1118 l 574 1118 l 450 1008 l 389 1008 z "},"Ộ":{"ha":528,"x_min":61,"x_max":467,"o":"m 263 -6 q 112 31 163 -6 q 61 135 61 68 l 61 735 q 108 834 61 794 q 263 872 156 874 q 419 833 372 871 q 467 735 467 794 l 467 135 q 417 32 467 69 q 263 -6 367 -6 m 263 71 q 349 95 322 71 q 375 158 375 119 l 375 711 q 351 771 375 746 q 261 796 328 796 q 176 772 199 796 q 153 713 153 747 l 153 157 q 179 95 153 119 q 263 71 206 71 m 261 -139 q 228 -129 233 -139 q 224 -99 224 -119 q 228 -67 224 -76 q 261 -58 233 -58 q 297 -67 292 -58 q 301 -99 301 -76 q 296 -129 301 -119 q 261 -139 290 -139 m 103 947 l 219 1075 l 307 1075 l 424 947 l 358 947 l 264 1029 l 168 947 l 103 947 z "},"Ồ":{"ha":528,"x_min":61,"x_max":482,"o":"m 263 -6 q 112 31 163 -6 q 61 135 61 68 l 61 735 q 108 834 61 794 q 263 872 156 874 q 419 833 372 871 q 467 735 467 794 l 467 135 q 417 32 467 69 q 263 -6 367 -6 m 263 71 q 349 95 322 71 q 375 158 375 119 l 375 711 q 351 771 375 746 q 261 796 328 796 q 176 772 199 796 q 153 713 153 747 l 153 157 q 179 95 153 119 q 263 71 206 71 m 126 928 l 219 1032 l 306 1032 l 399 928 l 333 928 l 264 988 l 193 928 l 126 928 m 422 1008 l 299 1118 l 382 1118 l 482 1008 l 422 1008 z "},"Ổ":{"ha":528,"x_min":61,"x_max":517,"o":"m 263 -6 q 112 31 163 -6 q 61 135 61 68 l 61 735 q 108 834 61 794 q 263 872 156 874 q 419 833 372 871 q 467 735 467 794 l 467 135 q 417 32 467 69 q 263 -6 367 -6 m 263 71 q 349 95 322 71 q 375 158 375 119 l 375 711 q 351 771 375 746 q 261 796 328 796 q 176 772 199 796 q 153 713 153 747 l 153 157 q 179 95 153 119 q 263 71 206 71 m 126 928 l 219 1032 l 306 1032 l 399 928 l 333 928 l 264 988 l 193 928 l 126 928 m 403 1008 q 417 1039 403 1028 q 444 1062 431 1050 q 457 1092 457 1074 q 447 1114 457 1104 q 422 1124 438 1124 q 392 1112 403 1124 q 376 1085 381 1100 l 338 1100 q 368 1149 343 1131 q 433 1167 393 1167 q 493 1149 469 1167 q 517 1101 517 1132 q 508 1065 517 1078 q 487 1043 499 1051 q 466 1027 475 1035 q 457 1008 457 1019 l 403 1008 z "},"Ỗ":{"ha":528,"x_min":61,"x_max":467,"o":"m 263 -6 q 112 31 163 -6 q 61 135 61 68 l 61 735 q 108 834 61 794 q 263 872 156 874 q 419 833 372 871 q 467 735 467 794 l 467 135 q 417 32 467 69 q 263 -6 367 -6 m 263 71 q 349 95 322 71 q 375 158 375 119 l 375 711 q 351 771 375 746 q 261 796 328 796 q 176 772 199 796 q 153 713 153 747 l 153 157 q 179 95 153 119 q 263 71 206 71 m 126 928 l 219 1032 l 306 1032 l 399 928 l 333 928 l 264 988 l 193 928 l 126 928 m 132 1060 q 152 1136 132 1111 q 204 1161 172 1161 q 246 1151 228 1161 q 279 1128 264 1140 q 311 1117 294 1117 q 338 1131 329 1117 q 347 1161 347 1146 l 390 1161 q 369 1085 390 1108 q 319 1061 347 1061 q 278 1073 294 1061 q 248 1096 263 1085 q 214 1107 233 1107 q 189 1094 199 1107 q 179 1060 179 1082 l 132 1060 z "},"Ȍ":{"ha":528,"x_min":21,"x_max":467,"o":"m 263 -6 q 112 31 163 -6 q 61 135 61 68 l 61 735 q 108 834 61 794 q 263 872 156 874 q 419 833 372 871 q 467 735 467 794 l 467 135 q 417 32 467 69 q 263 -6 367 -6 m 263 71 q 349 95 322 71 q 375 158 375 119 l 375 711 q 351 771 375 746 q 261 796 328 796 q 176 772 199 796 q 153 713 153 747 l 153 157 q 179 95 153 119 q 263 71 206 71 m 169 947 l 21 1081 l 107 1081 l 229 947 l 169 947 m 293 947 l 144 1081 l 231 1081 l 353 947 l 293 947 z "},"Ö":{"ha":528,"x_min":61,"x_max":467,"o":"m 263 -6 q 112 31 163 -6 q 61 135 61 68 l 61 735 q 108 834 61 794 q 263 872 156 874 q 419 833 372 871 q 467 735 467 794 l 467 135 q 417 32 467 69 q 263 -6 367 -6 m 263 71 q 349 95 322 71 q 375 158 375 119 l 375 711 q 351 771 375 746 q 261 796 328 796 q 176 772 199 796 q 153 713 153 747 l 153 157 q 179 95 153 119 q 263 71 206 71 m 335 942 q 303 951 307 942 q 299 981 299 961 q 303 1012 299 1003 q 335 1021 307 1021 q 370 1012 365 1021 q 375 981 375 1003 q 370 951 375 961 q 335 942 365 942 m 188 942 q 155 951 160 942 q 150 981 150 961 q 155 1012 150 1003 q 188 1021 160 1021 q 223 1012 218 1021 q 228 981 228 1003 q 222 951 228 961 q 188 942 217 942 z "},"Ȫ":{"ha":528,"x_min":61,"x_max":467,"o":"m 263 -6 q 112 31 163 -6 q 61 135 61 68 l 61 735 q 108 834 61 794 q 263 872 156 874 q 419 833 372 871 q 467 735 467 794 l 467 135 q 417 32 467 69 q 263 -6 367 -6 m 263 71 q 349 95 322 71 q 375 158 375 119 l 375 711 q 351 771 375 746 q 261 796 328 796 q 176 772 199 796 q 153 713 153 747 l 153 157 q 179 95 153 119 q 263 71 206 71 m 335 942 q 303 951 307 942 q 299 981 299 961 q 303 1012 299 1003 q 335 1021 307 1021 q 370 1012 365 1021 q 375 981 375 1003 q 370 951 375 961 q 335 942 365 942 m 188 942 q 155 951 160 942 q 150 981 150 961 q 155 1012 150 1003 q 188 1021 160 1021 q 223 1012 218 1021 q 228 981 228 1003 q 222 951 228 961 q 188 942 217 942 m 106 1057 l 106 1115 l 422 1115 l 422 1057 l 106 1057 z "},"Ȱ":{"ha":528,"x_min":61,"x_max":467,"o":"m 263 -6 q 112 31 163 -6 q 61 135 61 68 l 61 735 q 108 834 61 794 q 263 872 156 874 q 419 833 372 871 q 467 735 467 794 l 467 135 q 417 32 467 69 q 263 -6 367 -6 m 263 71 q 349 95 322 71 q 375 158 375 119 l 375 711 q 351 771 375 746 q 261 796 328 796 q 176 772 199 796 q 153 713 153 747 l 153 157 q 179 95 153 119 q 263 71 206 71 m 261 943 q 228 953 233 943 q 224 982 224 963 q 228 1015 224 1006 q 261 1024 233 1024 q 297 1015 292 1024 q 301 982 301 1006 q 296 953 301 963 q 261 943 290 943 m 106 1057 l 106 1115 l 422 1115 l 422 1057 l 106 1057 z "},"Ọ":{"ha":528,"x_min":61,"x_max":467,"o":"m 263 -6 q 112 31 163 -6 q 61 135 61 68 l 61 735 q 108 834 61 794 q 263 872 156 874 q 419 833 372 871 q 467 735 467 794 l 467 135 q 417 32 467 69 q 263 -6 367 -6 m 263 71 q 349 95 322 71 q 375 158 375 119 l 375 711 q 351 771 375 746 q 261 796 328 796 q 176 772 199 796 q 153 713 153 747 l 153 157 q 179 95 153 119 q 263 71 206 71 m 261 -139 q 228 -129 233 -139 q 224 -99 224 -119 q 228 -67 224 -76 q 261 -58 233 -58 q 297 -67 292 -58 q 301 -99 301 -76 q 296 -129 301 -119 q 261 -139 290 -139 z "},"Ò":{"ha":528,"x_min":61,"x_max":467,"o":"m 263 -6 q 112 31 163 -6 q 61 135 61 68 l 61 735 q 108 834 61 794 q 263 872 156 874 q 419 833 372 871 q 467 735 467 794 l 467 135 q 417 32 467 69 q 263 -6 367 -6 m 263 71 q 349 95 322 71 q 375 158 375 119 l 375 711 q 351 771 375 746 q 261 796 328 796 q 176 772 199 796 q 153 713 153 747 l 153 157 q 179 95 153 119 q 263 71 206 71 m 260 947 l 103 1072 l 189 1072 l 319 947 l 260 947 z "},"Ỏ":{"ha":528,"x_min":61,"x_max":467,"o":"m 263 -6 q 112 31 163 -6 q 61 135 61 68 l 61 735 q 108 834 61 794 q 263 872 156 874 q 419 833 372 871 q 467 735 467 794 l 467 135 q 417 32 467 69 q 263 -6 367 -6 m 263 71 q 349 95 322 71 q 375 158 375 119 l 375 711 q 351 771 375 746 q 261 796 328 796 q 176 772 199 796 q 153 713 153 747 l 153 157 q 179 95 153 119 q 263 71 206 71 m 238 947 q 249 976 238 964 q 274 999 260 989 q 299 1022 288 1010 q 310 1051 310 1035 q 295 1083 310 1071 q 260 1094 281 1094 q 217 1078 232 1094 q 199 1043 203 1063 l 158 1058 q 193 1118 164 1096 q 271 1140 222 1140 q 340 1119 314 1140 q 367 1063 367 1097 q 356 1017 367 1033 q 330 990 344 1000 q 304 972 315 981 q 293 947 293 963 l 238 947 z "},"Ơ":{"ha":528,"x_min":61,"x_max":485,"o":"m 263 -6 q 112 31 163 -6 q 61 135 61 68 l 61 735 q 108 834 61 794 q 263 872 156 874 q 419 833 372 871 q 467 735 467 794 l 467 135 q 417 32 467 69 q 263 -6 367 -6 m 263 71 q 349 95 322 71 q 375 158 375 119 l 375 711 q 351 771 375 746 q 261 796 328 796 q 176 772 199 796 q 153 713 153 747 l 153 157 q 179 95 153 119 q 263 71 206 71 m 361 828 l 356 861 q 415 878 399 861 q 429 931 431 894 l 483 931 q 456 853 483 879 q 361 828 429 828 z "},"Ớ":{"ha":528,"x_min":61,"x_max":485,"o":"m 263 -6 q 112 31 163 -6 q 61 135 61 68 l 61 735 q 108 834 61 794 q 263 872 156 874 q 419 833 372 871 q 467 735 467 794 l 467 135 q 417 32 467 69 q 263 -6 367 -6 m 263 71 q 349 95 322 71 q 375 158 375 119 l 375 711 q 351 771 375 746 q 261 796 328 796 q 176 772 199 796 q 153 713 153 747 l 153 157 q 179 95 153 119 q 263 71 206 71 m 361 828 l 356 861 q 415 878 399 861 q 429 931 431 894 l 483 931 q 456 853 483 879 q 361 828 429 828 m 186 947 l 317 1072 l 403 1072 l 246 947 l 186 947 z "},"Ợ":{"ha":528,"x_min":61,"x_max":485,"o":"m 263 -6 q 112 31 163 -6 q 61 135 61 68 l 61 735 q 108 834 61 794 q 263 872 156 874 q 419 833 372 871 q 467 735 467 794 l 467 135 q 417 32 467 69 q 263 -6 367 -6 m 263 71 q 349 95 322 71 q 375 158 375 119 l 375 711 q 351 771 375 746 q 261 796 328 796 q 176 772 199 796 q 153 713 153 747 l 153 157 q 179 95 153 119 q 263 71 206 71 m 361 828 l 356 861 q 415 878 399 861 q 429 931 431 894 l 483 931 q 456 853 483 879 q 361 828 429 828 m 261 -139 q 228 -129 233 -139 q 224 -99 224 -119 q 228 -67 224 -76 q 261 -58 233 -58 q 297 -67 292 -58 q 301 -99 301 -76 q 296 -129 301 -119 q 261 -139 290 -139 z "},"Ờ":{"ha":528,"x_min":61,"x_max":485,"o":"m 263 -6 q 112 31 163 -6 q 61 135 61 68 l 61 735 q 108 834 61 794 q 263 872 156 874 q 419 833 372 871 q 467 735 467 794 l 467 135 q 417 32 467 69 q 263 -6 367 -6 m 263 71 q 349 95 322 71 q 375 158 375 119 l 375 711 q 351 771 375 746 q 261 796 328 796 q 176 772 199 796 q 153 713 153 747 l 153 157 q 179 95 153 119 q 263 71 206 71 m 361 828 l 356 861 q 415 878 399 861 q 429 931 431 894 l 483 931 q 456 853 483 879 q 361 828 429 828 m 260 947 l 103 1072 l 189 1072 l 319 947 l 260 947 z "},"Ở":{"ha":528,"x_min":61,"x_max":485,"o":"m 263 -6 q 112 31 163 -6 q 61 135 61 68 l 61 735 q 108 834 61 794 q 263 872 156 874 q 419 833 372 871 q 467 735 467 794 l 467 135 q 417 32 467 69 q 263 -6 367 -6 m 263 71 q 349 95 322 71 q 375 158 375 119 l 375 711 q 351 771 375 746 q 261 796 328 796 q 176 772 199 796 q 153 713 153 747 l 153 157 q 179 95 153 119 q 263 71 206 71 m 361 828 l 356 861 q 415 878 399 861 q 429 931 431 894 l 483 931 q 456 853 483 879 q 361 828 429 828 m 238 947 q 249 976 238 964 q 274 999 260 989 q 299 1022 288 1010 q 310 1051 310 1035 q 295 1083 310 1071 q 260 1094 281 1094 q 217 1078 232 1094 q 199 1043 203 1063 l 158 1058 q 193 1118 164 1096 q 271 1140 222 1140 q 340 1119 314 1140 q 367 1063 367 1097 q 356 1017 367 1033 q 330 990 344 1000 q 304 972 315 981 q 293 947 293 963 l 238 947 z "},"Ỡ":{"ha":528,"x_min":61,"x_max":485,"o":"m 263 -6 q 112 31 163 -6 q 61 135 61 68 l 61 735 q 108 834 61 794 q 263 872 156 874 q 419 833 372 871 q 467 735 467 794 l 467 135 q 417 32 467 69 q 263 -6 367 -6 m 263 71 q 349 95 322 71 q 375 158 375 119 l 375 711 q 351 771 375 746 q 261 796 328 796 q 176 772 199 796 q 153 713 153 747 l 153 157 q 179 95 153 119 q 263 71 206 71 m 361 828 l 356 861 q 415 878 399 861 q 429 931 431 894 l 483 931 q 456 853 483 879 q 361 828 429 828 m 113 942 q 135 1030 113 1001 q 194 1058 158 1058 q 246 1044 225 1058 q 285 1016 267 1031 q 325 1001 304 1001 q 360 1019 351 1001 q 369 1058 369 1038 l 415 1058 q 390 970 415 996 q 333 944 364 944 q 283 960 304 944 q 245 990 263 975 q 206 1004 228 1004 q 173 988 185 1004 q 161 942 161 971 l 113 942 z "},"Ő":{"ha":528,"x_min":61,"x_max":467,"o":"m 263 -6 q 112 31 163 -6 q 61 135 61 68 l 61 735 q 108 834 61 794 q 263 872 156 874 q 419 833 372 871 q 467 735 467 794 l 467 135 q 417 32 467 69 q 263 -6 367 -6 m 263 71 q 349 95 322 71 q 375 158 375 119 l 375 711 q 351 771 375 746 q 261 796 328 796 q 176 772 199 796 q 153 713 153 747 l 153 157 q 179 95 153 119 q 263 71 206 71 m 171 947 l 226 1081 l 311 1081 l 231 947 l 171 947 m 300 947 l 356 1081 l 442 1081 l 360 947 l 300 947 z "},"Ȏ":{"ha":528,"x_min":61,"x_max":467,"o":"m 260 1075 q 374 1037 339 1075 q 408 942 408 999 l 350 942 q 330 1003 350 979 q 261 1028 310 1028 q 197 1002 215 1028 q 178 942 178 976 l 119 942 q 132 1006 119 975 q 176 1056 144 1036 q 260 1075 207 1075 m 263 -6 q 112 31 163 -6 q 61 135 61 68 l 61 735 q 108 834 61 794 q 263 872 156 874 q 419 833 372 871 q 467 735 467 794 l 467 135 q 417 32 467 69 q 263 -6 367 -6 m 263 71 q 349 95 322 71 q 375 158 375 119 l 375 711 q 351 771 375 746 q 261 796 328 796 q 176 772 199 796 q 153 713 153 747 l 153 157 q 179 95 153 119 q 263 71 206 71 z "},"Ō":{"ha":528,"x_min":61,"x_max":467,"o":"m 263 -6 q 112 31 163 -6 q 61 135 61 68 l 61 735 q 108 834 61 794 q 263 872 156 874 q 419 833 372 871 q 467 735 467 794 l 467 135 q 417 32 467 69 q 263 -6 367 -6 m 263 71 q 349 95 322 71 q 375 158 375 119 l 375 711 q 351 771 375 746 q 261 796 328 796 q 176 772 199 796 q 153 713 153 747 l 153 157 q 179 95 153 119 q 263 71 206 71 m 106 954 l 106 1013 l 422 1013 l 422 954 l 106 954 z "},"Ω":{"ha":854,"x_min":53,"x_max":801,"o":"m 53 74 l 251 74 q 159 176 200 114 q 94 317 118 239 q 71 486 71 396 q 81 639 71 571 q 125 757 90 707 q 233 834 160 807 q 431 861 306 861 q 597 843 531 861 q 701 792 663 825 q 758 712 739 758 q 781 610 776 665 q 786 490 786 554 q 760 319 786 399 q 692 178 735 240 q 600 74 650 115 l 801 74 l 801 0 l 536 0 l 528 78 q 581 135 554 97 q 628 226 607 174 q 663 342 650 279 q 676 471 676 404 q 671 592 676 535 q 644 697 665 650 q 572 769 622 743 q 431 796 521 796 q 290 771 342 796 q 215 702 239 746 q 185 601 192 658 q 179 478 179 543 q 190 357 179 418 q 220 241 200 296 q 267 143 240 186 q 326 78 294 100 l 317 0 l 53 0 l 53 74 z "},"Ǫ":{"ha":528,"x_min":61,"x_max":467,"o":"m 263 -6 q 112 31 163 -6 q 61 135 61 68 l 61 735 q 108 834 61 794 q 263 872 156 874 q 419 833 372 871 q 467 735 467 794 l 467 135 q 417 32 467 69 q 263 -6 367 -6 m 263 71 q 349 95 322 71 q 375 158 375 119 l 375 711 q 351 771 375 746 q 261 796 328 796 q 176 772 199 796 q 153 713 153 747 l 153 157 q 179 95 153 119 q 263 71 206 71 m 285 -236 q 206 -206 238 -236 q 175 -125 175 -176 q 205 -49 175 -89 q 304 14 235 -8 l 356 8 q 276 -42 307 -11 q 244 -114 244 -72 q 264 -167 244 -146 q 313 -187 283 -187 q 349 -182 333 -187 q 382 -161 365 -176 l 394 -203 q 340 -228 367 -221 q 285 -236 314 -236 z "},"Ø":{"ha":531,"x_min":61,"x_max":468,"o":"m 265 -6 q 113 31 164 -6 q 61 135 61 68 l 61 728 q 109 835 61 799 q 263 871 157 872 q 418 834 368 871 q 468 726 468 797 l 468 135 q 415 32 468 69 q 265 -6 361 -6 m 263 71 q 351 96 325 71 q 376 156 376 121 l 376 704 q 367 750 376 729 q 332 783 357 771 q 261 794 307 794 q 175 767 197 794 q 153 706 153 739 l 153 156 q 178 96 153 121 q 263 71 204 71 m 85 -61 l 392 882 l 435 882 l 124 -61 l 85 -61 z "},"Ǿ":{"ha":531,"x_min":61,"x_max":468,"o":"m 265 -6 q 113 31 164 -6 q 61 135 61 68 l 61 728 q 109 835 61 799 q 263 871 157 872 q 418 834 368 871 q 468 726 468 797 l 468 135 q 415 32 468 69 q 265 -6 361 -6 m 263 71 q 351 96 325 71 q 376 156 376 121 l 376 704 q 367 750 376 729 q 332 783 357 771 q 261 794 307 794 q 175 767 197 794 q 153 706 153 739 l 153 156 q 178 96 153 121 q 263 71 204 71 m 85 -61 l 392 882 l 435 882 l 124 -61 l 85 -61 m 188 947 l 318 1072 l 404 1072 l 247 947 l 188 947 z "},"Õ":{"ha":528,"x_min":61,"x_max":467,"o":"m 263 -6 q 112 31 163 -6 q 61 135 61 68 l 61 735 q 108 834 61 794 q 263 872 156 874 q 419 833 372 871 q 467 735 467 794 l 467 135 q 417 32 467 69 q 263 -6 367 -6 m 263 71 q 349 95 322 71 q 375 158 375 119 l 375 711 q 351 771 375 746 q 261 796 328 796 q 176 772 199 796 q 153 713 153 747 l 153 157 q 179 95 153 119 q 263 71 206 71 m 113 942 q 135 1030 113 1001 q 194 1058 158 1058 q 246 1044 225 1058 q 285 1016 267 1031 q 325 1001 304 1001 q 360 1019 351 1001 q 369 1058 369 1038 l 415 1058 q 390 970 415 996 q 333 944 364 944 q 283 960 304 944 q 245 990 263 975 q 206 1004 228 1004 q 173 988 185 1004 q 161 942 161 971 l 113 942 z "},"Ȭ":{"ha":528,"x_min":61,"x_max":467,"o":"m 263 -6 q 112 31 163 -6 q 61 135 61 68 l 61 735 q 108 834 61 794 q 263 872 156 874 q 419 833 372 871 q 467 735 467 794 l 467 135 q 417 32 467 69 q 263 -6 367 -6 m 263 71 q 349 95 322 71 q 375 158 375 119 l 375 711 q 351 771 375 746 q 261 796 328 796 q 176 772 199 796 q 153 713 153 747 l 153 157 q 179 95 153 119 q 263 71 206 71 m 113 942 q 135 1030 113 1001 q 194 1058 158 1058 q 246 1044 225 1058 q 285 1016 267 1031 q 325 1001 304 1001 q 360 1019 351 1001 q 369 1058 369 1038 l 415 1058 q 390 970 415 996 q 333 944 364 944 q 283 960 304 944 q 245 990 263 975 q 206 1004 228 1004 q 173 988 185 1004 q 161 942 161 971 l 113 942 m 106 1103 l 106 1161 l 422 1161 l 422 1103 l 106 1103 z "},"P":{"ha":521,"x_min":72,"x_max":483,"o":"m 72 861 l 349 861 q 437 847 408 861 q 474 802 465 832 q 483 728 483 772 l 483 511 q 475 417 483 461 q 432 347 467 374 q 318 319 397 319 l 167 319 l 167 0 l 72 0 l 72 861 m 292 393 q 365 419 340 393 q 390 504 390 444 l 390 689 q 373 767 390 746 q 306 788 356 788 l 167 788 l 167 393 l 292 393 z "},"Q":{"ha":525,"x_min":61,"x_max":521,"o":"m 264 -10 q 113 28 164 -10 q 61 139 61 67 l 61 711 q 109 833 61 794 q 263 871 157 872 q 418 833 368 871 q 468 710 468 794 l 468 140 q 415 28 468 67 q 264 -10 361 -10 m 263 68 q 349 92 324 68 q 375 157 375 117 l 375 692 q 352 767 375 740 q 263 794 329 794 q 177 767 199 794 q 156 693 156 739 l 156 153 q 181 91 156 114 q 263 68 207 68 m 454 -169 l 293 1 l 354 64 l 521 -104 l 454 -169 z "},"R":{"ha":546,"x_min":72,"x_max":519,"o":"m 72 861 l 349 861 q 437 847 408 861 q 474 802 465 832 q 483 728 483 772 l 483 565 q 475 472 483 515 q 432 401 467 428 q 318 374 397 374 l 167 374 l 167 0 l 72 0 l 72 861 m 432 -21 l 274 379 l 338 385 l 364 376 l 369 368 l 519 13 l 432 -21 m 292 447 q 365 473 340 447 q 390 558 390 499 l 390 689 q 373 767 390 746 q 306 788 356 788 l 167 788 l 167 447 l 292 447 z "},"Ŕ":{"ha":546,"x_min":72,"x_max":519,"o":"m 72 861 l 349 861 q 437 847 408 861 q 474 802 465 832 q 483 728 483 772 l 483 565 q 475 472 483 515 q 432 401 467 428 q 318 374 397 374 l 167 374 l 167 0 l 72 0 l 72 861 m 432 -21 l 274 379 l 338 385 l 364 376 l 369 368 l 519 13 l 432 -21 m 292 447 q 365 473 340 447 q 390 558 390 499 l 390 689 q 373 767 390 746 q 306 788 356 788 l 167 788 l 167 447 l 292 447 m 181 947 l 311 1072 l 397 1072 l 240 947 l 181 947 z "},"Ř":{"ha":546,"x_min":72,"x_max":519,"o":"m 97 1075 l 164 1075 l 258 992 l 354 1075 l 418 1075 l 301 947 l 214 947 l 97 1075 m 72 861 l 349 861 q 437 847 408 861 q 474 802 465 832 q 483 728 483 772 l 483 565 q 475 472 483 515 q 432 401 467 428 q 318 374 397 374 l 167 374 l 167 0 l 72 0 l 72 861 m 432 -21 l 274 379 l 338 385 l 364 376 l 369 368 l 519 13 l 432 -21 m 292 447 q 365 473 340 447 q 390 558 390 499 l 390 689 q 373 767 390 746 q 306 788 356 788 l 167 788 l 167 447 l 292 447 z "},"Ŗ":{"ha":546,"x_min":72,"x_max":519,"o":"m 72 861 l 349 861 q 437 847 408 861 q 474 802 465 832 q 483 728 483 772 l 483 565 q 475 472 483 515 q 432 401 467 428 q 318 374 397 374 l 167 374 l 167 0 l 72 0 l 72 861 m 432 -21 l 274 379 l 338 385 l 364 376 l 369 368 l 519 13 l 432 -21 m 292 447 q 365 473 340 447 q 390 558 390 499 l 390 689 q 373 767 390 746 q 306 788 356 788 l 167 788 l 167 447 l 292 447 m 206 -233 q 240 -171 226 -200 q 253 -114 253 -142 q 227 -107 232 -114 q 222 -89 222 -100 q 228 -65 222 -72 q 264 -58 233 -58 q 295 -65 290 -58 q 300 -87 300 -71 q 293 -140 300 -111 q 274 -192 286 -168 q 250 -233 263 -217 l 206 -233 z "},"Ȑ":{"ha":546,"x_min":15,"x_max":519,"o":"m 72 861 l 349 861 q 437 847 408 861 q 474 802 465 832 q 483 728 483 772 l 483 565 q 475 472 483 515 q 432 401 467 428 q 318 374 397 374 l 167 374 l 167 0 l 72 0 l 72 861 m 432 -21 l 274 379 l 338 385 l 364 376 l 369 368 l 519 13 l 432 -21 m 292 447 q 365 473 340 447 q 390 558 390 499 l 390 689 q 373 767 390 746 q 306 788 356 788 l 167 788 l 167 447 l 292 447 m 164 947 l 15 1081 l 101 1081 l 224 947 l 164 947 m 288 947 l 139 1081 l 225 1081 l 347 947 l 288 947 z "},"Ȓ":{"ha":546,"x_min":72,"x_max":519,"o":"m 254 1075 q 368 1037 333 1075 q 403 942 403 999 l 344 942 q 324 1003 344 979 q 256 1028 304 1028 q 191 1002 210 1028 q 172 942 172 976 l 114 942 q 126 1006 114 975 q 170 1056 139 1036 q 254 1075 201 1075 m 72 861 l 349 861 q 437 847 408 861 q 474 802 465 832 q 483 728 483 772 l 483 565 q 475 472 483 515 q 432 401 467 428 q 318 374 397 374 l 167 374 l 167 0 l 72 0 l 72 861 m 432 -21 l 274 379 l 338 385 l 364 376 l 369 368 l 519 13 l 432 -21 m 292 447 q 365 473 340 447 q 390 558 390 499 l 390 689 q 373 767 390 746 q 306 788 356 788 l 167 788 l 167 447 l 292 447 z "},"S":{"ha":514,"x_min":53,"x_max":458,"o":"m 265 -7 q 156 3 204 -6 q 81 35 108 11 q 53 104 53 60 l 53 288 l 146 300 l 146 140 q 170 87 146 106 q 260 68 194 68 q 326 78 303 68 q 357 108 349 88 q 365 160 365 128 l 365 276 q 342 353 365 324 q 274 397 319 383 l 169 426 q 80 476 107 446 q 53 568 53 506 l 53 729 q 80 818 53 789 q 155 857 107 847 q 264 867 203 867 q 366 857 322 867 q 434 824 410 847 q 458 756 458 800 l 458 572 l 365 557 l 365 713 q 344 776 365 758 q 260 794 324 794 q 172 773 197 794 q 146 696 146 751 l 146 589 q 168 522 146 549 q 228 485 190 496 l 339 453 q 431 401 404 433 q 458 304 458 368 l 458 135 q 435 45 458 75 q 368 5 411 15 q 265 -7 325 -6 z "},"Ś":{"ha":514,"x_min":53,"x_max":458,"o":"m 265 -7 q 156 3 204 -6 q 81 35 108 11 q 53 104 53 60 l 53 288 l 146 300 l 146 140 q 170 87 146 106 q 260 68 194 68 q 326 78 303 68 q 357 108 349 88 q 365 160 365 128 l 365 276 q 342 353 365 324 q 274 397 319 383 l 169 426 q 80 476 107 446 q 53 568 53 506 l 53 729 q 80 818 53 789 q 155 857 107 847 q 264 867 203 867 q 366 857 322 867 q 434 824 410 847 q 458 756 458 800 l 458 572 l 365 557 l 365 713 q 344 776 365 758 q 260 794 324 794 q 172 773 197 794 q 146 696 146 751 l 146 589 q 168 522 146 549 q 228 485 190 496 l 339 453 q 431 401 404 433 q 458 304 458 368 l 458 135 q 435 45 458 75 q 368 5 411 15 q 265 -7 325 -6 m 178 947 l 308 1072 l 394 1072 l 238 947 l 178 947 z "},"Š":{"ha":514,"x_min":53,"x_max":458,"o":"m 94 1075 l 161 1075 l 257 992 l 351 1075 l 417 1075 l 299 947 l 213 947 l 94 1075 m 265 -7 q 156 3 204 -6 q 81 35 108 11 q 53 104 53 60 l 53 288 l 146 300 l 146 140 q 170 87 146 106 q 260 68 194 68 q 326 78 303 68 q 357 108 349 88 q 365 160 365 128 l 365 276 q 342 353 365 324 q 274 397 319 383 l 169 426 q 80 476 107 446 q 53 568 53 506 l 53 729 q 80 818 53 789 q 155 857 107 847 q 264 867 203 867 q 366 857 322 867 q 434 824 410 847 q 458 756 458 800 l 458 572 l 365 557 l 365 713 q 344 776 365 758 q 260 794 324 794 q 172 773 197 794 q 146 696 146 751 l 146 589 q 168 522 146 549 q 228 485 190 496 l 339 453 q 431 401 404 433 q 458 304 458 368 l 458 135 q 435 45 458 75 q 368 5 411 15 q 265 -7 325 -6 z "},"Ş":{"ha":514,"x_min":53,"x_max":458,"o":"m 265 -7 q 156 3 204 -6 q 81 35 108 11 q 53 104 53 60 l 53 288 l 146 300 l 146 140 q 170 87 146 106 q 260 68 194 68 q 326 78 303 68 q 357 108 349 88 q 365 160 365 128 l 365 276 q 342 353 365 324 q 274 397 319 383 l 169 426 q 80 476 107 446 q 53 568 53 506 l 53 729 q 80 818 53 789 q 155 857 107 847 q 264 867 203 867 q 366 857 322 867 q 434 824 410 847 q 458 756 458 800 l 458 572 l 365 557 l 365 713 q 344 776 365 758 q 260 794 324 794 q 172 773 197 794 q 146 696 146 751 l 146 589 q 168 522 146 549 q 228 485 190 496 l 339 453 q 431 401 404 433 q 458 304 458 368 l 458 135 q 435 45 458 75 q 368 5 411 15 q 265 -7 325 -6 m 260 -250 q 206 -240 231 -250 q 167 -218 182 -229 l 190 -182 q 217 -201 197 -192 q 256 -210 236 -210 q 306 -189 289 -210 q 324 -144 324 -168 q 309 -106 324 -124 q 263 -87 294 -87 q 224 -96 242 -87 q 196 -115 207 -104 l 165 -92 l 238 0 l 279 0 l 222 -71 q 281 -51 250 -51 q 358 -79 335 -51 q 381 -140 381 -107 q 350 -215 381 -179 q 260 -250 319 -250 z "},"Ə":{"ha":494,"x_min":44,"x_max":450,"o":"m 249 -6 q 124 23 168 -6 q 62 97 79 51 q 44 194 44 143 l 44 449 l 358 449 l 358 664 q 330 759 358 726 q 250 792 301 792 q 167 758 197 792 q 136 654 136 724 l 136 553 l 44 542 l 44 651 q 62 761 44 713 q 124 839 79 810 q 250 868 169 868 q 378 840 335 868 q 435 765 421 811 q 450 669 450 719 l 450 196 q 435 99 450 146 q 376 24 419 53 q 249 -6 333 -6 m 249 69 q 308 85 283 69 q 345 131 332 101 q 358 200 358 160 l 358 385 l 136 385 l 136 200 q 149 131 136 160 q 187 85 161 101 q 249 69 213 69 z "},"Ŝ":{"ha":514,"x_min":53,"x_max":458,"o":"m 265 -7 q 156 3 204 -6 q 81 35 108 11 q 53 104 53 60 l 53 288 l 146 300 l 146 140 q 170 87 146 106 q 260 68 194 68 q 326 78 303 68 q 357 108 349 88 q 365 160 365 128 l 365 276 q 342 353 365 324 q 274 397 319 383 l 169 426 q 80 476 107 446 q 53 568 53 506 l 53 729 q 80 818 53 789 q 155 857 107 847 q 264 867 203 867 q 366 857 322 867 q 434 824 410 847 q 458 756 458 800 l 458 572 l 365 557 l 365 713 q 344 776 365 758 q 260 794 324 794 q 172 773 197 794 q 146 696 146 751 l 146 589 q 168 522 146 549 q 228 485 190 496 l 339 453 q 431 401 404 433 q 458 304 458 368 l 458 135 q 435 45 458 75 q 368 5 411 15 q 265 -7 325 -6 m 96 947 l 213 1075 l 300 1075 l 417 947 l 351 947 l 257 1029 l 161 947 l 96 947 z "},"Ș":{"ha":514,"x_min":53,"x_max":458,"o":"m 265 -7 q 156 3 204 -6 q 81 35 108 11 q 53 104 53 60 l 53 288 l 146 300 l 146 140 q 170 87 146 106 q 260 68 194 68 q 326 78 303 68 q 357 108 349 88 q 365 160 365 128 l 365 276 q 342 353 365 324 q 274 397 319 383 l 169 426 q 80 476 107 446 q 53 568 53 506 l 53 729 q 80 818 53 789 q 155 857 107 847 q 264 867 203 867 q 366 857 322 867 q 434 824 410 847 q 458 756 458 800 l 458 572 l 365 557 l 365 713 q 344 776 365 758 q 260 794 324 794 q 172 773 197 794 q 146 696 146 751 l 146 589 q 168 522 146 549 q 228 485 190 496 l 339 453 q 431 401 404 433 q 458 304 458 368 l 458 135 q 435 45 458 75 q 368 5 411 15 q 265 -7 325 -6 m 203 -233 q 237 -171 224 -200 q 250 -114 250 -142 q 224 -107 229 -114 q 219 -89 219 -100 q 225 -65 219 -72 q 261 -58 231 -58 q 292 -65 288 -58 q 297 -87 297 -71 q 290 -140 297 -111 q 272 -192 283 -168 q 247 -233 260 -217 l 203 -233 z "},"T":{"ha":446,"x_min":24,"x_max":422,"o":"m 175 788 l 24 788 l 24 861 l 422 861 l 422 788 l 269 788 l 269 0 l 175 0 l 175 788 z "},"Ŧ":{"ha":446,"x_min":24,"x_max":422,"o":"m 175 788 l 24 788 l 24 861 l 422 861 l 422 788 l 269 788 l 269 0 l 175 0 l 175 788 m 54 557 l 54 604 l 392 604 l 392 557 l 54 557 z "},"Ť":{"ha":446,"x_min":24,"x_max":422,"o":"m 61 1075 l 128 1075 l 222 992 l 318 1075 l 382 1075 l 265 947 l 178 947 l 61 1075 m 175 788 l 24 788 l 24 861 l 422 861 l 422 788 l 269 788 l 269 0 l 175 0 l 175 788 z "},"Ţ":{"ha":446,"x_min":24,"x_max":422,"o":"m 175 788 l 24 788 l 24 861 l 422 861 l 422 788 l 269 788 l 269 0 l 175 0 l 175 788 m 213 -250 q 159 -240 183 -250 q 119 -218 135 -229 l 143 -182 q 169 -201 150 -192 q 208 -210 189 -210 q 259 -189 242 -210 q 276 -144 276 -168 q 262 -106 276 -124 q 215 -87 247 -87 q 177 -96 194 -87 q 149 -115 160 -104 l 118 -92 l 190 0 l 232 0 l 175 -71 q 233 -51 203 -51 q 310 -79 288 -51 q 333 -140 333 -107 q 303 -215 333 -179 q 213 -250 272 -250 z "},"Ț":{"ha":446,"x_min":24,"x_max":422,"o":"m 175 788 l 24 788 l 24 861 l 422 861 l 422 788 l 269 788 l 269 0 l 175 0 l 175 788 m 169 -233 q 203 -171 190 -200 q 217 -114 217 -142 q 191 -107 196 -114 q 186 -89 186 -100 q 192 -65 186 -72 q 228 -58 197 -58 q 259 -65 254 -58 q 264 -87 264 -71 q 257 -140 264 -111 q 238 -192 250 -168 q 214 -233 226 -217 l 169 -233 z "},"Þ":{"ha":532,"x_min":42,"x_max":453,"o":"m 42 942 l 135 942 l 135 807 l 318 807 q 406 792 378 807 q 444 748 435 778 q 453 674 453 718 l 453 457 q 444 363 453 407 q 401 292 436 319 q 288 265 367 265 l 135 265 l 135 0 l 42 0 l 42 942 m 261 339 q 335 365 311 339 q 358 450 358 390 l 358 633 q 342 712 358 692 q 275 732 326 732 l 135 732 l 135 339 l 261 339 z "},"U":{"ha":539,"x_min":67,"x_max":471,"o":"m 269 -7 q 167 6 213 -7 q 94 47 121 18 q 67 124 67 75 l 67 861 l 161 861 l 161 154 q 170 112 161 132 q 202 79 179 92 q 269 67 225 67 q 339 79 315 67 q 370 112 363 92 q 378 154 378 132 l 378 861 l 471 861 l 471 124 q 445 47 471 75 q 374 6 419 18 q 269 -7 328 -7 z "},"Ú":{"ha":539,"x_min":67,"x_max":471,"o":"m 269 -7 q 167 6 213 -7 q 94 47 121 18 q 67 124 67 75 l 67 861 l 161 861 l 161 154 q 170 112 161 132 q 202 79 179 92 q 269 67 225 67 q 339 79 315 67 q 370 112 363 92 q 378 154 378 132 l 378 861 l 471 861 l 471 124 q 445 47 471 75 q 374 6 419 18 q 269 -7 328 -7 m 190 947 l 321 1072 l 407 1072 l 250 947 l 190 947 z "},"Ŭ":{"ha":539,"x_min":67,"x_max":471,"o":"m 269 -7 q 167 6 213 -7 q 94 47 121 18 q 67 124 67 75 l 67 861 l 161 861 l 161 154 q 170 112 161 132 q 202 79 179 92 q 269 67 225 67 q 339 79 315 67 q 370 112 363 92 q 378 154 378 132 l 378 861 l 471 861 l 471 124 q 445 47 471 75 q 374 6 419 18 q 269 -7 328 -7 m 267 938 q 181 958 213 938 q 138 1008 150 978 q 125 1071 125 1039 l 185 1071 q 203 1012 185 1039 q 267 985 222 985 q 335 1012 317 985 q 356 1071 354 1039 l 414 1071 q 380 975 414 1013 q 267 938 346 938 z "},"Ǔ":{"ha":539,"x_min":67,"x_max":471,"o":"m 108 1075 l 174 1075 l 269 992 l 364 1075 l 429 1075 l 313 947 l 225 947 l 108 1075 m 269 -7 q 167 6 213 -7 q 94 47 121 18 q 67 124 67 75 l 67 861 l 161 861 l 161 154 q 170 112 161 132 q 202 79 179 92 q 269 67 225 67 q 339 79 315 67 q 370 112 363 92 q 378 154 378 132 l 378 861 l 471 861 l 471 124 q 445 47 471 75 q 374 6 419 18 q 269 -7 328 -7 z "},"Û":{"ha":539,"x_min":67,"x_max":471,"o":"m 269 -7 q 167 6 213 -7 q 94 47 121 18 q 67 124 67 75 l 67 861 l 161 861 l 161 154 q 170 112 161 132 q 202 79 179 92 q 269 67 225 67 q 339 79 315 67 q 370 112 363 92 q 378 154 378 132 l 378 861 l 471 861 l 471 124 q 445 47 471 75 q 374 6 419 18 q 269 -7 328 -7 m 108 947 l 225 1075 l 313 1075 l 429 947 l 364 947 l 269 1029 l 174 947 l 108 947 z "},"Ȕ":{"ha":539,"x_min":26,"x_max":471,"o":"m 269 -7 q 167 6 213 -7 q 94 47 121 18 q 67 124 67 75 l 67 861 l 161 861 l 161 154 q 170 112 161 132 q 202 79 179 92 q 269 67 225 67 q 339 79 315 67 q 370 112 363 92 q 378 154 378 132 l 378 861 l 471 861 l 471 124 q 445 47 471 75 q 374 6 419 18 q 269 -7 328 -7 m 175 947 l 26 1081 l 113 1081 l 235 947 l 175 947 m 299 947 l 150 1081 l 236 1081 l 358 947 l 299 947 z "},"Ü":{"ha":539,"x_min":67,"x_max":471,"o":"m 269 -7 q 167 6 213 -7 q 94 47 121 18 q 67 124 67 75 l 67 861 l 161 861 l 161 154 q 170 112 161 132 q 202 79 179 92 q 269 67 225 67 q 339 79 315 67 q 370 112 363 92 q 378 154 378 132 l 378 861 l 471 861 l 471 124 q 445 47 471 75 q 374 6 419 18 q 269 -7 328 -7 m 340 942 q 308 951 313 942 q 304 981 304 961 q 308 1012 304 1003 q 340 1021 313 1021 q 376 1012 371 1021 q 381 981 381 1003 q 376 951 381 961 q 340 942 371 942 m 193 942 q 160 951 165 942 q 156 981 156 961 q 160 1012 156 1003 q 193 1021 165 1021 q 228 1012 224 1021 q 233 981 233 1003 q 228 951 233 961 q 193 942 222 942 z "},"Ǘ":{"ha":539,"x_min":67,"x_max":471,"o":"m 269 -7 q 167 6 213 -7 q 94 47 121 18 q 67 124 67 75 l 67 861 l 161 861 l 161 154 q 170 112 161 132 q 202 79 179 92 q 269 67 225 67 q 339 79 315 67 q 370 112 363 92 q 378 154 378 132 l 378 861 l 471 861 l 471 124 q 445 47 471 75 q 374 6 419 18 q 269 -7 328 -7 m 340 942 q 308 951 313 942 q 304 981 304 961 q 308 1012 304 1003 q 340 1021 313 1021 q 376 1012 371 1021 q 381 981 381 1003 q 376 951 381 961 q 340 942 371 942 m 193 942 q 160 951 165 942 q 156 981 156 961 q 160 1012 156 1003 q 193 1021 165 1021 q 228 1012 224 1021 q 233 981 233 1003 q 228 951 233 961 q 193 942 222 942 m 190 1050 l 321 1175 l 407 1175 l 250 1050 l 190 1050 z "},"Ǚ":{"ha":539,"x_min":67,"x_max":471,"o":"m 108 1178 l 174 1178 l 269 1094 l 364 1178 l 429 1178 l 313 1050 l 225 1050 l 108 1178 m 269 -7 q 167 6 213 -7 q 94 47 121 18 q 67 124 67 75 l 67 861 l 161 861 l 161 154 q 170 112 161 132 q 202 79 179 92 q 269 67 225 67 q 339 79 315 67 q 370 112 363 92 q 378 154 378 132 l 378 861 l 471 861 l 471 124 q 445 47 471 75 q 374 6 419 18 q 269 -7 328 -7 m 340 942 q 309 951 314 942 q 304 981 304 961 q 309 1012 304 1003 q 340 1021 314 1021 q 376 1012 371 1021 q 382 981 382 1003 q 376 951 382 961 q 340 942 371 942 m 194 942 q 160 951 165 942 q 156 981 156 961 q 160 1012 156 1003 q 194 1021 165 1021 q 228 1012 224 1021 q 233 981 233 1003 q 228 951 233 961 q 194 942 222 942 z "},"Ǜ":{"ha":539,"x_min":67,"x_max":471,"o":"m 269 -7 q 167 6 213 -7 q 94 47 121 18 q 67 124 67 75 l 67 861 l 161 861 l 161 154 q 170 112 161 132 q 202 79 179 92 q 269 67 225 67 q 339 79 315 67 q 370 112 363 92 q 378 154 378 132 l 378 861 l 471 861 l 471 124 q 445 47 471 75 q 374 6 419 18 q 269 -7 328 -7 m 340 942 q 308 951 313 942 q 304 981 304 961 q 308 1012 304 1003 q 340 1021 313 1021 q 376 1012 371 1021 q 381 981 381 1003 q 376 951 381 961 q 340 942 371 942 m 193 942 q 160 951 165 942 q 156 981 156 961 q 160 1012 156 1003 q 193 1021 165 1021 q 228 1012 224 1021 q 233 981 233 1003 q 228 951 233 961 q 193 942 222 942 m 264 1050 l 107 1175 l 193 1175 l 324 1050 l 264 1050 z "},"Ǖ":{"ha":539,"x_min":67,"x_max":471,"o":"m 269 -7 q 167 6 213 -7 q 94 47 121 18 q 67 124 67 75 l 67 861 l 161 861 l 161 154 q 170 112 161 132 q 202 79 179 92 q 269 67 225 67 q 339 79 315 67 q 370 112 363 92 q 378 154 378 132 l 378 861 l 471 861 l 471 124 q 445 47 471 75 q 374 6 419 18 q 269 -7 328 -7 m 340 942 q 308 951 313 942 q 304 981 304 961 q 308 1012 304 1003 q 340 1021 313 1021 q 376 1012 371 1021 q 381 981 381 1003 q 376 951 381 961 q 340 942 371 942 m 193 942 q 160 951 165 942 q 156 981 156 961 q 160 1012 156 1003 q 193 1021 165 1021 q 228 1012 224 1021 q 233 981 233 1003 q 228 951 233 961 q 193 942 222 942 m 111 1057 l 111 1115 l 428 1115 l 428 1057 l 111 1057 z "},"Ụ":{"ha":539,"x_min":67,"x_max":471,"o":"m 269 -7 q 167 6 213 -7 q 94 47 121 18 q 67 124 67 75 l 67 861 l 161 861 l 161 154 q 170 112 161 132 q 202 79 179 92 q 269 67 225 67 q 339 79 315 67 q 370 112 363 92 q 378 154 378 132 l 378 861 l 471 861 l 471 124 q 445 47 471 75 q 374 6 419 18 q 269 -7 328 -7 m 267 -139 q 234 -129 239 -139 q 229 -99 229 -119 q 234 -67 229 -76 q 267 -58 239 -58 q 302 -67 297 -58 q 307 -99 307 -76 q 301 -129 307 -119 q 267 -139 296 -139 z "},"Ù":{"ha":539,"x_min":67,"x_max":471,"o":"m 269 -7 q 167 6 213 -7 q 94 47 121 18 q 67 124 67 75 l 67 861 l 161 861 l 161 154 q 170 112 161 132 q 202 79 179 92 q 269 67 225 67 q 339 79 315 67 q 370 112 363 92 q 378 154 378 132 l 378 861 l 471 861 l 471 124 q 445 47 471 75 q 374 6 419 18 q 269 -7 328 -7 m 264 947 l 107 1072 l 193 1072 l 324 947 l 264 947 z "},"Ủ":{"ha":539,"x_min":67,"x_max":471,"o":"m 269 -7 q 167 6 213 -7 q 94 47 121 18 q 67 124 67 75 l 67 861 l 161 861 l 161 154 q 170 112 161 132 q 202 79 179 92 q 269 67 225 67 q 339 79 315 67 q 370 112 363 92 q 378 154 378 132 l 378 861 l 471 861 l 471 124 q 445 47 471 75 q 374 6 419 18 q 269 -7 328 -7 m 243 947 q 254 976 243 964 q 279 999 265 989 q 304 1022 293 1010 q 315 1051 315 1035 q 301 1083 315 1071 q 265 1094 286 1094 q 223 1078 238 1094 q 204 1043 208 1063 l 164 1058 q 199 1118 169 1096 q 276 1140 228 1140 q 346 1119 319 1140 q 372 1063 372 1097 q 361 1017 372 1033 q 335 990 350 1000 q 310 972 321 981 q 299 947 299 963 l 243 947 z "},"Ư":{"ha":539,"x_min":67,"x_max":549,"o":"m 269 -7 q 167 6 213 -7 q 94 47 121 18 q 67 124 67 75 l 67 861 l 161 861 l 161 154 q 170 112 161 132 q 202 79 179 92 q 269 67 225 67 q 339 79 315 67 q 370 112 363 92 q 378 154 378 132 l 378 861 l 471 861 l 471 124 q 445 47 471 75 q 374 6 419 18 q 269 -7 328 -7 m 425 828 l 419 861 q 478 878 463 861 q 493 931 494 894 l 547 931 q 520 853 547 879 q 425 828 493 828 z "},"Ứ":{"ha":539,"x_min":67,"x_max":549,"o":"m 269 -7 q 167 6 213 -7 q 94 47 121 18 q 67 124 67 75 l 67 861 l 161 861 l 161 154 q 170 112 161 132 q 202 79 179 92 q 269 67 225 67 q 339 79 315 67 q 370 112 363 92 q 378 154 378 132 l 378 861 l 471 861 l 471 124 q 445 47 471 75 q 374 6 419 18 q 269 -7 328 -7 m 425 828 l 419 861 q 478 878 463 861 q 493 931 494 894 l 547 931 q 520 853 547 879 q 425 828 493 828 m 190 947 l 321 1072 l 407 1072 l 250 947 l 190 947 z "},"Ự":{"ha":539,"x_min":67,"x_max":549,"o":"m 269 -7 q 167 6 213 -7 q 94 47 121 18 q 67 124 67 75 l 67 861 l 161 861 l 161 154 q 170 112 161 132 q 202 79 179 92 q 269 67 225 67 q 339 79 315 67 q 370 112 363 92 q 378 154 378 132 l 378 861 l 471 861 l 471 124 q 445 47 471 75 q 374 6 419 18 q 269 -7 328 -7 m 425 828 l 419 861 q 478 878 463 861 q 493 931 494 894 l 547 931 q 520 853 547 879 q 425 828 493 828 m 267 -139 q 234 -129 239 -139 q 229 -99 229 -119 q 234 -67 229 -76 q 267 -58 239 -58 q 302 -67 297 -58 q 307 -99 307 -76 q 301 -129 307 -119 q 267 -139 296 -139 z "},"Ừ":{"ha":539,"x_min":67,"x_max":549,"o":"m 269 -7 q 167 6 213 -7 q 94 47 121 18 q 67 124 67 75 l 67 861 l 161 861 l 161 154 q 170 112 161 132 q 202 79 179 92 q 269 67 225 67 q 339 79 315 67 q 370 112 363 92 q 378 154 378 132 l 378 861 l 471 861 l 471 124 q 445 47 471 75 q 374 6 419 18 q 269 -7 328 -7 m 425 828 l 419 861 q 478 878 463 861 q 493 931 494 894 l 547 931 q 520 853 547 879 q 425 828 493 828 m 264 947 l 107 1072 l 193 1072 l 324 947 l 264 947 z "},"Ử":{"ha":539,"x_min":67,"x_max":549,"o":"m 269 -7 q 167 6 213 -7 q 94 47 121 18 q 67 124 67 75 l 67 861 l 161 861 l 161 154 q 170 112 161 132 q 202 79 179 92 q 269 67 225 67 q 339 79 315 67 q 370 112 363 92 q 378 154 378 132 l 378 861 l 471 861 l 471 124 q 445 47 471 75 q 374 6 419 18 q 269 -7 328 -7 m 425 828 l 419 861 q 478 878 463 861 q 493 931 494 894 l 547 931 q 520 853 547 879 q 425 828 493 828 m 243 947 q 254 976 243 964 q 279 999 265 989 q 304 1022 293 1010 q 315 1051 315 1035 q 301 1083 315 1071 q 265 1094 286 1094 q 223 1078 238 1094 q 204 1043 208 1063 l 164 1058 q 199 1118 169 1096 q 276 1140 228 1140 q 346 1119 319 1140 q 372 1063 372 1097 q 361 1017 372 1033 q 335 990 350 1000 q 310 972 321 981 q 299 947 299 963 l 243 947 z "},"Ữ":{"ha":539,"x_min":67,"x_max":549,"o":"m 269 -7 q 167 6 213 -7 q 94 47 121 18 q 67 124 67 75 l 67 861 l 161 861 l 161 154 q 170 112 161 132 q 202 79 179 92 q 269 67 225 67 q 339 79 315 67 q 370 112 363 92 q 378 154 378 132 l 378 861 l 471 861 l 471 124 q 445 47 471 75 q 374 6 419 18 q 269 -7 328 -7 m 425 828 l 419 861 q 478 878 463 861 q 493 931 494 894 l 547 931 q 520 853 547 879 q 425 828 493 828 m 118 942 q 141 1030 118 1001 q 200 1058 164 1058 q 251 1044 231 1058 q 291 1016 272 1031 q 331 1001 310 1001 q 366 1019 357 1001 q 375 1058 375 1038 l 421 1058 q 395 970 421 996 q 339 944 369 944 q 289 960 310 944 q 251 990 268 975 q 211 1004 233 1004 q 178 988 190 1004 q 167 942 167 971 l 118 942 z "},"Ű":{"ha":539,"x_min":67,"x_max":471,"o":"m 269 -7 q 167 6 213 -7 q 94 47 121 18 q 67 124 67 75 l 67 861 l 161 861 l 161 154 q 170 112 161 132 q 202 79 179 92 q 269 67 225 67 q 339 79 315 67 q 370 112 363 92 q 378 154 378 132 l 378 861 l 471 861 l 471 124 q 445 47 471 75 q 374 6 419 18 q 269 -7 328 -7 m 176 947 l 232 1081 l 317 1081 l 236 947 l 176 947 m 306 947 l 361 1081 l 447 1081 l 365 947 l 306 947 z "},"Ȗ":{"ha":539,"x_min":67,"x_max":471,"o":"m 265 1075 q 379 1037 344 1075 q 414 942 414 999 l 356 942 q 335 1003 356 979 q 267 1028 315 1028 q 202 1002 221 1028 q 183 942 183 976 l 125 942 q 138 1006 125 975 q 181 1056 150 1036 q 265 1075 211 1075 m 269 -7 q 167 6 213 -7 q 94 47 121 18 q 67 124 67 75 l 67 861 l 161 861 l 161 154 q 170 112 161 132 q 202 79 179 92 q 269 67 225 67 q 339 79 315 67 q 370 112 363 92 q 378 154 378 132 l 378 861 l 471 861 l 471 124 q 445 47 471 75 q 374 6 419 18 q 269 -7 328 -7 z "},"Ū":{"ha":539,"x_min":67,"x_max":471,"o":"m 269 -7 q 167 6 213 -7 q 94 47 121 18 q 67 124 67 75 l 67 861 l 161 861 l 161 154 q 170 112 161 132 q 202 79 179 92 q 269 67 225 67 q 339 79 315 67 q 370 112 363 92 q 378 154 378 132 l 378 861 l 471 861 l 471 124 q 445 47 471 75 q 374 6 419 18 q 269 -7 328 -7 m 111 954 l 111 1013 l 428 1013 l 428 954 l 111 954 z "},"Ų":{"ha":539,"x_min":67,"x_max":471,"o":"m 269 -7 q 167 6 213 -7 q 94 47 121 18 q 67 124 67 75 l 67 861 l 161 861 l 161 154 q 170 112 161 132 q 202 79 179 92 q 269 67 225 67 q 339 79 315 67 q 370 112 363 92 q 378 154 378 132 l 378 861 l 471 861 l 471 124 q 445 47 471 75 q 374 6 419 18 q 269 -7 328 -7 m 265 -242 q 187 -212 218 -242 q 156 -131 156 -182 q 185 -54 156 -94 q 285 8 215 -14 l 336 3 q 256 -47 288 -17 q 225 -119 225 -78 q 244 -172 225 -151 q 293 -193 264 -193 q 330 -187 314 -193 q 363 -167 346 -182 l 375 -208 q 321 -234 347 -226 q 265 -242 294 -242 z "},"Ů":{"ha":539,"x_min":67,"x_max":471,"o":"m 269 -7 q 167 6 213 -7 q 94 47 121 18 q 67 124 67 75 l 67 861 l 161 861 l 161 154 q 170 112 161 132 q 202 79 179 92 q 269 67 225 67 q 339 79 315 67 q 370 112 363 92 q 378 154 378 132 l 378 861 l 471 861 l 471 124 q 445 47 471 75 q 374 6 419 18 q 269 -7 328 -7 m 269 939 q 190 969 221 939 q 158 1042 158 1000 q 190 1115 158 1085 q 269 1146 221 1146 q 345 1115 314 1146 q 376 1042 376 1085 q 345 969 376 1000 q 269 939 314 939 m 269 979 q 314 997 294 979 q 333 1040 333 1015 q 314 1086 333 1067 q 269 1106 294 1106 q 222 1086 240 1106 q 203 1040 203 1067 q 222 997 203 1015 q 269 979 240 979 z "},"Ũ":{"ha":539,"x_min":67,"x_max":471,"o":"m 269 -7 q 167 6 213 -7 q 94 47 121 18 q 67 124 67 75 l 67 861 l 161 861 l 161 154 q 170 112 161 132 q 202 79 179 92 q 269 67 225 67 q 339 79 315 67 q 370 112 363 92 q 378 154 378 132 l 378 861 l 471 861 l 471 124 q 445 47 471 75 q 374 6 419 18 q 269 -7 328 -7 m 118 942 q 141 1030 118 1001 q 200 1058 164 1058 q 251 1044 231 1058 q 291 1016 272 1031 q 331 1001 310 1001 q 366 1019 357 1001 q 375 1058 375 1038 l 421 1058 q 395 970 421 996 q 339 944 369 944 q 289 960 310 944 q 251 990 268 975 q 211 1004 233 1004 q 178 988 190 1004 q 167 942 167 971 l 118 942 z "},"V":{"ha":504,"x_min":22,"x_max":483,"o":"m 203 0 l 22 861 l 115 861 l 251 144 l 253 122 l 254 122 l 254 144 l 385 861 l 483 861 l 301 0 l 203 0 z "},"W":{"ha":785,"x_min":25,"x_max":760,"o":"m 192 0 l 25 861 l 119 861 l 239 189 l 240 168 l 242 168 l 242 189 l 361 818 l 435 818 l 546 189 l 547 168 l 549 168 l 550 189 l 664 861 l 760 861 l 596 0 l 504 0 l 401 599 l 400 617 l 399 617 l 397 599 l 283 0 l 192 0 z "},"Ẃ":{"ha":785,"x_min":25,"x_max":760,"o":"m 192 0 l 25 861 l 119 861 l 239 189 l 240 168 l 242 168 l 242 189 l 361 818 l 435 818 l 546 189 l 547 168 l 549 168 l 550 189 l 664 861 l 760 861 l 596 0 l 504 0 l 401 599 l 400 617 l 399 617 l 397 599 l 283 0 l 192 0 m 321 947 l 451 1072 l 538 1072 l 381 947 l 321 947 z "},"Ŵ":{"ha":785,"x_min":25,"x_max":760,"o":"m 192 0 l 25 861 l 119 861 l 239 189 l 240 168 l 242 168 l 242 189 l 361 818 l 435 818 l 546 189 l 547 168 l 549 168 l 550 189 l 664 861 l 760 861 l 596 0 l 504 0 l 401 599 l 400 617 l 399 617 l 397 599 l 283 0 l 192 0 m 239 947 l 356 1075 l 443 1075 l 560 947 l 494 947 l 400 1029 l 304 947 l 239 947 z "},"Ẅ":{"ha":785,"x_min":25,"x_max":760,"o":"m 192 0 l 25 861 l 119 861 l 239 189 l 240 168 l 242 168 l 242 189 l 361 818 l 435 818 l 546 189 l 547 168 l 549 168 l 550 189 l 664 861 l 760 861 l 596 0 l 504 0 l 401 599 l 400 617 l 399 617 l 397 599 l 283 0 l 192 0 m 471 942 q 439 951 443 942 q 435 981 435 961 q 439 1012 435 1003 q 471 1021 443 1021 q 506 1012 501 1021 q 511 981 511 1003 q 506 951 511 961 q 471 942 501 942 m 324 942 q 291 951 296 942 q 286 981 286 961 q 291 1012 286 1003 q 324 1021 296 1021 q 359 1012 354 1021 q 364 981 364 1003 q 358 951 364 961 q 324 942 353 942 z "},"Ẁ":{"ha":785,"x_min":25,"x_max":760,"o":"m 192 0 l 25 861 l 119 861 l 239 189 l 240 168 l 242 168 l 242 189 l 361 818 l 435 818 l 546 189 l 547 168 l 549 168 l 550 189 l 664 861 l 760 861 l 596 0 l 504 0 l 401 599 l 400 617 l 399 617 l 397 599 l 283 0 l 192 0 m 394 947 l 238 1072 l 324 1072 l 454 947 l 394 947 z "},"X":{"ha":513,"x_min":19,"x_max":493,"o":"m 19 0 l 190 451 l 28 861 l 124 861 l 253 521 l 256 492 l 257 492 l 261 521 l 389 861 l 483 861 l 324 451 l 493 0 l 394 0 l 260 364 l 257 399 l 256 399 l 251 364 l 117 0 l 19 0 z "},"Y":{"ha":492,"x_min":13,"x_max":481,"o":"m 200 0 l 200 336 l 13 861 l 99 861 l 246 453 l 247 432 l 249 432 l 251 453 l 393 861 l 481 861 l 292 338 l 292 0 l 200 0 z "},"Ý":{"ha":492,"x_min":13,"x_max":481,"o":"m 200 0 l 200 336 l 13 861 l 99 861 l 246 453 l 247 432 l 249 432 l 251 453 l 393 861 l 481 861 l 292 338 l 292 0 l 200 0 m 167 947 l 297 1072 l 383 1072 l 226 947 l 167 947 z "},"Ŷ":{"ha":492,"x_min":13,"x_max":481,"o":"m 200 0 l 200 336 l 13 861 l 99 861 l 246 453 l 247 432 l 249 432 l 251 453 l 393 861 l 481 861 l 292 338 l 292 0 l 200 0 m 85 947 l 201 1075 l 289 1075 l 406 947 l 340 947 l 246 1029 l 150 947 l 85 947 z "},"Ÿ":{"ha":492,"x_min":13,"x_max":481,"o":"m 200 0 l 200 336 l 13 861 l 99 861 l 246 453 l 247 432 l 249 432 l 251 453 l 393 861 l 481 861 l 292 338 l 292 0 l 200 0 m 317 942 q 285 951 289 942 q 281 981 281 961 q 285 1012 281 1003 q 317 1021 289 1021 q 352 1012 347 1021 q 357 981 357 1003 q 352 951 357 961 q 317 942 347 942 m 169 942 q 137 951 142 942 q 132 981 132 961 q 137 1012 132 1003 q 169 1021 142 1021 q 205 1012 200 1021 q 210 981 210 1003 q 204 951 210 961 q 169 942 199 942 z "},"Ỵ":{"ha":492,"x_min":13,"x_max":481,"o":"m 200 0 l 200 336 l 13 861 l 99 861 l 246 453 l 247 432 l 249 432 l 251 453 l 393 861 l 481 861 l 292 338 l 292 0 l 200 0 m 243 -139 q 210 -129 215 -139 q 206 -99 206 -119 q 210 -67 206 -76 q 243 -58 215 -58 q 278 -67 274 -58 q 283 -99 283 -76 q 278 -129 283 -119 q 243 -139 272 -139 z "},"Ỳ":{"ha":492,"x_min":13,"x_max":481,"o":"m 200 0 l 200 336 l 13 861 l 99 861 l 246 453 l 247 432 l 249 432 l 251 453 l 393 861 l 481 861 l 292 338 l 292 0 l 200 0 m 240 947 l 83 1072 l 169 1072 l 300 947 l 240 947 z "},"Ỷ":{"ha":492,"x_min":13,"x_max":481,"o":"m 200 0 l 200 336 l 13 861 l 99 861 l 246 453 l 247 432 l 249 432 l 251 453 l 393 861 l 481 861 l 292 338 l 292 0 l 200 0 m 219 947 q 231 976 219 964 q 256 999 242 989 q 281 1022 269 1010 q 292 1051 292 1035 q 277 1083 292 1071 q 242 1094 263 1094 q 199 1078 214 1094 q 181 1043 185 1063 l 140 1058 q 175 1118 146 1096 q 253 1140 204 1140 q 322 1119 296 1140 q 349 1063 349 1097 q 338 1017 349 1033 q 312 990 326 1000 q 286 972 297 981 q 275 947 275 963 l 219 947 z "},"Ȳ":{"ha":492,"x_min":13,"x_max":481,"o":"m 200 0 l 200 336 l 13 861 l 99 861 l 246 453 l 247 432 l 249 432 l 251 453 l 393 861 l 481 861 l 292 338 l 292 0 l 200 0 m 88 954 l 88 1013 l 404 1013 l 404 954 l 88 954 z "},"Ỹ":{"ha":492,"x_min":13,"x_max":481,"o":"m 200 0 l 200 336 l 13 861 l 99 861 l 246 453 l 247 432 l 249 432 l 251 453 l 393 861 l 481 861 l 292 338 l 292 0 l 200 0 m 94 942 q 117 1030 94 1001 q 176 1058 140 1058 q 228 1044 207 1058 q 267 1016 249 1031 q 307 1001 286 1001 q 342 1019 333 1001 q 351 1058 351 1038 l 397 1058 q 372 970 397 996 q 315 944 346 944 q 265 960 286 944 q 227 990 244 975 q 188 1004 210 1004 q 155 988 167 1004 q 143 942 143 971 l 94 942 z "},"Z":{"ha":425,"x_min":13,"x_max":401,"o":"m 13 0 l 278 788 l 32 788 l 32 861 l 396 861 l 129 74 l 401 74 l 401 0 l 13 0 z "},"Ź":{"ha":425,"x_min":13,"x_max":401,"o":"m 13 0 l 278 788 l 32 788 l 32 861 l 396 861 l 129 74 l 401 74 l 401 0 l 13 0 m 135 947 l 265 1072 l 351 1072 l 194 947 l 135 947 z "},"Ž":{"ha":425,"x_min":13,"x_max":401,"o":"m 51 1075 l 117 1075 l 213 992 l 308 1075 l 372 1075 l 256 947 l 168 947 l 51 1075 m 13 0 l 278 788 l 32 788 l 32 861 l 396 861 l 129 74 l 401 74 l 401 0 l 13 0 z "},"Ż":{"ha":425,"x_min":13,"x_max":401,"o":"m 13 0 l 278 788 l 32 788 l 32 861 l 396 861 l 129 74 l 401 74 l 401 0 l 13 0 m 210 943 q 177 953 182 943 q 172 982 172 963 q 177 1015 172 1006 q 210 1024 182 1024 q 245 1015 240 1024 q 250 982 250 1006 q 244 953 250 963 q 210 943 239 943 z "},"a":{"ha":550,"x_min":68,"x_max":475,"o":"m 175 0 q 101 15 124 0 q 74 69 79 31 q 68 178 68 107 l 68 515 q 81 599 68 569 q 126 641 93 629 q 221 653 158 653 l 475 653 l 475 0 l 383 0 l 383 579 l 229 579 q 180 569 194 579 q 163 540 165 560 q 160 483 160 519 l 160 168 q 164 109 160 129 q 181 81 168 89 q 222 74 194 74 l 343 74 l 333 0 l 175 0 z "},"á":{"ha":550,"x_min":68,"x_max":475,"o":"m 175 0 q 101 15 124 0 q 74 69 79 31 q 68 178 68 107 l 68 515 q 81 599 68 569 q 126 641 93 629 q 221 653 158 653 l 475 653 l 475 0 l 383 0 l 383 579 l 229 579 q 180 569 194 579 q 163 540 165 560 q 160 483 160 519 l 160 168 q 164 109 160 129 q 181 81 168 89 q 222 74 194 74 l 343 74 l 333 0 l 175 0 m 203 739 l 325 872 l 411 872 l 263 739 l 203 739 z "},"ă":{"ha":550,"x_min":68,"x_max":475,"o":"m 175 0 q 101 15 124 0 q 74 69 79 31 q 68 178 68 107 l 68 515 q 81 599 68 569 q 126 641 93 629 q 221 653 158 653 l 475 653 l 475 0 l 383 0 l 383 579 l 229 579 q 180 569 194 579 q 163 540 165 560 q 160 483 160 519 l 160 168 q 164 109 160 129 q 181 81 168 89 q 222 74 194 74 l 343 74 l 333 0 l 175 0 m 278 729 q 192 749 224 729 q 149 800 161 769 q 136 863 136 831 l 196 863 q 215 802 196 828 q 278 776 233 776 q 347 801 328 776 q 367 863 367 826 l 425 863 q 391 767 425 806 q 278 729 357 729 z "},"ắ":{"ha":550,"x_min":68,"x_max":475,"o":"m 175 0 q 101 15 124 0 q 74 69 79 31 q 68 178 68 107 l 68 515 q 81 599 68 569 q 126 641 93 629 q 221 653 158 653 l 475 653 l 475 0 l 383 0 l 383 579 l 229 579 q 180 569 194 579 q 163 540 165 560 q 160 483 160 519 l 160 168 q 164 109 160 129 q 181 81 168 89 q 222 74 194 74 l 343 74 l 333 0 l 175 0 m 278 729 q 192 749 224 729 q 149 800 161 769 q 136 863 136 831 l 196 863 q 215 802 196 828 q 278 776 233 776 q 347 801 328 776 q 367 863 367 826 l 425 863 q 391 767 425 806 q 278 729 357 729 m 203 899 l 325 1032 l 411 1032 l 263 899 l 203 899 z "},"ặ":{"ha":550,"x_min":68,"x_max":475,"o":"m 175 0 q 101 15 124 0 q 74 69 79 31 q 68 178 68 107 l 68 515 q 81 599 68 569 q 126 641 93 629 q 221 653 158 653 l 475 653 l 475 0 l 383 0 l 383 579 l 229 579 q 180 569 194 579 q 163 540 165 560 q 160 483 160 519 l 160 168 q 164 109 160 129 q 181 81 168 89 q 222 74 194 74 l 343 74 l 333 0 l 175 0 m 272 -139 q 240 -129 244 -139 q 235 -99 235 -119 q 240 -67 235 -76 q 272 -58 244 -58 q 308 -67 303 -58 q 313 -99 313 -76 q 307 -129 313 -119 q 272 -139 301 -139 m 278 729 q 192 749 224 729 q 149 800 161 769 q 136 863 136 831 l 196 863 q 215 802 196 828 q 278 776 233 776 q 347 801 328 776 q 367 863 367 826 l 425 863 q 391 767 425 806 q 278 729 357 729 z "},"ằ":{"ha":550,"x_min":68,"x_max":475,"o":"m 175 0 q 101 15 124 0 q 74 69 79 31 q 68 178 68 107 l 68 515 q 81 599 68 569 q 126 641 93 629 q 221 653 158 653 l 475 653 l 475 0 l 383 0 l 383 579 l 229 579 q 180 569 194 579 q 163 540 165 560 q 160 483 160 519 l 160 168 q 164 109 160 129 q 181 81 168 89 q 222 74 194 74 l 343 74 l 333 0 l 175 0 m 278 729 q 192 749 224 729 q 149 800 161 769 q 136 863 136 831 l 196 863 q 215 802 196 828 q 278 776 233 776 q 347 801 328 776 q 367 863 367 826 l 425 863 q 391 767 425 806 q 278 729 357 729 m 278 899 l 129 1032 l 215 1032 l 338 899 l 278 899 z "},"ẳ":{"ha":550,"x_min":68,"x_max":475,"o":"m 175 0 q 101 15 124 0 q 74 69 79 31 q 68 178 68 107 l 68 515 q 81 599 68 569 q 126 641 93 629 q 221 653 158 653 l 475 653 l 475 0 l 383 0 l 383 579 l 229 579 q 180 569 194 579 q 163 540 165 560 q 160 483 160 519 l 160 168 q 164 109 160 129 q 181 81 168 89 q 222 74 194 74 l 343 74 l 333 0 l 175 0 m 278 729 q 192 749 224 729 q 149 800 161 769 q 136 863 136 831 l 196 863 q 215 802 196 828 q 278 776 233 776 q 347 801 328 776 q 367 863 367 826 l 425 863 q 391 767 425 806 q 278 729 357 729 m 256 899 q 267 928 256 915 q 292 951 278 940 q 317 974 306 961 q 328 1003 328 986 q 313 1034 328 1022 q 278 1046 299 1046 q 235 1030 250 1046 q 217 994 221 1014 l 176 1010 q 211 1069 182 1047 q 289 1092 240 1092 q 358 1070 332 1092 q 385 1014 385 1049 q 374 968 385 985 q 348 942 363 951 q 322 923 333 932 q 311 899 311 914 l 256 899 z "},"ẵ":{"ha":550,"x_min":68,"x_max":475,"o":"m 175 0 q 101 15 124 0 q 74 69 79 31 q 68 178 68 107 l 68 515 q 81 599 68 569 q 126 641 93 629 q 221 653 158 653 l 475 653 l 475 0 l 383 0 l 383 579 l 229 579 q 180 569 194 579 q 163 540 165 560 q 160 483 160 519 l 160 168 q 164 109 160 129 q 181 81 168 89 q 222 74 194 74 l 343 74 l 333 0 l 175 0 m 278 729 q 192 749 224 729 q 149 800 161 769 q 136 863 136 831 l 196 863 q 215 802 196 828 q 278 776 233 776 q 347 801 328 776 q 367 863 367 826 l 425 863 q 391 767 425 806 q 278 729 357 729 m 131 893 q 153 981 131 953 q 213 1010 176 1010 q 264 996 243 1010 q 303 967 285 982 q 343 953 322 953 q 378 971 369 953 q 388 1010 388 989 l 433 1010 q 408 922 433 947 q 351 896 382 896 q 301 911 322 896 q 263 941 281 926 q 224 956 246 956 q 191 939 203 956 q 179 893 179 922 l 131 893 z "},"ǎ":{"ha":550,"x_min":68,"x_max":475,"o":"m 119 867 l 186 867 l 282 783 l 376 867 l 442 867 l 324 739 l 238 739 l 119 867 m 175 0 q 101 15 124 0 q 74 69 79 31 q 68 178 68 107 l 68 515 q 81 599 68 569 q 126 641 93 629 q 221 653 158 653 l 475 653 l 475 0 l 383 0 l 383 579 l 229 579 q 180 569 194 579 q 163 540 165 560 q 160 483 160 519 l 160 168 q 164 109 160 129 q 181 81 168 89 q 222 74 194 74 l 343 74 l 333 0 l 175 0 z "},"â":{"ha":550,"x_min":68,"x_max":475,"o":"m 175 0 q 101 15 124 0 q 74 69 79 31 q 68 178 68 107 l 68 515 q 81 599 68 569 q 126 641 93 629 q 221 653 158 653 l 475 653 l 475 0 l 383 0 l 383 579 l 229 579 q 180 569 194 579 q 163 540 165 560 q 160 483 160 519 l 160 168 q 164 109 160 129 q 181 81 168 89 q 222 74 194 74 l 343 74 l 333 0 l 175 0 m 121 739 l 238 867 l 325 867 l 442 739 l 376 739 l 282 821 l 186 739 l 121 739 z "},"ấ":{"ha":550,"x_min":68,"x_max":638,"o":"m 175 0 q 101 15 124 0 q 74 69 79 31 q 68 178 68 107 l 68 515 q 81 599 68 569 q 126 641 93 629 q 221 653 158 653 l 475 653 l 475 0 l 383 0 l 383 579 l 229 579 q 180 569 194 579 q 163 540 165 560 q 160 483 160 519 l 160 168 q 164 109 160 129 q 181 81 168 89 q 222 74 194 74 l 343 74 l 333 0 l 175 0 m 121 739 l 238 867 l 325 867 l 442 739 l 376 739 l 282 821 l 186 739 l 121 739 m 429 840 l 551 974 l 638 974 l 489 840 l 429 840 z "},"ậ":{"ha":550,"x_min":68,"x_max":475,"o":"m 175 0 q 101 15 124 0 q 74 69 79 31 q 68 178 68 107 l 68 515 q 81 599 68 569 q 126 641 93 629 q 221 653 158 653 l 475 653 l 475 0 l 383 0 l 383 579 l 229 579 q 180 569 194 579 q 163 540 165 560 q 160 483 160 519 l 160 168 q 164 109 160 129 q 181 81 168 89 q 222 74 194 74 l 343 74 l 333 0 l 175 0 m 272 -139 q 240 -129 244 -139 q 235 -99 235 -119 q 240 -67 235 -76 q 272 -58 244 -58 q 308 -67 303 -58 q 313 -99 313 -76 q 307 -129 313 -119 q 272 -139 301 -139 m 121 739 l 238 867 l 325 867 l 442 739 l 376 739 l 282 821 l 186 739 l 121 739 z "},"ầ":{"ha":550,"x_min":68,"x_max":529,"o":"m 175 0 q 101 15 124 0 q 74 69 79 31 q 68 178 68 107 l 68 515 q 81 599 68 569 q 126 641 93 629 q 221 653 158 653 l 475 653 l 475 0 l 383 0 l 383 579 l 229 579 q 180 569 194 579 q 163 540 165 560 q 160 483 160 519 l 160 168 q 164 109 160 129 q 181 81 168 89 q 222 74 194 74 l 343 74 l 333 0 l 175 0 m 121 739 l 238 867 l 325 867 l 442 739 l 376 739 l 282 821 l 186 739 l 121 739 m 469 840 l 321 974 l 407 974 l 529 840 l 469 840 z "},"ẩ":{"ha":550,"x_min":68,"x_max":579,"o":"m 175 0 q 101 15 124 0 q 74 69 79 31 q 68 178 68 107 l 68 515 q 81 599 68 569 q 126 641 93 629 q 221 653 158 653 l 475 653 l 475 0 l 383 0 l 383 579 l 229 579 q 180 569 194 579 q 163 540 165 560 q 160 483 160 519 l 160 168 q 164 109 160 129 q 181 81 168 89 q 222 74 194 74 l 343 74 l 333 0 l 175 0 m 121 739 l 238 867 l 325 867 l 442 739 l 376 739 l 282 821 l 186 739 l 121 739 m 450 840 q 461 869 450 857 q 486 892 472 882 q 511 915 500 903 q 522 944 522 928 q 508 976 522 964 q 472 988 493 988 q 430 972 444 988 q 411 936 415 956 l 371 951 q 406 1011 376 989 q 483 1033 435 1033 q 553 1012 526 1033 q 579 956 579 990 q 568 910 579 926 q 542 883 557 893 q 517 865 528 874 q 506 840 506 856 l 450 840 z "},"ẫ":{"ha":550,"x_min":68,"x_max":475,"o":"m 175 0 q 101 15 124 0 q 74 69 79 31 q 68 178 68 107 l 68 515 q 81 599 68 569 q 126 641 93 629 q 221 653 158 653 l 475 653 l 475 0 l 383 0 l 383 579 l 229 579 q 180 569 194 579 q 163 540 165 560 q 160 483 160 519 l 160 168 q 164 109 160 129 q 181 81 168 89 q 222 74 194 74 l 343 74 l 333 0 l 175 0 m 121 739 l 238 867 l 325 867 l 442 739 l 376 739 l 282 821 l 186 739 l 121 739 m 128 901 q 151 990 128 961 q 210 1018 174 1018 q 261 1004 240 1018 q 301 976 282 990 q 340 961 319 961 q 376 979 367 961 q 385 1018 385 997 l 431 1018 q 405 930 431 956 q 349 904 379 904 q 299 919 319 904 q 260 949 278 935 q 221 964 243 964 q 188 947 200 964 q 176 901 176 931 l 128 901 z "},"´":{"ha":208,"x_min":0,"x_max":208,"o":"m 0 739 l 122 872 l 208 872 l 60 739 l 0 739 z "},"́":{"ha":0,"x_min":0,"x_max":208,"o":"m 0 739 l 122 872 l 208 872 l 60 739 l 0 739 z "},"ȁ":{"ha":550,"x_min":39,"x_max":475,"o":"m 175 0 q 101 15 124 0 q 74 69 79 31 q 68 178 68 107 l 68 515 q 81 599 68 569 q 126 641 93 629 q 221 653 158 653 l 475 653 l 475 0 l 383 0 l 383 579 l 229 579 q 180 569 194 579 q 163 540 165 560 q 160 483 160 519 l 160 168 q 164 109 160 129 q 181 81 168 89 q 222 74 194 74 l 343 74 l 333 0 l 175 0 m 188 739 l 39 872 l 125 872 l 247 739 l 188 739 m 311 739 l 163 872 l 249 872 l 371 739 l 311 739 z "},"ä":{"ha":550,"x_min":68,"x_max":475,"o":"m 175 0 q 101 15 124 0 q 74 69 79 31 q 68 178 68 107 l 68 515 q 81 599 68 569 q 126 641 93 629 q 221 653 158 653 l 475 653 l 475 0 l 383 0 l 383 579 l 229 579 q 180 569 194 579 q 163 540 165 560 q 160 483 160 519 l 160 168 q 164 109 160 129 q 181 81 168 89 q 222 74 194 74 l 343 74 l 333 0 l 175 0 m 353 733 q 321 743 325 733 q 317 772 317 753 q 321 803 317 794 q 353 813 325 813 q 388 803 383 813 q 393 772 393 794 q 388 743 393 753 q 353 733 383 733 m 206 733 q 173 743 178 733 q 168 772 168 753 q 173 803 168 794 q 206 813 178 813 q 241 803 236 813 q 246 772 246 794 q 240 743 246 753 q 206 733 235 733 z "},"ạ":{"ha":550,"x_min":68,"x_max":475,"o":"m 175 0 q 101 15 124 0 q 74 69 79 31 q 68 178 68 107 l 68 515 q 81 599 68 569 q 126 641 93 629 q 221 653 158 653 l 475 653 l 475 0 l 383 0 l 383 579 l 229 579 q 180 569 194 579 q 163 540 165 560 q 160 483 160 519 l 160 168 q 164 109 160 129 q 181 81 168 89 q 222 74 194 74 l 343 74 l 333 0 l 175 0 m 272 -139 q 240 -129 244 -139 q 235 -99 235 -119 q 240 -67 235 -76 q 272 -58 244 -58 q 308 -67 303 -58 q 313 -99 313 -76 q 307 -129 313 -119 q 272 -139 301 -139 z "},"æ":{"ha":807,"x_min":68,"x_max":788,"o":"m 175 0 q 101 15 124 0 q 74 69 79 31 q 68 178 68 107 l 68 515 q 81 599 68 569 q 126 641 93 629 q 221 653 158 653 l 475 653 l 475 0 l 383 0 l 383 579 l 229 579 q 180 569 194 579 q 163 540 165 560 q 160 483 160 519 l 160 168 q 164 109 160 129 q 181 81 168 89 q 222 74 194 74 l 343 74 l 333 0 l 175 0 m 576 -1 q 453 21 494 -1 q 396 78 411 43 q 381 151 381 114 l 381 511 q 396 585 381 550 q 455 642 411 619 q 585 664 499 664 q 709 642 665 664 q 770 586 753 621 q 788 513 788 551 l 788 363 l 696 357 l 696 496 q 667 567 696 542 q 585 593 638 593 q 502 568 532 593 q 472 496 472 543 l 472 168 q 501 98 472 122 q 576 74 531 74 q 665 99 635 74 q 696 176 696 125 l 696 239 l 788 247 l 788 164 q 769 81 788 119 q 706 21 751 43 q 576 -1 661 -1 m 394 318 l 394 369 l 788 369 l 788 318 l 394 318 z "},"ǽ":{"ha":807,"x_min":68,"x_max":788,"o":"m 175 0 q 101 15 124 0 q 74 69 79 31 q 68 178 68 107 l 68 515 q 81 599 68 569 q 126 641 93 629 q 221 653 158 653 l 475 653 l 475 0 l 383 0 l 383 579 l 229 579 q 180 569 194 579 q 163 540 165 560 q 160 483 160 519 l 160 168 q 164 109 160 129 q 181 81 168 89 q 222 74 194 74 l 343 74 l 333 0 l 175 0 m 576 -1 q 453 21 494 -1 q 396 78 411 43 q 381 151 381 114 l 381 511 q 396 585 381 550 q 455 642 411 619 q 585 664 499 664 q 709 642 665 664 q 770 586 753 621 q 788 513 788 551 l 788 363 l 696 357 l 696 496 q 667 567 696 542 q 585 593 638 593 q 502 568 532 593 q 472 496 472 543 l 472 168 q 501 98 472 122 q 576 74 531 74 q 665 99 635 74 q 696 176 696 125 l 696 239 l 788 247 l 788 164 q 769 81 788 119 q 706 21 751 43 q 576 -1 661 -1 m 394 318 l 394 369 l 788 369 l 788 318 l 394 318 m 325 739 l 447 872 l 533 872 l 385 739 l 325 739 z "},"à":{"ha":550,"x_min":68,"x_max":475,"o":"m 175 0 q 101 15 124 0 q 74 69 79 31 q 68 178 68 107 l 68 515 q 81 599 68 569 q 126 641 93 629 q 221 653 158 653 l 475 653 l 475 0 l 383 0 l 383 579 l 229 579 q 180 569 194 579 q 163 540 165 560 q 160 483 160 519 l 160 168 q 164 109 160 129 q 181 81 168 89 q 222 74 194 74 l 343 74 l 333 0 l 175 0 m 276 739 l 128 872 l 214 872 l 336 739 l 276 739 z "},"ả":{"ha":550,"x_min":68,"x_max":475,"o":"m 175 0 q 101 15 124 0 q 74 69 79 31 q 68 178 68 107 l 68 515 q 81 599 68 569 q 126 641 93 629 q 221 653 158 653 l 475 653 l 475 0 l 383 0 l 383 579 l 229 579 q 180 569 194 579 q 163 540 165 560 q 160 483 160 519 l 160 168 q 164 109 160 129 q 181 81 168 89 q 222 74 194 74 l 343 74 l 333 0 l 175 0 m 256 739 q 267 768 256 756 q 292 791 278 781 q 317 814 306 801 q 328 843 328 826 q 313 874 328 863 q 278 886 299 886 q 235 870 250 886 q 217 835 221 854 l 176 850 q 211 910 182 888 q 289 932 240 932 q 358 910 332 932 q 385 854 385 889 q 374 808 385 825 q 348 782 363 792 q 322 763 333 772 q 311 739 311 754 l 256 739 z "},"ȃ":{"ha":550,"x_min":68,"x_max":475,"o":"m 278 867 q 392 828 357 867 q 426 733 426 790 l 368 733 q 347 795 367 771 q 279 819 328 819 q 215 794 233 819 q 196 733 196 768 l 138 733 q 150 797 138 767 q 193 847 163 828 q 278 867 224 867 m 175 0 q 101 15 124 0 q 74 69 79 31 q 68 178 68 107 l 68 515 q 81 599 68 569 q 126 641 93 629 q 221 653 158 653 l 475 653 l 475 0 l 383 0 l 383 579 l 229 579 q 180 569 194 579 q 163 540 165 560 q 160 483 160 519 l 160 168 q 164 109 160 129 q 181 81 168 89 q 222 74 194 74 l 343 74 l 333 0 l 175 0 z "},"ā":{"ha":550,"x_min":68,"x_max":475,"o":"m 175 0 q 101 15 124 0 q 74 69 79 31 q 68 178 68 107 l 68 515 q 81 599 68 569 q 126 641 93 629 q 221 653 158 653 l 475 653 l 475 0 l 383 0 l 383 579 l 229 579 q 180 569 194 579 q 163 540 165 560 q 160 483 160 519 l 160 168 q 164 109 160 129 q 181 81 168 89 q 222 74 194 74 l 343 74 l 333 0 l 175 0 m 124 746 l 124 804 l 440 804 l 440 746 l 124 746 z "},"&":{"ha":668,"x_min":103,"x_max":613,"o":"m 311 3 q 174 24 218 3 q 116 83 129 46 q 103 167 103 121 l 103 322 q 113 401 103 368 q 156 455 122 435 q 260 478 190 475 q 163 496 196 481 q 118 541 129 511 q 107 617 107 571 l 107 735 q 125 826 107 796 q 188 867 143 857 q 308 876 232 876 q 431 866 388 876 q 491 825 474 856 q 508 735 508 794 l 508 597 l 417 569 l 417 708 q 409 757 417 739 q 378 783 401 775 q 304 790 354 790 q 235 783 258 790 q 205 760 213 776 q 197 715 197 743 l 197 625 q 206 546 197 574 q 244 508 214 518 q 338 497 275 499 l 419 497 l 419 461 l 338 461 q 246 446 276 460 q 206 401 215 432 q 194 317 196 371 l 194 181 q 197 145 194 164 q 208 112 199 126 q 239 88 217 97 q 303 79 261 79 q 371 88 347 79 q 404 113 394 97 q 415 146 414 128 q 417 181 417 164 l 417 433 l 613 433 l 590 363 l 511 363 l 511 206 q 506 124 511 161 q 482 59 501 86 q 422 17 463 32 q 311 3 382 3 z "},"ą":{"ha":550,"x_min":68,"x_max":508,"o":"m 175 0 q 101 15 124 0 q 74 69 79 31 q 68 178 68 107 l 68 515 q 81 599 68 569 q 126 641 93 629 q 221 653 158 653 l 475 653 l 475 0 l 383 0 l 383 579 l 229 579 q 180 569 194 579 q 163 540 165 560 q 160 483 160 519 l 160 168 q 164 109 160 129 q 181 81 168 89 q 222 74 194 74 l 343 74 l 333 0 l 175 0 m 399 -236 q 320 -206 351 -236 q 289 -125 289 -176 q 319 -49 289 -89 q 418 14 349 -8 l 469 8 q 390 -42 421 -11 q 358 -114 358 -72 q 378 -167 358 -146 q 426 -187 397 -187 q 463 -182 447 -187 q 496 -161 479 -176 l 508 -203 q 454 -228 481 -221 q 399 -236 428 -236 z "},"ʼ":{"ha":107,"x_min":0,"x_max":93,"o":"m 0 582 q 33 664 21 625 q 46 740 46 703 q 20 749 24 740 q 17 772 17 758 q 18 795 17 786 q 28 808 19 804 q 56 813 36 813 q 88 803 82 813 q 93 774 93 794 q 85 706 93 743 q 67 635 78 668 q 43 582 56 603 l 0 582 z "},"":{"ha":593,"x_min":56,"x_max":538,"o":"m 204 -21 q 206 -18 206 -21 q 205 -15 206 -17 q 204 -12 204 -14 q 207 -8 204 -11 l 207 -1 q 204 4 204 0 q 190 8 204 8 q 181 6 185 7 q 172 6 176 6 l 172 10 l 171 10 l 171 25 q 165 33 169 29 q 157 38 160 36 l 157 42 l 156 42 l 156 44 l 142 57 l 119 57 q 114 65 118 61 q 110 75 110 69 l 110 81 l 94 92 l 94 125 q 98 138 97 132 q 104 153 99 144 l 110 161 l 110 179 q 110 194 110 188 q 108 207 110 201 l 101 231 l 101 244 q 99 251 100 250 q 97 257 97 253 l 97 276 l 99 276 l 99 283 l 97 283 l 97 293 l 93 293 l 86 296 q 87 294 86 296 q 85 293 88 292 l 81 293 l 81 306 l 86 306 q 87 309 86 308 q 88 315 88 310 l 93 315 q 94 313 93 313 l 94 314 q 95 314 94 314 q 97 313 96 314 l 97 308 l 107 308 l 107 315 q 109 316 108 315 q 110 317 110 317 l 110 321 l 111 321 l 111 325 q 118 331 118 325 l 118 344 q 117 346 118 343 q 110 350 115 349 l 110 363 q 111 363 111 364 q 113 365 111 361 l 117 381 q 117 383 117 382 q 118 385 118 383 q 115 389 118 389 q 111 393 111 389 l 97 393 l 97 389 l 85 389 l 85 396 q 86 395 86 396 q 86 394 86 394 q 89 397 88 394 q 90 400 90 400 l 97 400 l 97 401 l 101 401 l 101 408 l 106 408 l 106 431 l 101 431 q 93 438 99 438 l 93 442 l 88 442 l 88 451 l 85 451 q 83 456 85 456 q 79 457 81 456 l 79 461 q 72 463 78 463 l 65 463 l 65 488 q 67 494 65 493 q 68 501 68 494 l 60 529 q 56 557 56 544 l 56 579 q 60 591 56 586 q 65 600 64 596 l 65 626 q 69 631 68 628 q 74 633 71 633 l 74 638 q 76 642 74 640 l 97 664 l 97 665 l 101 665 q 106 664 103 664 l 114 668 l 118 674 l 118 678 l 124 678 l 126 681 q 128 682 128 681 q 129 683 129 683 l 139 693 q 144 699 140 694 q 150 703 149 703 l 151 701 q 153 702 151 701 q 156 703 154 703 l 156 706 q 160 715 156 706 q 168 725 165 725 l 168 729 q 171 733 168 733 l 171 732 q 179 740 174 732 q 194 747 185 747 l 194 751 l 233 751 l 244 757 q 256 767 247 760 q 275 774 265 774 q 281 772 279 774 l 286 769 q 295 764 290 768 q 301 760 300 760 q 310 761 304 760 q 319 764 317 763 q 325 763 324 764 q 335 766 328 763 q 361 769 342 769 q 374 765 369 769 l 389 751 l 414 751 l 436 740 l 436 738 q 455 731 442 735 q 468 726 468 726 l 468 715 q 475 710 469 713 q 483 706 481 708 q 491 697 483 697 q 506 692 499 697 q 513 664 513 688 l 519 653 q 522 647 519 651 q 525 643 525 643 l 528 633 q 525 625 528 625 l 525 610 q 521 606 521 610 l 521 588 l 529 576 q 537 554 536 568 q 538 525 538 540 l 538 508 l 532 508 l 532 494 l 529 494 q 531 494 531 494 q 531 493 531 493 l 526 493 l 526 488 q 524 482 524 485 q 525 473 524 479 q 528 464 526 467 q 526 460 528 463 q 525 458 525 458 l 525 401 l 526 401 l 526 394 l 529 394 q 525 382 525 386 l 521 382 q 515 369 517 376 l 515 357 l 513 357 q 512 352 513 353 q 511 347 511 351 l 511 343 q 508 341 510 342 q 507 339 507 340 l 507 333 q 504 332 507 332 l 500 332 q 497 325 497 326 q 496 327 496 328 q 493 331 496 326 l 494 331 q 493 332 494 332 l 489 332 l 493 338 q 488 339 489 338 q 488 342 488 342 q 493 344 488 343 q 492 347 493 346 q 490 347 490 347 q 492 349 490 349 q 494 354 494 350 l 494 357 l 500 357 q 497 363 500 363 q 501 365 497 365 l 501 471 q 503 483 501 478 q 507 489 506 489 l 507 493 q 509 494 508 493 q 511 494 510 494 l 511 501 l 513 501 l 513 529 q 511 533 511 529 l 511 543 l 507 543 l 507 547 q 504 548 506 546 q 501 550 503 550 l 497 550 l 497 553 l 494 553 l 494 556 l 493 556 l 493 563 l 489 563 l 489 572 l 488 572 l 488 576 q 483 582 483 576 q 479 579 482 579 l 469 579 q 468 585 469 582 l 464 588 q 465 589 465 588 l 464 588 l 464 589 l 461 594 l 446 594 l 436 608 l 435 608 l 435 607 q 431 609 432 607 q 426 611 429 611 q 420 610 424 611 q 418 608 417 610 l 413 608 l 413 606 l 407 606 q 406 603 407 604 q 397 601 404 601 q 385 602 390 601 q 375 603 379 603 l 375 606 q 374 607 374 604 q 371 610 374 610 l 368 610 l 368 614 l 358 614 l 358 615 l 356 615 l 356 621 l 351 621 q 353 626 351 625 q 356 628 356 626 q 350 638 351 632 q 343 642 349 643 l 343 646 q 321 644 335 646 q 307 635 307 642 l 307 633 l 306 633 q 305 631 306 633 q 303 629 304 629 q 300 632 300 629 l 300 626 l 283 626 l 281 631 l 281 633 l 274 633 q 267 630 268 633 q 261 625 265 626 l 261 621 q 256 625 258 621 l 256 618 q 245 615 249 618 q 236 608 242 613 l 232 608 l 232 606 l 204 606 q 199 599 203 604 q 196 590 196 593 q 197 589 196 589 q 197 588 197 589 l 194 585 l 192 581 q 190 581 192 581 q 188 579 189 581 q 187 581 188 581 q 186 583 186 582 q 179 579 179 583 q 175 582 175 579 l 171 579 l 163 579 q 160 581 161 579 q 157 582 160 582 q 151 578 153 582 q 149 574 149 574 l 149 572 l 157 564 q 157 565 157 564 q 158 565 157 565 l 161 565 q 163 562 161 564 q 164 557 164 560 q 161 556 164 556 l 161 538 q 162 535 161 536 q 163 533 163 535 l 163 529 l 171 524 q 181 521 171 521 q 185 524 182 524 q 188 529 188 524 l 188 533 l 192 538 q 196 543 196 542 l 194 544 l 201 544 l 201 540 l 204 540 l 204 525 q 206 522 206 525 q 207 515 207 518 l 211 515 q 214 507 211 514 q 217 497 217 500 q 213 493 213 496 l 214 488 q 213 486 214 486 q 213 483 213 486 l 210 481 q 208 480 208 481 q 207 479 207 479 l 201 479 l 201 476 l 200 476 l 200 450 l 201 451 l 201 447 l 217 447 l 217 446 q 228 451 219 450 q 247 451 238 451 q 284 451 272 451 q 308 450 296 451 l 311 447 l 319 447 q 330 431 322 440 q 339 415 338 422 q 335 410 339 415 q 329 406 332 404 l 326 399 q 311 383 326 383 l 275 383 l 265 376 l 265 375 l 250 375 l 250 376 l 244 376 q 243 378 244 378 l 243 381 q 242 382 242 381 l 238 382 q 236 383 238 383 l 224 383 q 219 387 224 386 q 217 390 214 388 l 217 393 l 213 393 q 211 396 211 393 l 211 400 l 194 400 q 194 403 194 401 q 192 407 193 404 l 188 414 l 175 414 q 171 410 171 410 q 169 410 169 410 q 163 411 169 411 q 155 402 158 404 q 151 393 151 400 q 153 387 151 388 q 156 383 156 386 l 161 383 q 171 379 168 378 q 174 374 174 381 q 165 367 174 364 q 156 358 156 369 q 156 351 156 354 q 157 343 157 347 l 161 332 q 164 323 164 325 q 167 317 164 321 l 171 313 q 176 312 174 313 q 181 311 179 311 q 185 311 182 311 q 188 313 188 311 l 192 313 l 196 308 q 210 307 201 307 q 224 309 217 307 q 235 311 231 311 l 238 311 l 247 313 l 247 315 l 251 315 q 258 322 256 319 q 267 331 260 325 l 267 332 l 268 332 q 269 332 269 333 q 271 331 269 331 q 274 331 272 331 q 275 332 275 332 q 279 321 279 328 l 279 301 q 281 301 281 301 q 283 300 282 300 l 301 300 l 311 301 l 311 300 l 319 300 l 319 299 l 325 299 l 325 293 l 333 293 l 336 289 l 363 289 q 370 291 367 289 q 381 293 374 293 l 381 288 l 383 288 l 383 276 q 381 276 382 276 q 381 275 381 275 l 381 269 q 378 271 379 271 q 366 269 368 269 q 361 261 364 269 l 356 261 l 356 257 q 347 260 350 260 q 342 258 344 260 q 333 256 340 256 l 333 250 q 336 246 333 249 l 343 242 l 343 239 l 336 239 q 333 238 333 239 q 331 238 332 238 l 331 239 q 316 238 324 239 q 301 238 308 238 q 300 240 300 239 q 297 243 300 242 l 294 247 l 288 247 l 288 250 l 274 250 l 274 247 q 270 247 272 246 q 268 244 268 247 l 268 231 l 272 226 q 273 224 272 225 q 274 219 274 222 l 294 219 q 296 219 296 219 q 297 218 296 218 l 297 215 q 292 214 296 214 l 281 214 q 263 219 268 214 q 253 228 258 224 q 236 233 249 233 l 236 231 q 234 229 235 231 q 232 229 233 228 l 232 224 l 229 219 q 226 215 229 218 q 218 218 224 218 l 218 215 l 213 215 q 207 206 213 211 l 211 201 l 211 161 l 207 161 q 210 154 207 156 q 213 153 214 153 l 211 151 q 213 151 211 151 q 217 150 214 150 l 224 150 q 229 153 226 153 l 232 147 q 233 144 233 146 q 233 143 233 143 q 232 133 232 140 l 232 124 q 234 121 233 124 q 236 118 235 118 q 238 117 238 118 l 251 106 q 253 103 251 103 q 256 104 254 103 q 257 106 257 106 l 261 106 l 261 101 l 268 101 q 275 99 269 101 q 281 101 278 99 q 286 103 285 103 q 288 101 288 103 l 288 99 l 297 99 l 300 93 l 333 93 q 334 92 332 93 q 336 89 336 92 l 338 90 q 343 85 339 89 q 349 81 347 82 l 368 81 l 372 83 q 371 84 371 83 q 371 85 371 85 q 375 88 371 88 q 381 75 381 83 l 379 75 q 381 69 381 74 q 370 63 371 69 q 356 56 369 56 q 357 53 357 54 q 357 53 357 53 q 357 52 357 53 q 356 51 357 51 l 351 51 q 349 44 351 50 l 343 44 l 343 38 l 339 38 l 339 31 q 337 31 338 31 q 335 32 336 32 q 331 28 335 33 q 328 18 328 24 l 319 6 l 307 6 l 307 3 q 302 1 306 1 q 296 -3 299 0 q 297 -8 296 -7 l 294 -11 l 288 -11 l 288 -14 l 283 -14 l 283 -15 l 281 -15 l 281 -25 l 204 -25 l 204 -21 m 85 333 q 81 340 81 338 l 81 344 l 76 347 q 76 348 76 347 q 75 350 75 349 l 75 354 l 72 354 l 72 357 q 71 365 71 358 l 72 365 l 72 367 l 76 367 q 79 363 79 364 l 81 361 l 83 361 l 83 357 q 86 351 85 354 q 88 347 88 349 l 88 343 l 86 343 q 87 341 86 342 q 88 339 88 340 l 94 339 q 90 337 92 338 q 85 333 88 336 m 75 393 q 71 399 71 396 q 75 404 75 401 l 74 404 l 74 413 l 71 413 l 71 424 l 72 424 l 74 425 l 74 424 l 75 424 l 75 418 q 76 417 75 417 q 76 415 76 417 q 79 414 76 414 l 79 411 l 81 410 q 82 409 82 410 q 83 408 82 408 l 83 397 l 82 397 q 79 394 82 397 l 79 393 l 75 393 m 307 175 q 300 181 300 179 q 298 180 299 181 q 297 179 297 179 q 296 182 296 179 l 288 182 l 283 185 q 285 189 283 189 l 285 194 l 286 194 q 290 194 289 194 q 299 193 292 193 q 301 197 299 197 l 306 197 q 307 198 307 197 q 310 199 307 199 l 314 199 q 307 201 310 201 q 304 204 304 200 l 300 204 q 297 204 299 203 q 296 207 296 206 l 297 208 l 297 213 l 313 213 q 313 214 314 213 q 314 215 313 215 q 318 213 318 213 l 325 213 q 329 215 325 215 q 335 212 332 215 q 339 206 339 208 l 339 204 l 328 204 q 322 201 328 201 l 322 197 q 325 199 324 197 l 331 199 q 333 200 332 199 q 339 196 333 199 q 344 188 344 193 q 340 184 347 188 q 325 181 332 181 l 321 181 q 313 179 319 179 l 313 176 q 307 175 308 176 m 331 219 q 329 225 329 219 l 332 225 q 333 225 332 225 q 335 224 333 225 l 335 226 l 349 226 q 350 224 350 225 q 350 224 350 224 q 335 219 346 219 l 331 219 m 399 103 q 396 103 399 103 q 393 107 393 104 l 396 113 q 396 115 394 113 q 394 118 397 117 l 400 118 l 400 121 l 401 121 l 401 124 l 404 124 q 409 131 404 124 q 419 139 414 138 l 414 143 q 415 144 414 143 q 417 144 415 144 l 419 144 l 419 154 l 422 158 q 419 161 419 161 l 421 161 q 422 162 421 161 q 424 167 424 163 l 424 169 l 426 169 l 426 176 l 429 176 q 431 178 429 179 q 433 179 433 178 l 433 182 l 439 182 l 439 183 l 446 183 q 451 192 449 185 q 464 200 454 200 q 469 193 469 200 l 469 189 q 469 188 469 188 q 468 186 468 188 l 469 186 q 468 183 469 185 l 465 183 l 465 179 q 461 176 464 176 q 456 174 458 176 l 447 168 q 439 161 443 161 l 436 158 q 433 153 435 156 q 429 147 432 150 l 429 143 l 426 139 q 425 140 425 139 q 424 140 425 140 q 418 133 418 140 q 419 126 419 131 q 419 121 419 121 l 419 111 l 413 111 l 413 107 l 404 107 q 402 105 403 107 q 399 103 401 103 m 413 361 q 406 368 411 361 q 399 375 401 375 l 375 375 q 374 376 375 376 q 375 382 374 381 q 376 386 376 383 q 376 388 376 386 q 375 390 376 389 l 368 396 q 369 399 369 397 q 369 400 369 400 l 368 408 q 371 411 371 408 l 371 413 q 373 414 371 413 q 374 417 375 415 l 374 421 l 375 421 l 381 426 q 385 428 381 426 q 393 431 389 431 l 393 433 q 394 438 393 436 l 404 438 l 404 440 l 414 442 l 419 438 l 432 438 l 436 431 l 443 431 q 449 425 443 425 q 456 428 451 425 q 461 431 460 431 q 464 424 461 426 q 467 422 467 422 l 468 424 l 468 418 l 474 418 l 474 415 q 479 413 479 415 l 479 408 l 476 406 l 478 406 q 475 401 478 404 q 472 396 472 399 q 474 394 472 394 q 475 393 475 394 q 462 384 475 383 q 443 379 449 385 l 443 376 q 440 376 442 376 q 436 375 439 375 l 436 371 q 432 367 435 369 q 429 363 429 365 l 413 363 l 413 361 z "},"≈":{"ha":665,"x_min":67,"x_max":599,"o":"m 67 456 q 106 547 67 518 q 208 576 146 576 q 294 563 258 576 q 363 533 331 549 q 431 518 394 518 q 491 537 471 518 q 511 578 511 556 l 585 578 q 565 508 585 535 q 513 469 544 481 q 444 458 481 458 q 378 467 407 458 q 326 489 350 476 q 279 510 303 501 q 225 519 256 519 q 169 502 192 519 q 147 456 147 485 l 67 456 m 81 196 q 120 288 81 258 q 222 317 160 317 q 308 303 272 317 q 376 274 344 289 q 444 258 408 258 q 505 277 485 258 q 525 318 525 296 l 599 318 q 578 248 599 275 q 526 210 558 221 q 458 199 494 199 q 392 208 421 199 q 340 229 364 217 q 293 251 317 242 q 239 260 269 260 q 183 242 206 260 q 161 196 161 225 l 81 196 z "},"å":{"ha":550,"x_min":68,"x_max":475,"o":"m 175 0 q 101 15 124 0 q 74 69 79 31 q 68 178 68 107 l 68 515 q 81 599 68 569 q 126 641 93 629 q 221 653 158 653 l 475 653 l 475 0 l 383 0 l 383 579 l 229 579 q 180 569 194 579 q 163 540 165 560 q 160 483 160 519 l 160 168 q 164 109 160 129 q 181 81 168 89 q 222 74 194 74 l 343 74 l 333 0 l 175 0 m 282 731 q 202 761 233 731 q 171 833 171 792 q 202 907 171 876 q 282 938 233 938 q 358 907 326 938 q 389 833 389 876 q 358 761 389 792 q 282 731 326 731 m 282 771 q 326 789 307 771 q 346 832 346 807 q 326 878 346 858 q 282 897 307 897 q 234 878 253 897 q 215 832 215 858 q 234 789 215 807 q 282 771 253 771 z "},"ǻ":{"ha":550,"x_min":68,"x_max":475,"o":"m 175 0 q 101 15 124 0 q 74 69 79 31 q 68 178 68 107 l 68 515 q 81 599 68 569 q 126 641 93 629 q 221 653 158 653 l 475 653 l 475 0 l 383 0 l 383 579 l 229 579 q 180 569 194 579 q 163 540 165 560 q 160 483 160 519 l 160 168 q 164 109 160 129 q 181 81 168 89 q 222 74 194 74 l 343 74 l 333 0 l 175 0 m 282 731 q 202 761 233 731 q 171 833 171 792 q 202 907 171 876 q 282 938 233 938 q 358 907 326 938 q 389 833 389 876 q 358 761 389 792 q 282 731 326 731 m 282 771 q 326 789 307 771 q 346 832 346 807 q 326 878 346 858 q 282 897 307 897 q 234 878 253 897 q 215 832 215 858 q 234 789 215 807 q 282 771 253 771 m 203 976 l 325 1110 l 411 1110 l 263 976 l 203 976 z "},"^":{"ha":449,"x_min":58,"x_max":392,"o":"m 58 899 l 181 1031 l 267 1031 l 392 899 l 331 899 l 225 996 l 118 899 l 58 899 z "},"~":{"ha":588,"x_min":67,"x_max":521,"o":"m 67 857 q 101 949 67 919 q 190 979 136 979 q 267 965 235 979 q 327 935 299 950 q 388 921 356 921 q 444 940 426 921 q 463 979 463 958 l 521 979 q 483 888 521 914 q 399 861 446 861 q 324 876 354 861 q 266 907 293 892 q 204 922 239 922 q 151 904 172 922 q 131 857 131 886 l 67 857 z "},"*":{"ha":607,"x_min":78,"x_max":528,"o":"m 192 426 l 144 461 l 285 621 l 78 668 l 94 719 l 294 643 l 275 853 l 333 853 l 317 644 l 513 725 l 528 675 l 325 621 l 464 461 l 418 428 l 306 608 l 192 426 z "},"@":{"ha":863,"x_min":57,"x_max":806,"o":"m 431 -104 q 220 -59 303 -101 q 97 77 138 -17 q 57 322 57 171 q 81 531 57 449 q 151 660 104 613 q 271 726 199 707 q 439 744 343 744 q 635 709 553 744 q 761 593 717 674 q 806 375 806 513 q 803 294 806 339 q 790 208 800 250 q 761 130 781 165 q 708 73 742 94 q 621 51 674 51 q 553 75 576 51 q 531 163 531 99 q 504 128 522 139 q 453 117 486 117 l 397 117 q 327 132 350 117 q 297 174 304 147 q 290 235 290 201 l 290 263 q 308 352 290 321 q 376 383 325 383 l 501 383 l 501 454 q 490 503 500 486 q 446 521 479 521 l 418 521 q 367 454 367 521 l 367 422 l 300 422 l 300 458 q 326 533 300 507 q 400 558 351 558 l 444 558 q 523 546 496 558 q 560 510 550 533 q 571 450 571 486 l 571 226 q 575 146 571 172 q 590 110 579 119 q 619 101 600 101 q 665 122 647 101 q 694 178 683 142 q 710 261 706 214 q 714 361 714 308 q 703 488 714 428 q 664 592 693 547 q 581 664 635 638 q 440 690 528 690 q 270 655 335 690 q 177 539 206 619 q 149 322 149 458 q 173 120 149 204 q 260 -7 197 36 q 439 -50 324 -50 q 504 -46 468 -50 q 573 -33 540 -42 q 621 -15 606 -25 l 640 -53 q 549 -90 607 -76 q 431 -104 490 -104 m 443 157 q 485 174 468 157 q 501 226 501 192 l 501 343 l 410 343 q 370 328 382 343 q 358 274 358 314 l 358 231 q 374 172 358 188 q 419 157 389 157 l 443 157 z "},"ã":{"ha":550,"x_min":68,"x_max":475,"o":"m 175 0 q 101 15 124 0 q 74 69 79 31 q 68 178 68 107 l 68 515 q 81 599 68 569 q 126 641 93 629 q 221 653 158 653 l 475 653 l 475 0 l 383 0 l 383 579 l 229 579 q 180 569 194 579 q 163 540 165 560 q 160 483 160 519 l 160 168 q 164 109 160 129 q 181 81 168 89 q 222 74 194 74 l 343 74 l 333 0 l 175 0 m 131 733 q 153 822 131 793 q 213 850 176 850 q 264 836 243 850 q 303 808 285 822 q 343 793 322 793 q 378 811 369 793 q 388 850 388 829 l 433 850 q 408 762 433 788 q 351 736 382 736 q 301 751 322 736 q 263 781 281 767 q 224 796 246 796 q 191 779 203 796 q 179 733 179 763 l 131 733 z "},"b":{"ha":549,"x_min":75,"x_max":481,"o":"m 75 0 l 75 874 l 167 874 l 167 653 l 328 653 q 424 641 392 653 q 469 599 457 629 q 481 515 481 569 l 481 185 q 476 70 481 110 q 447 15 471 31 q 367 0 424 0 l 75 0 m 167 74 l 326 74 q 367 81 354 74 q 384 109 379 89 q 389 168 389 129 l 389 483 q 386 540 389 519 q 369 569 383 560 q 321 579 354 579 l 167 579 l 167 74 z "},"\\":{"ha":635,"x_min":50,"x_max":585,"o":"m 525 -61 l 50 875 l 113 875 l 585 -61 l 525 -61 z "},"|":{"ha":308,"x_min":117,"x_max":192,"o":"m 117 901 l 192 901 l 192 -101 l 117 -101 l 117 901 z "},"{":{"ha":443,"x_min":46,"x_max":372,"o":"m 372 -187 q 221 -168 278 -187 q 135 -119 164 -149 q 96 -60 106 -90 q 86 -10 86 -31 q 97 86 86 42 q 119 172 108 131 q 129 253 129 213 q 108 334 129 306 q 46 363 86 363 l 46 374 q 108 403 86 374 q 129 483 129 432 q 119 567 129 528 q 97 649 108 607 q 86 746 86 692 q 96 797 86 767 q 135 856 106 826 q 221 904 164 885 q 372 924 278 924 l 372 865 q 276 851 313 865 q 219 817 239 838 q 191 773 199 796 q 183 729 183 750 q 192 660 183 694 q 210 588 201 625 q 218 504 218 550 q 193 414 218 449 q 108 368 168 379 q 193 322 168 357 q 218 232 218 288 q 210 153 218 189 q 192 81 201 117 q 183 7 183 46 q 191 -37 183 -14 q 218 -81 199 -60 q 275 -115 238 -101 q 372 -129 313 -129 l 372 -187 z "},"}":{"ha":443,"x_min":72,"x_max":397,"o":"m 72 -187 l 72 -129 q 169 -115 132 -129 q 226 -81 206 -101 q 253 -37 246 -60 q 261 7 261 -14 q 252 81 261 46 q 234 153 243 117 q 225 232 225 189 q 251 322 225 288 q 336 368 276 357 q 251 414 276 379 q 225 504 225 449 q 234 588 225 550 q 252 660 243 625 q 261 729 261 694 q 253 773 261 750 q 225 817 244 796 q 168 851 206 838 q 72 865 131 865 l 72 924 q 224 904 167 924 q 309 856 281 885 q 347 797 338 826 q 357 746 357 767 q 347 649 357 692 q 325 567 336 607 q 314 483 314 528 q 335 403 314 432 q 397 374 357 374 l 397 363 q 335 334 357 363 q 314 253 314 306 q 325 172 314 213 q 347 86 336 131 q 357 -10 357 42 q 347 -60 357 -31 q 309 -119 338 -90 q 224 -168 281 -149 q 72 -187 167 -187 z "},"[":{"ha":322,"x_min":51,"x_max":269,"o":"m 51 875 l 269 875 l 269 836 l 143 836 l 143 -40 l 269 -40 l 269 -79 l 51 -79 l 51 875 z "},"]":{"ha":322,"x_min":53,"x_max":269,"o":"m 53 -40 l 178 -40 l 178 838 l 53 838 l 53 875 l 269 875 l 269 -79 l 53 -79 l 53 -40 z "},"˘":{"ha":313,"x_min":11,"x_max":300,"o":"m 153 729 q 67 749 99 729 q 24 800 36 769 q 11 863 11 831 l 71 863 q 90 802 71 828 q 153 776 108 776 q 222 801 203 776 q 242 863 242 826 l 300 863 q 266 767 300 806 q 153 729 232 729 z "},"̮":{"ha":0,"x_min":11,"x_max":300,"o":"m 153 -190 q 67 -170 99 -190 q 24 -119 36 -150 q 11 -57 11 -89 l 71 -57 q 90 -117 71 -92 q 153 -143 108 -143 q 222 -118 203 -143 q 242 -57 242 -93 l 300 -57 q 266 -152 300 -114 q 153 -190 232 -190 z "},"̆":{"ha":0,"x_min":11,"x_max":300,"o":"m 153 729 q 67 749 99 729 q 24 800 36 769 q 11 863 11 831 l 71 863 q 90 802 71 828 q 153 776 108 776 q 222 801 203 776 q 242 863 242 826 l 300 863 q 266 767 300 806 q 153 729 232 729 z "},"̑":{"ha":0,"x_min":11,"x_max":300,"o":"m 153 867 q 266 828 232 867 q 300 733 300 790 l 242 733 q 222 795 242 771 q 153 819 203 819 q 90 794 108 819 q 71 733 71 768 l 11 733 q 24 797 11 767 q 67 847 36 828 q 153 867 99 867 z "},"¦":{"ha":308,"x_min":117,"x_max":192,"o":"m 117 -101 l 117 342 l 192 342 l 192 -101 l 117 -101 m 117 485 l 117 901 l 192 901 l 192 485 l 117 485 z "},"•":{"ha":415,"x_min":75,"x_max":342,"o":"m 206 233 q 113 274 151 233 q 75 372 75 314 q 114 465 75 428 q 207 503 153 503 q 302 464 263 503 q 342 368 342 425 q 303 272 342 311 q 206 233 264 233 z "},"∙":{"ha":500,"x_min":153,"x_max":310,"o":"m 231 300 q 174 324 196 300 q 153 382 153 347 q 175 438 153 415 q 231 460 197 460 q 287 437 264 460 q 310 381 310 414 q 287 323 310 346 q 231 300 264 300 z "},"c":{"ha":526,"x_min":63,"x_max":469,"o":"m 258 -6 q 135 17 176 -6 q 78 74 93 39 q 63 147 63 110 l 63 507 q 78 581 63 546 q 137 638 93 615 q 267 660 181 660 q 391 638 347 660 q 452 582 435 617 q 469 508 469 547 l 469 411 l 378 400 l 378 492 q 349 563 378 538 q 267 589 319 589 q 184 564 214 589 q 154 492 154 539 l 154 164 q 183 94 154 118 q 258 69 213 69 q 347 95 317 69 q 378 172 378 121 l 378 253 l 469 261 l 469 160 q 451 77 469 115 q 388 17 433 39 q 258 -6 343 -6 z "},"ć":{"ha":526,"x_min":63,"x_max":469,"o":"m 258 -6 q 135 17 176 -6 q 78 74 93 39 q 63 147 63 110 l 63 507 q 78 581 63 546 q 137 638 93 615 q 267 660 181 660 q 391 638 347 660 q 452 582 435 617 q 469 508 469 547 l 469 411 l 378 400 l 378 492 q 349 563 378 538 q 267 589 319 589 q 184 564 214 589 q 154 492 154 539 l 154 164 q 183 94 154 118 q 258 69 213 69 q 347 95 317 69 q 378 172 378 121 l 378 253 l 469 261 l 469 160 q 451 77 469 115 q 388 17 433 39 q 258 -6 343 -6 m 185 739 l 307 872 l 393 872 l 244 739 l 185 739 z "},"ˇ":{"ha":332,"x_min":6,"x_max":326,"o":"m 6 867 l 71 867 l 167 783 l 261 867 l 326 867 l 210 739 l 122 739 l 6 867 z "},"̌":{"ha":0,"x_min":6,"x_max":326,"o":"m 6 867 l 71 867 l 167 783 l 261 867 l 326 867 l 210 739 l 122 739 l 6 867 z "},"č":{"ha":526,"x_min":63,"x_max":469,"o":"m 101 867 l 168 867 l 264 783 l 358 867 l 424 867 l 306 739 l 219 739 l 101 867 m 258 -6 q 135 17 176 -6 q 78 74 93 39 q 63 147 63 110 l 63 507 q 78 581 63 546 q 137 638 93 615 q 267 660 181 660 q 391 638 347 660 q 452 582 435 617 q 469 508 469 547 l 469 411 l 378 400 l 378 492 q 349 563 378 538 q 267 589 319 589 q 184 564 214 589 q 154 492 154 539 l 154 164 q 183 94 154 118 q 258 69 213 69 q 347 95 317 69 q 378 172 378 121 l 378 253 l 469 261 l 469 160 q 451 77 469 115 q 388 17 433 39 q 258 -6 343 -6 z "},"ç":{"ha":526,"x_min":63,"x_max":469,"o":"m 258 -6 q 135 17 176 -6 q 78 74 93 39 q 63 147 63 110 l 63 507 q 78 581 63 546 q 137 638 93 615 q 267 660 181 660 q 391 638 347 660 q 452 582 435 617 q 469 508 469 547 l 469 411 l 378 400 l 378 492 q 349 563 378 538 q 267 589 319 589 q 184 564 214 589 q 154 492 154 539 l 154 164 q 183 94 154 118 q 258 69 213 69 q 347 95 317 69 q 378 172 378 121 l 378 253 l 469 261 l 469 160 q 451 77 469 115 q 388 17 433 39 q 258 -6 343 -6 m 267 -250 q 213 -240 238 -250 q 174 -218 189 -229 l 197 -182 q 224 -201 204 -192 q 263 -210 243 -210 q 313 -189 296 -210 q 331 -144 331 -168 q 316 -106 331 -124 q 269 -87 301 -87 q 231 -96 249 -87 q 203 -115 214 -104 l 172 -92 l 244 0 l 286 0 l 229 -71 q 288 -51 257 -51 q 365 -79 342 -51 q 388 -140 388 -107 q 357 -215 388 -179 q 267 -250 326 -250 z "},"ĉ":{"ha":526,"x_min":63,"x_max":469,"o":"m 258 -6 q 135 17 176 -6 q 78 74 93 39 q 63 147 63 110 l 63 507 q 78 581 63 546 q 137 638 93 615 q 267 660 181 660 q 391 638 347 660 q 452 582 435 617 q 469 508 469 547 l 469 411 l 378 400 l 378 492 q 349 563 378 538 q 267 589 319 589 q 184 564 214 589 q 154 492 154 539 l 154 164 q 183 94 154 118 q 258 69 213 69 q 347 95 317 69 q 378 172 378 121 l 378 253 l 469 261 l 469 160 q 451 77 469 115 q 388 17 433 39 q 258 -6 343 -6 m 103 739 l 219 867 l 307 867 l 424 739 l 358 739 l 264 821 l 168 739 l 103 739 z "},"ċ":{"ha":526,"x_min":63,"x_max":469,"o":"m 258 -6 q 135 17 176 -6 q 78 74 93 39 q 63 147 63 110 l 63 507 q 78 581 63 546 q 137 638 93 615 q 267 660 181 660 q 391 638 347 660 q 452 582 435 617 q 469 508 469 547 l 469 411 l 378 400 l 378 492 q 349 563 378 538 q 267 589 319 589 q 184 564 214 589 q 154 492 154 539 l 154 164 q 183 94 154 118 q 258 69 213 69 q 347 95 317 69 q 378 172 378 121 l 378 253 l 469 261 l 469 160 q 451 77 469 115 q 388 17 433 39 q 258 -6 343 -6 m 261 735 q 228 744 233 735 q 224 774 224 754 q 228 806 224 797 q 261 815 233 815 q 297 806 292 815 q 301 774 301 797 q 296 744 301 754 q 261 735 290 735 z "},"₵":{"ha":486,"x_min":42,"x_max":444,"o":"m 243 -10 q 92 28 143 -10 q 42 139 42 67 l 42 711 q 88 832 42 793 q 239 871 135 871 q 394 833 344 871 q 444 710 444 794 l 444 526 l 363 514 l 363 688 q 339 766 363 738 q 242 794 315 794 q 152 765 174 794 q 131 689 131 736 l 131 161 q 156 94 131 121 q 242 68 181 68 q 336 94 310 68 q 363 161 363 121 l 363 326 l 444 339 l 444 140 q 392 28 444 67 q 243 -10 340 -10 m 200 -118 l 268 947 l 293 947 l 226 -118 l 200 -118 z "},"¸":{"ha":242,"x_min":6,"x_max":221,"o":"m 100 -250 q 47 -240 71 -250 q 7 -218 22 -229 l 31 -182 q 57 -201 38 -192 q 96 -210 76 -210 q 147 -189 129 -210 q 164 -144 164 -168 q 149 -106 164 -124 q 103 -87 135 -87 q 65 -96 82 -87 q 36 -115 47 -104 l 6 -92 l 78 0 l 119 0 l 63 -71 q 121 -51 90 -51 q 198 -79 175 -51 q 221 -140 221 -107 q 190 -215 221 -179 q 100 -250 160 -250 z "},"̧":{"ha":0,"x_min":6,"x_max":221,"o":"m 100 -250 q 47 -240 71 -250 q 7 -218 22 -229 l 31 -182 q 57 -201 38 -192 q 96 -210 76 -210 q 147 -189 129 -210 q 164 -144 164 -168 q 149 -106 164 -124 q 103 -87 135 -87 q 65 -96 82 -87 q 36 -115 47 -104 l 6 -92 l 78 0 l 119 0 l 63 -71 q 121 -51 90 -51 q 198 -79 175 -51 q 221 -140 221 -107 q 190 -215 221 -179 q 100 -250 160 -250 z "},"¢":{"ha":489,"x_min":42,"x_max":447,"o":"m 238 126 q 114 149 156 126 q 57 206 72 171 q 42 279 42 242 l 42 639 q 57 712 42 676 q 116 769 72 747 q 246 792 160 792 q 369 769 326 792 q 430 713 413 747 q 447 639 447 679 l 447 540 l 356 532 l 356 622 q 326 694 356 669 q 246 719 297 719 q 163 694 193 719 q 133 622 133 669 l 133 297 q 163 226 133 250 q 236 201 192 201 q 326 227 296 201 q 356 306 356 253 l 356 385 l 447 393 l 447 293 q 430 209 447 247 q 367 149 413 171 q 238 126 322 126 m 193 -118 l 260 947 l 285 947 l 217 -118 l 193 -118 z "},"ˆ":{"ha":332,"x_min":6,"x_max":326,"o":"m 6 739 l 122 867 l 210 867 l 326 739 l 261 739 l 167 821 l 71 739 l 6 739 z "},"̂":{"ha":0,"x_min":6,"x_max":326,"o":"m 6 739 l 122 867 l 210 867 l 326 739 l 261 739 l 167 821 l 71 739 l 6 739 z "},":":{"ha":258,"x_min":75,"x_max":153,"o":"m 113 489 q 79 499 83 489 q 75 529 75 508 q 79 560 75 551 q 113 569 83 569 q 147 560 142 569 q 153 529 153 551 q 147 499 153 508 q 113 489 142 489 m 113 3 q 79 13 83 3 q 75 43 75 22 q 79 74 75 65 q 113 83 83 83 q 147 74 142 83 q 153 43 153 65 q 147 13 153 22 q 113 3 142 3 z "},"₡":{"ha":486,"x_min":42,"x_max":444,"o":"m 243 -10 q 92 28 143 -10 q 42 139 42 67 l 42 711 q 88 832 42 793 q 239 871 135 871 q 394 833 344 871 q 444 710 444 794 l 444 526 l 368 514 l 368 688 q 344 766 368 738 q 242 794 319 794 q 147 765 169 794 q 125 689 125 736 l 125 161 q 151 94 125 121 q 242 68 176 68 q 341 94 314 68 q 368 161 368 121 l 368 326 l 444 339 l 444 140 q 392 28 444 67 q 243 -10 340 -10 m 153 -118 l 222 947 l 247 947 l 178 -118 l 153 -118 m 240 -118 l 310 947 l 335 947 l 265 -118 l 240 -118 z "},",":{"ha":274,"x_min":61,"x_max":158,"o":"m 61 -158 q 96 -72 83 -112 q 108 7 108 -32 q 82 17 86 7 q 78 40 78 26 q 79 66 78 57 q 90 79 81 75 q 119 83 99 83 q 153 74 147 83 q 158 43 158 65 q 150 -29 158 10 q 130 -103 142 -68 q 106 -158 118 -137 l 61 -158 z "},"̦":{"ha":0,"x_min":0,"x_max":94,"o":"m 0 -233 q 34 -171 21 -200 q 47 -114 47 -142 q 22 -107 26 -114 q 17 -89 17 -100 q 22 -65 17 -72 q 58 -58 28 -58 q 90 -65 85 -58 q 94 -87 94 -71 q 88 -140 94 -111 q 69 -192 81 -168 q 44 -233 57 -217 l 0 -233 z "},"̒":{"ha":0,"x_min":0,"x_max":101,"o":"m 36 739 q 8 745 15 739 q 0 765 0 751 q 8 816 0 788 q 30 871 17 844 q 56 913 43 897 l 101 913 q 65 851 79 879 q 50 793 51 822 q 73 788 68 793 q 78 775 78 783 q 70 747 78 756 q 36 739 63 739 z "},"⁒":{"ha":829,"x_min":53,"x_max":740,"o":"m 131 504 q 75 528 97 504 q 53 586 53 551 q 76 642 53 619 q 131 664 99 664 q 187 641 164 664 q 210 585 210 618 q 187 527 210 550 q 131 504 164 504 m 661 221 q 606 244 628 221 q 583 303 583 268 q 606 358 583 336 q 661 381 629 381 q 717 358 694 381 q 740 301 740 335 q 717 244 740 267 q 661 221 694 221 m 149 18 l 611 893 l 653 888 l 188 13 l 149 18 z "},"©":{"ha":1065,"x_min":69,"x_max":996,"o":"m 536 -4 q 350 30 435 -4 q 202 124 265 64 q 104 261 139 183 q 69 426 69 339 q 104 600 69 519 q 202 742 139 681 q 350 837 265 803 q 536 871 435 871 q 713 837 629 871 q 860 742 796 803 q 960 600 924 681 q 996 426 996 519 q 960 261 996 339 q 860 124 924 183 q 713 30 796 64 q 536 -4 629 -4 m 536 44 q 690 74 617 44 q 819 157 763 104 q 909 278 876 210 q 942 425 942 347 q 909 578 942 507 q 819 705 876 650 q 690 791 763 760 q 536 822 617 822 q 376 791 451 822 q 244 705 301 760 q 156 578 188 650 q 124 425 124 507 q 156 278 124 347 q 244 157 188 210 q 376 74 301 104 q 536 44 451 44 m 526 168 q 428 185 461 168 q 383 231 394 203 q 371 288 371 258 l 371 568 q 383 626 371 599 q 431 672 396 654 q 533 689 465 689 q 631 672 597 689 q 679 627 665 654 q 693 569 693 600 l 693 493 l 619 485 l 619 556 q 597 612 619 592 q 533 632 574 632 q 468 613 492 632 q 444 556 444 593 l 444 301 q 467 247 444 265 q 526 228 490 228 q 596 247 572 228 q 619 307 619 267 l 619 369 l 693 378 l 693 297 q 679 233 693 263 q 629 185 665 203 q 526 168 593 168 z "},"¤":{"ha":522,"x_min":44,"x_max":481,"o":"m 264 317 q 171 341 213 317 q 105 408 129 365 q 81 500 81 450 q 105 593 81 551 q 171 659 129 635 q 264 683 213 683 q 356 659 314 683 q 422 593 397 635 q 447 500 447 551 q 422 408 447 450 q 356 341 397 365 q 264 317 314 317 m 263 382 q 344 418 310 383 q 379 500 379 453 q 345 583 379 549 q 263 617 311 617 q 179 583 214 617 q 144 500 144 549 q 179 417 144 451 q 263 382 214 382 m 85 283 l 49 319 l 135 408 l 175 376 l 85 283 m 439 288 l 349 379 l 386 413 l 476 324 l 439 288 m 386 589 l 351 626 l 443 713 l 481 676 l 386 589 m 140 586 l 44 678 l 82 718 l 174 625 l 140 586 z "},"d":{"ha":550,"x_min":68,"x_max":475,"o":"m 182 0 q 110 10 135 0 q 77 52 86 19 q 68 151 68 85 l 68 521 q 81 601 68 572 q 126 642 94 631 q 214 653 157 653 l 383 653 l 383 874 l 475 874 l 475 0 l 182 0 m 383 74 l 383 579 l 232 579 q 174 565 188 579 q 160 508 160 551 l 160 150 q 174 87 160 100 q 224 74 188 74 l 383 74 z "},"†":{"ha":474,"x_min":44,"x_max":429,"o":"m 199 901 l 274 901 l 274 -101 l 199 -101 l 199 901 m 44 522 l 44 597 l 429 597 l 429 522 l 44 522 z "},"‡":{"ha":474,"x_min":56,"x_max":418,"o":"m 199 901 l 274 901 l 274 -101 l 199 -101 l 199 901 m 56 390 l 56 454 l 418 454 l 418 390 l 56 390 m 56 604 l 56 668 l 418 668 l 418 604 l 56 604 z "},"̏":{"ha":0,"x_min":-39,"x_max":293,"o":"m 110 739 l -39 872 l 47 872 l 169 739 l 110 739 m 233 739 l 85 872 l 171 872 l 293 739 l 233 739 z "},"ď":{"ha":563,"x_min":68,"x_max":621,"o":"m 182 0 q 110 10 135 0 q 77 52 86 19 q 68 151 68 85 l 68 521 q 81 601 68 572 q 126 642 94 631 q 214 653 157 653 l 383 653 l 383 874 l 475 874 l 475 0 l 182 0 m 383 74 l 383 579 l 232 579 q 174 565 188 579 q 160 508 160 551 l 160 150 q 174 87 160 100 q 224 74 188 74 l 383 74 m 529 699 l 561 899 l 621 899 l 569 699 l 529 699 z "},"đ":{"ha":550,"x_min":68,"x_max":526,"o":"m 182 0 q 110 10 135 0 q 77 52 86 19 q 68 151 68 85 l 68 521 q 81 601 68 572 q 126 642 94 631 q 214 653 157 653 l 383 653 l 383 874 l 475 874 l 475 0 l 182 0 m 383 74 l 383 579 l 232 579 q 174 565 188 579 q 160 508 160 551 l 160 150 q 174 87 160 100 q 224 74 188 74 l 383 74 m 189 726 l 189 774 l 526 774 l 526 726 l 189 726 z "},"°":{"ha":414,"x_min":63,"x_max":351,"o":"m 207 756 q 134 773 167 756 q 82 821 101 790 q 63 888 63 851 q 82 958 63 926 q 134 1008 101 989 q 207 1026 167 1026 q 280 1008 247 1026 q 332 958 313 989 q 351 888 351 926 q 332 821 351 851 q 280 773 313 790 q 207 756 247 756 m 207 803 q 270 827 243 803 q 297 888 297 851 q 270 950 297 924 q 207 976 243 976 q 142 950 168 976 q 117 888 117 924 q 142 827 117 851 q 207 803 168 803 z "},"¨":{"ha":281,"x_min":28,"x_max":253,"o":"m 213 733 q 181 743 185 733 q 176 772 176 753 q 181 803 176 794 q 213 813 185 813 q 248 803 243 813 q 253 772 253 794 q 248 743 253 753 q 213 733 243 733 m 65 733 q 33 743 38 733 q 28 772 28 753 q 33 803 28 794 q 65 813 38 813 q 101 803 96 813 q 106 772 106 794 q 100 743 106 753 q 65 733 94 733 z "},"̤":{"ha":0,"x_min":28,"x_max":253,"o":"m 213 -139 q 181 -129 185 -139 q 176 -100 176 -119 q 181 -69 176 -78 q 213 -60 185 -60 q 248 -69 243 -60 q 253 -100 253 -78 q 248 -129 253 -119 q 213 -139 243 -139 m 65 -139 q 33 -129 38 -139 q 28 -100 28 -119 q 33 -69 28 -78 q 65 -60 38 -60 q 101 -69 96 -60 q 106 -100 106 -78 q 100 -129 106 -119 q 65 -139 94 -139 z "},"̈":{"ha":0,"x_min":28,"x_max":253,"o":"m 213 733 q 181 743 185 733 q 176 772 176 753 q 181 803 176 794 q 213 813 185 813 q 248 803 243 813 q 253 772 253 794 q 248 743 253 753 q 213 733 243 733 m 65 733 q 33 743 38 733 q 28 772 28 753 q 33 803 28 794 q 65 813 38 813 q 101 803 96 813 q 106 772 106 794 q 100 743 106 753 q 65 733 94 733 z "},"÷":{"ha":583,"x_min":72,"x_max":513,"o":"m 72 267 l 72 318 l 513 318 l 513 267 l 72 267 m 288 489 q 254 499 258 489 q 250 529 250 508 q 254 560 250 551 q 288 569 258 569 q 322 560 317 569 q 328 529 328 551 q 322 499 328 508 q 288 489 317 489 m 288 3 q 254 13 258 3 q 250 43 250 22 q 254 74 250 65 q 288 83 258 83 q 322 74 317 83 q 328 43 328 65 q 322 13 328 22 q 288 3 317 3 z "},"∕":{"ha":693,"x_min":50,"x_max":585,"o":"m 50 -61 l 522 875 l 585 875 l 110 -61 l 50 -61 z "},"$":{"ha":489,"x_min":42,"x_max":447,"o":"m 254 -7 q 145 3 193 -6 q 69 35 97 11 q 42 104 42 60 l 42 288 l 135 300 l 135 140 q 160 87 135 106 q 249 68 185 68 q 315 78 292 68 q 346 108 338 88 q 354 160 354 128 l 354 276 q 331 353 354 324 q 263 397 308 383 l 158 426 q 69 476 96 446 q 42 568 42 506 l 42 729 q 69 818 42 789 q 144 857 96 847 q 253 867 192 867 q 355 857 311 867 q 423 824 399 847 q 447 756 447 800 l 447 572 l 354 557 l 354 713 q 333 776 354 758 q 249 794 311 794 q 160 773 185 794 q 135 696 135 751 l 135 589 q 158 522 135 549 q 217 485 181 496 l 328 453 q 420 401 393 433 q 447 304 447 368 l 447 135 q 424 45 447 75 q 357 5 400 15 q 254 -7 314 -6 m 132 -129 l 151 40 l 214 35 l 193 -129 l 132 -129 m 310 822 l 250 836 l 271 997 l 333 997 l 310 822 z "},"₫":{"ha":504,"x_min":68,"x_max":525,"o":"m 118 -110 l 118 -64 l 456 -64 l 456 -110 l 118 -110 m 182 0 q 110 10 135 0 q 77 52 86 19 q 68 151 68 85 l 68 521 q 81 601 68 572 q 126 642 94 631 q 214 653 157 653 l 383 653 l 383 874 l 475 874 l 475 0 l 182 0 m 383 74 l 383 579 l 232 579 q 174 565 188 579 q 160 508 160 551 l 160 150 q 174 87 160 100 q 224 74 188 74 l 383 74 m 189 726 l 189 774 l 525 774 l 525 726 l 189 726 z "},"˙":{"ha":78,"x_min":0,"x_max":78,"o":"m 38 735 q 5 744 10 735 q 0 774 0 754 q 5 806 0 797 q 38 815 10 815 q 73 806 68 815 q 78 774 78 797 q 72 744 78 754 q 38 735 67 735 z "},"̇":{"ha":0,"x_min":0,"x_max":78,"o":"m 38 735 q 5 744 10 735 q 0 774 0 754 q 5 806 0 797 q 38 815 10 815 q 73 806 68 815 q 78 774 78 797 q 72 744 78 754 q 38 735 67 735 z "},"̣":{"ha":0,"x_min":0,"x_max":78,"o":"m 38 -139 q 5 -129 10 -139 q 0 -99 0 -119 q 5 -67 0 -76 q 38 -58 10 -58 q 73 -67 68 -58 q 78 -99 78 -76 q 72 -129 78 -119 q 38 -139 67 -139 z "},"ʺ":{"ha":228,"x_min":0,"x_max":228,"o":"m 149 617 q 177 685 167 653 q 188 750 188 718 q 166 757 169 750 q 163 776 163 764 q 167 803 163 794 q 196 811 171 811 q 223 803 218 811 q 228 778 228 796 q 221 720 228 751 q 204 661 214 689 q 185 617 194 633 l 149 617 m 0 617 q 27 685 17 653 q 38 750 38 718 q 16 757 19 750 q 13 776 13 764 q 17 803 13 794 q 46 811 22 811 q 74 803 69 811 q 78 778 78 796 q 71 720 78 751 q 55 661 64 689 q 36 617 46 633 l 0 617 z "},"ǆ":{"ha":968,"x_min":68,"x_max":944,"o":"m 599 867 l 664 867 l 760 783 l 856 867 l 919 867 l 803 739 l 715 739 l 599 867 m 182 0 q 110 10 135 0 q 77 52 86 19 q 68 151 68 85 l 68 521 q 81 601 68 572 q 126 642 94 631 q 214 653 157 653 l 383 653 l 383 874 l 475 874 l 475 0 l 182 0 m 383 74 l 383 579 l 232 579 q 174 565 188 579 q 160 508 160 551 l 160 150 q 174 87 160 100 q 224 74 188 74 l 383 74 m 574 13 l 831 579 l 579 579 l 597 653 l 931 653 l 931 606 l 690 74 l 944 74 l 914 0 l 574 0 l 574 13 z "},"e":{"ha":532,"x_min":63,"x_max":469,"o":"m 258 -6 q 135 17 176 -6 q 78 74 93 39 q 63 147 63 110 l 63 507 q 78 581 63 546 q 137 638 93 615 q 267 660 181 660 q 391 638 347 660 q 452 582 435 617 q 469 508 469 547 l 469 358 l 378 353 l 378 492 q 349 563 378 538 q 267 589 319 589 q 184 564 214 589 q 154 492 154 539 l 154 164 q 183 94 154 118 q 258 69 213 69 q 347 95 317 69 q 378 172 378 121 l 378 235 l 469 243 l 469 160 q 451 77 469 115 q 388 17 433 39 q 258 -6 343 -6 m 76 314 l 76 365 l 469 365 l 469 314 l 76 314 z "},"é":{"ha":532,"x_min":63,"x_max":469,"o":"m 258 -6 q 135 17 176 -6 q 78 74 93 39 q 63 147 63 110 l 63 507 q 78 581 63 546 q 137 638 93 615 q 267 660 181 660 q 391 638 347 660 q 452 582 435 617 q 469 508 469 547 l 469 358 l 378 353 l 378 492 q 349 563 378 538 q 267 589 319 589 q 184 564 214 589 q 154 492 154 539 l 154 164 q 183 94 154 118 q 258 69 213 69 q 347 95 317 69 q 378 172 378 121 l 378 235 l 469 243 l 469 160 q 451 77 469 115 q 388 17 433 39 q 258 -6 343 -6 m 76 314 l 76 365 l 469 365 l 469 314 l 76 314 m 188 739 l 310 872 l 396 872 l 247 739 l 188 739 z "},"ĕ":{"ha":532,"x_min":63,"x_max":469,"o":"m 258 -6 q 135 17 176 -6 q 78 74 93 39 q 63 147 63 110 l 63 507 q 78 581 63 546 q 137 638 93 615 q 267 660 181 660 q 391 638 347 660 q 452 582 435 617 q 469 508 469 547 l 469 358 l 378 353 l 378 492 q 349 563 378 538 q 267 589 319 589 q 184 564 214 589 q 154 492 154 539 l 154 164 q 183 94 154 118 q 258 69 213 69 q 347 95 317 69 q 378 172 378 121 l 378 235 l 469 243 l 469 160 q 451 77 469 115 q 388 17 433 39 q 258 -6 343 -6 m 76 314 l 76 365 l 469 365 l 469 314 l 76 314 m 263 729 q 177 749 208 729 q 133 800 146 769 q 121 863 121 831 l 181 863 q 199 802 181 828 q 263 776 218 776 q 332 801 313 776 q 351 863 351 826 l 410 863 q 376 767 410 806 q 263 729 342 729 z "},"ě":{"ha":532,"x_min":63,"x_max":469,"o":"m 104 867 l 171 867 l 267 783 l 361 867 l 426 867 l 308 739 l 222 739 l 104 867 m 258 -6 q 135 17 176 -6 q 78 74 93 39 q 63 147 63 110 l 63 507 q 78 581 63 546 q 137 638 93 615 q 267 660 181 660 q 391 638 347 660 q 452 582 435 617 q 469 508 469 547 l 469 358 l 378 353 l 378 492 q 349 563 378 538 q 267 589 319 589 q 184 564 214 589 q 154 492 154 539 l 154 164 q 183 94 154 118 q 258 69 213 69 q 347 95 317 69 q 378 172 378 121 l 378 235 l 469 243 l 469 160 q 451 77 469 115 q 388 17 433 39 q 258 -6 343 -6 m 76 314 l 76 365 l 469 365 l 469 314 l 76 314 z "},"ê":{"ha":532,"x_min":63,"x_max":469,"o":"m 258 -6 q 135 17 176 -6 q 78 74 93 39 q 63 147 63 110 l 63 507 q 78 581 63 546 q 137 638 93 615 q 267 660 181 660 q 391 638 347 660 q 452 582 435 617 q 469 508 469 547 l 469 358 l 378 353 l 378 492 q 349 563 378 538 q 267 589 319 589 q 184 564 214 589 q 154 492 154 539 l 154 164 q 183 94 154 118 q 258 69 213 69 q 347 95 317 69 q 378 172 378 121 l 378 235 l 469 243 l 469 160 q 451 77 469 115 q 388 17 433 39 q 258 -6 343 -6 m 76 314 l 76 365 l 469 365 l 469 314 l 76 314 m 106 739 l 222 867 l 310 867 l 426 739 l 361 739 l 267 821 l 171 739 l 106 739 z "},"ế":{"ha":532,"x_min":63,"x_max":622,"o":"m 258 -6 q 135 17 176 -6 q 78 74 93 39 q 63 147 63 110 l 63 507 q 78 581 63 546 q 137 638 93 615 q 267 660 181 660 q 391 638 347 660 q 452 582 435 617 q 469 508 469 547 l 469 358 l 378 353 l 378 492 q 349 563 378 538 q 267 589 319 589 q 184 564 214 589 q 154 492 154 539 l 154 164 q 183 94 154 118 q 258 69 213 69 q 347 95 317 69 q 378 172 378 121 l 378 235 l 469 243 l 469 160 q 451 77 469 115 q 388 17 433 39 q 258 -6 343 -6 m 76 314 l 76 365 l 469 365 l 469 314 l 76 314 m 106 739 l 222 867 l 310 867 l 426 739 l 361 739 l 267 821 l 171 739 l 106 739 m 414 840 l 536 974 l 622 974 l 474 840 l 414 840 z "},"ệ":{"ha":532,"x_min":63,"x_max":469,"o":"m 258 -6 q 135 17 176 -6 q 78 74 93 39 q 63 147 63 110 l 63 507 q 78 581 63 546 q 137 638 93 615 q 267 660 181 660 q 391 638 347 660 q 452 582 435 617 q 469 508 469 547 l 469 358 l 378 353 l 378 492 q 349 563 378 538 q 267 589 319 589 q 184 564 214 589 q 154 492 154 539 l 154 164 q 183 94 154 118 q 258 69 213 69 q 347 95 317 69 q 378 172 378 121 l 378 235 l 469 243 l 469 160 q 451 77 469 115 q 388 17 433 39 q 258 -6 343 -6 m 76 314 l 76 365 l 469 365 l 469 314 l 76 314 m 264 -139 q 231 -129 236 -139 q 226 -99 226 -119 q 231 -67 226 -76 q 264 -58 236 -58 q 299 -67 294 -58 q 304 -99 304 -76 q 299 -129 304 -119 q 264 -139 293 -139 m 106 739 l 222 867 l 310 867 l 426 739 l 361 739 l 267 821 l 171 739 l 106 739 z "},"ề":{"ha":532,"x_min":63,"x_max":514,"o":"m 258 -6 q 135 17 176 -6 q 78 74 93 39 q 63 147 63 110 l 63 507 q 78 581 63 546 q 137 638 93 615 q 267 660 181 660 q 391 638 347 660 q 452 582 435 617 q 469 508 469 547 l 469 358 l 378 353 l 378 492 q 349 563 378 538 q 267 589 319 589 q 184 564 214 589 q 154 492 154 539 l 154 164 q 183 94 154 118 q 258 69 213 69 q 347 95 317 69 q 378 172 378 121 l 378 235 l 469 243 l 469 160 q 451 77 469 115 q 388 17 433 39 q 258 -6 343 -6 m 76 314 l 76 365 l 469 365 l 469 314 l 76 314 m 106 739 l 222 867 l 310 867 l 426 739 l 361 739 l 267 821 l 171 739 l 106 739 m 454 840 l 306 974 l 392 974 l 514 840 l 454 840 z "},"ể":{"ha":532,"x_min":63,"x_max":564,"o":"m 258 -6 q 135 17 176 -6 q 78 74 93 39 q 63 147 63 110 l 63 507 q 78 581 63 546 q 137 638 93 615 q 267 660 181 660 q 391 638 347 660 q 452 582 435 617 q 469 508 469 547 l 469 358 l 378 353 l 378 492 q 349 563 378 538 q 267 589 319 589 q 184 564 214 589 q 154 492 154 539 l 154 164 q 183 94 154 118 q 258 69 213 69 q 347 95 317 69 q 378 172 378 121 l 378 235 l 469 243 l 469 160 q 451 77 469 115 q 388 17 433 39 q 258 -6 343 -6 m 76 314 l 76 365 l 469 365 l 469 314 l 76 314 m 106 739 l 222 867 l 310 867 l 426 739 l 361 739 l 267 821 l 171 739 l 106 739 m 435 840 q 446 869 435 857 q 471 892 457 882 q 496 915 485 903 q 507 944 507 928 q 492 976 507 964 q 457 988 478 988 q 415 972 429 988 q 396 936 400 956 l 356 951 q 390 1011 361 989 q 468 1033 419 1033 q 538 1012 511 1033 q 564 956 564 990 q 553 910 564 926 q 527 883 542 893 q 501 865 513 874 q 490 840 490 856 l 435 840 z "},"ễ":{"ha":532,"x_min":63,"x_max":469,"o":"m 258 -6 q 135 17 176 -6 q 78 74 93 39 q 63 147 63 110 l 63 507 q 78 581 63 546 q 137 638 93 615 q 267 660 181 660 q 391 638 347 660 q 452 582 435 617 q 469 508 469 547 l 469 358 l 378 353 l 378 492 q 349 563 378 538 q 267 589 319 589 q 184 564 214 589 q 154 492 154 539 l 154 164 q 183 94 154 118 q 258 69 213 69 q 347 95 317 69 q 378 172 378 121 l 378 235 l 469 243 l 469 160 q 451 77 469 115 q 388 17 433 39 q 258 -6 343 -6 m 76 314 l 76 365 l 469 365 l 469 314 l 76 314 m 106 739 l 222 867 l 310 867 l 426 739 l 361 739 l 267 821 l 171 739 l 106 739 m 113 901 q 135 990 113 961 q 194 1018 158 1018 q 246 1004 225 1018 q 285 976 267 990 q 325 961 304 961 q 360 979 351 961 q 369 1018 369 997 l 415 1018 q 390 930 415 956 q 333 904 364 904 q 283 919 304 904 q 245 949 263 935 q 206 964 228 964 q 173 947 185 964 q 161 901 161 931 l 113 901 z "},"ȅ":{"ha":532,"x_min":24,"x_max":469,"o":"m 258 -6 q 135 17 176 -6 q 78 74 93 39 q 63 147 63 110 l 63 507 q 78 581 63 546 q 137 638 93 615 q 267 660 181 660 q 391 638 347 660 q 452 582 435 617 q 469 508 469 547 l 469 358 l 378 353 l 378 492 q 349 563 378 538 q 267 589 319 589 q 184 564 214 589 q 154 492 154 539 l 154 164 q 183 94 154 118 q 258 69 213 69 q 347 95 317 69 q 378 172 378 121 l 378 235 l 469 243 l 469 160 q 451 77 469 115 q 388 17 433 39 q 258 -6 343 -6 m 76 314 l 76 365 l 469 365 l 469 314 l 76 314 m 172 739 l 24 872 l 110 872 l 232 739 l 172 739 m 296 739 l 147 872 l 233 872 l 356 739 l 296 739 z "},"ë":{"ha":532,"x_min":63,"x_max":469,"o":"m 258 -6 q 135 17 176 -6 q 78 74 93 39 q 63 147 63 110 l 63 507 q 78 581 63 546 q 137 638 93 615 q 267 660 181 660 q 391 638 347 660 q 452 582 435 617 q 469 508 469 547 l 469 358 l 378 353 l 378 492 q 349 563 378 538 q 267 589 319 589 q 184 564 214 589 q 154 492 154 539 l 154 164 q 183 94 154 118 q 258 69 213 69 q 347 95 317 69 q 378 172 378 121 l 378 235 l 469 243 l 469 160 q 451 77 469 115 q 388 17 433 39 q 258 -6 343 -6 m 76 314 l 76 365 l 469 365 l 469 314 l 76 314 m 338 733 q 306 743 310 733 q 301 772 301 753 q 306 803 301 794 q 338 813 310 813 q 373 803 368 813 q 378 772 378 794 q 373 743 378 753 q 338 733 368 733 m 190 733 q 158 743 163 733 q 153 772 153 753 q 158 803 153 794 q 190 813 163 813 q 226 803 221 813 q 231 772 231 794 q 225 743 231 753 q 190 733 219 733 z "},"ė":{"ha":532,"x_min":63,"x_max":469,"o":"m 258 -6 q 135 17 176 -6 q 78 74 93 39 q 63 147 63 110 l 63 507 q 78 581 63 546 q 137 638 93 615 q 267 660 181 660 q 391 638 347 660 q 452 582 435 617 q 469 508 469 547 l 469 358 l 378 353 l 378 492 q 349 563 378 538 q 267 589 319 589 q 184 564 214 589 q 154 492 154 539 l 154 164 q 183 94 154 118 q 258 69 213 69 q 347 95 317 69 q 378 172 378 121 l 378 235 l 469 243 l 469 160 q 451 77 469 115 q 388 17 433 39 q 258 -6 343 -6 m 76 314 l 76 365 l 469 365 l 469 314 l 76 314 m 264 735 q 231 744 236 735 q 226 774 226 754 q 231 806 226 797 q 264 815 236 815 q 299 806 294 815 q 304 774 304 797 q 299 744 304 754 q 264 735 293 735 z "},"ẹ":{"ha":532,"x_min":63,"x_max":469,"o":"m 258 -6 q 135 17 176 -6 q 78 74 93 39 q 63 147 63 110 l 63 507 q 78 581 63 546 q 137 638 93 615 q 267 660 181 660 q 391 638 347 660 q 452 582 435 617 q 469 508 469 547 l 469 358 l 378 353 l 378 492 q 349 563 378 538 q 267 589 319 589 q 184 564 214 589 q 154 492 154 539 l 154 164 q 183 94 154 118 q 258 69 213 69 q 347 95 317 69 q 378 172 378 121 l 378 235 l 469 243 l 469 160 q 451 77 469 115 q 388 17 433 39 q 258 -6 343 -6 m 76 314 l 76 365 l 469 365 l 469 314 l 76 314 m 264 -139 q 231 -129 236 -139 q 226 -99 226 -119 q 231 -67 226 -76 q 264 -58 236 -58 q 299 -67 294 -58 q 304 -99 304 -76 q 299 -129 304 -119 q 264 -139 293 -139 z "},"è":{"ha":532,"x_min":63,"x_max":469,"o":"m 258 -6 q 135 17 176 -6 q 78 74 93 39 q 63 147 63 110 l 63 507 q 78 581 63 546 q 137 638 93 615 q 267 660 181 660 q 391 638 347 660 q 452 582 435 617 q 469 508 469 547 l 469 358 l 378 353 l 378 492 q 349 563 378 538 q 267 589 319 589 q 184 564 214 589 q 154 492 154 539 l 154 164 q 183 94 154 118 q 258 69 213 69 q 347 95 317 69 q 378 172 378 121 l 378 235 l 469 243 l 469 160 q 451 77 469 115 q 388 17 433 39 q 258 -6 343 -6 m 76 314 l 76 365 l 469 365 l 469 314 l 76 314 m 261 739 l 113 872 l 199 872 l 321 739 l 261 739 z "},"ẻ":{"ha":532,"x_min":63,"x_max":469,"o":"m 258 -6 q 135 17 176 -6 q 78 74 93 39 q 63 147 63 110 l 63 507 q 78 581 63 546 q 137 638 93 615 q 267 660 181 660 q 391 638 347 660 q 452 582 435 617 q 469 508 469 547 l 469 358 l 378 353 l 378 492 q 349 563 378 538 q 267 589 319 589 q 184 564 214 589 q 154 492 154 539 l 154 164 q 183 94 154 118 q 258 69 213 69 q 347 95 317 69 q 378 172 378 121 l 378 235 l 469 243 l 469 160 q 451 77 469 115 q 388 17 433 39 q 258 -6 343 -6 m 76 314 l 76 365 l 469 365 l 469 314 l 76 314 m 240 739 q 251 768 240 756 q 276 791 263 781 q 301 814 290 801 q 313 843 313 826 q 298 874 313 863 q 263 886 283 886 q 220 870 235 886 q 201 835 206 854 l 161 850 q 196 910 167 888 q 274 932 225 932 q 343 910 317 932 q 369 854 369 889 q 358 808 369 825 q 333 782 347 792 q 307 763 318 772 q 296 739 296 754 l 240 739 z "},"ȇ":{"ha":532,"x_min":63,"x_max":469,"o":"m 263 867 q 376 828 342 867 q 411 733 411 790 l 353 733 q 332 795 351 771 q 264 819 313 819 q 199 794 218 819 q 181 733 181 768 l 122 733 q 135 797 122 767 q 178 847 147 828 q 263 867 208 867 m 258 -6 q 135 17 176 -6 q 78 74 93 39 q 63 147 63 110 l 63 507 q 78 581 63 546 q 137 638 93 615 q 267 660 181 660 q 391 638 347 660 q 452 582 435 617 q 469 508 469 547 l 469 358 l 378 353 l 378 492 q 349 563 378 538 q 267 589 319 589 q 184 564 214 589 q 154 492 154 539 l 154 164 q 183 94 154 118 q 258 69 213 69 q 347 95 317 69 q 378 172 378 121 l 378 235 l 469 243 l 469 160 q 451 77 469 115 q 388 17 433 39 q 258 -6 343 -6 m 76 314 l 76 365 l 469 365 l 469 314 l 76 314 z "},"…":{"ha":606,"x_min":75,"x_max":518,"o":"m 113 3 q 79 13 83 3 q 75 43 75 22 q 79 74 75 65 q 113 83 83 83 q 147 74 142 83 q 153 43 153 65 q 147 13 153 22 q 113 3 142 3 m 296 3 q 263 13 267 3 q 258 43 258 22 q 263 74 258 65 q 296 83 267 83 q 331 74 325 83 q 336 43 336 65 q 331 13 336 22 q 296 3 325 3 m 478 3 q 444 13 449 3 q 440 43 440 22 q 444 74 440 65 q 478 83 449 83 q 513 74 507 83 q 518 43 518 65 q 513 13 518 22 q 478 3 507 3 z "},"ē":{"ha":532,"x_min":63,"x_max":469,"o":"m 258 -6 q 135 17 176 -6 q 78 74 93 39 q 63 147 63 110 l 63 507 q 78 581 63 546 q 137 638 93 615 q 267 660 181 660 q 391 638 347 660 q 452 582 435 617 q 469 508 469 547 l 469 358 l 378 353 l 378 492 q 349 563 378 538 q 267 589 319 589 q 184 564 214 589 q 154 492 154 539 l 154 164 q 183 94 154 118 q 258 69 213 69 q 347 95 317 69 q 378 172 378 121 l 378 235 l 469 243 l 469 160 q 451 77 469 115 q 388 17 433 39 q 258 -6 343 -6 m 76 314 l 76 365 l 469 365 l 469 314 l 76 314 m 108 746 l 108 804 l 425 804 l 425 746 l 108 746 z "},"—":{"ha":892,"x_min":85,"x_max":807,"o":"m 85 385 l 85 460 l 807 460 l 807 385 l 85 385 z "},"–":{"ha":654,"x_min":85,"x_max":569,"o":"m 85 385 l 85 460 l 569 460 l 569 385 l 85 385 z "},"ŋ":{"ha":728,"x_min":50,"x_max":456,"o":"m 50 653 l 125 653 l 135 585 q 195 641 157 621 q 292 661 233 661 q 397 638 363 661 q 444 583 432 615 q 456 519 456 550 l 456 0 l 364 0 l 364 486 q 335 563 364 538 q 253 588 307 588 q 182 569 207 588 q 142 521 157 550 l 142 0 l 50 0 l 50 653 m 204 -258 l 192 -185 l 303 -185 q 352 -166 340 -185 q 364 -104 364 -147 l 364 331 l 456 331 l 456 -126 q 430 -226 456 -193 q 338 -258 404 -258 l 204 -258 z "},"ę":{"ha":532,"x_min":63,"x_max":469,"o":"m 258 -6 q 135 17 176 -6 q 78 74 93 39 q 63 147 63 110 l 63 507 q 78 581 63 546 q 137 638 93 615 q 267 660 181 660 q 391 638 347 660 q 452 582 435 617 q 469 508 469 547 l 469 358 l 378 353 l 378 492 q 349 563 378 538 q 267 589 319 589 q 184 564 214 589 q 154 492 154 539 l 154 164 q 183 94 154 118 q 258 69 213 69 q 347 95 317 69 q 378 172 378 121 l 378 235 l 469 243 l 469 160 q 451 77 469 115 q 388 17 433 39 q 258 -6 343 -6 m 76 314 l 76 365 l 469 365 l 469 314 l 76 314 m 304 -235 q 226 -205 257 -235 q 194 -124 194 -175 q 224 -47 194 -87 q 324 15 254 -7 l 375 10 q 295 -40 326 -10 q 264 -112 264 -71 q 283 -165 264 -144 q 332 -186 303 -186 q 369 -181 353 -186 q 401 -160 385 -175 l 414 -201 q 360 -227 386 -219 q 304 -235 333 -235 z "},"=":{"ha":546,"x_min":72,"x_max":496,"o":"m 72 408 l 72 460 l 496 460 l 496 408 l 72 408 m 72 139 l 72 190 l 496 190 l 496 139 l 72 139 z "},"ð":{"ha":550,"x_min":72,"x_max":476,"o":"m 272 -1 q 148 15 192 -1 q 88 78 104 32 q 72 215 72 125 l 72 453 q 110 606 72 560 q 244 653 147 653 q 323 642 294 653 q 375 611 351 631 l 367 603 q 313 749 360 689 q 171 808 267 808 l 89 808 l 89 861 l 211 861 q 346 825 286 861 q 441 706 406 789 q 476 483 476 624 l 476 185 q 468 91 476 128 q 438 34 460 54 q 375 6 415 14 q 272 -1 335 -1 m 272 78 q 362 101 339 78 q 385 183 385 125 l 385 496 q 361 565 385 539 q 275 590 338 590 q 214 580 239 590 q 176 542 189 569 q 164 460 164 514 l 164 201 q 175 124 164 151 q 210 88 186 97 q 272 78 233 78 m 153 704 l 126 725 l 274 919 l 300 900 l 153 704 z "},"ẽ":{"ha":532,"x_min":63,"x_max":469,"o":"m 258 -6 q 135 17 176 -6 q 78 74 93 39 q 63 147 63 110 l 63 507 q 78 581 63 546 q 137 638 93 615 q 267 660 181 660 q 391 638 347 660 q 452 582 435 617 q 469 508 469 547 l 469 358 l 378 353 l 378 492 q 349 563 378 538 q 267 589 319 589 q 184 564 214 589 q 154 492 154 539 l 154 164 q 183 94 154 118 q 258 69 213 69 q 347 95 317 69 q 378 172 378 121 l 378 235 l 469 243 l 469 160 q 451 77 469 115 q 388 17 433 39 q 258 -6 343 -6 m 76 314 l 76 365 l 469 365 l 469 314 l 76 314 m 115 733 q 138 822 115 793 q 197 850 161 850 q 249 836 228 850 q 288 808 269 822 q 328 793 307 793 q 363 811 354 793 q 372 850 372 829 l 418 850 q 392 762 418 788 q 336 736 367 736 q 286 751 307 736 q 248 781 265 767 q 208 796 231 796 q 176 779 188 796 q 164 733 164 763 l 115 733 z "},"€":{"ha":554,"x_min":25,"x_max":504,"o":"m 303 -10 q 151 28 201 -10 q 101 139 101 67 l 101 711 q 148 832 101 793 q 299 871 194 871 q 454 833 404 871 q 504 710 504 794 l 504 588 l 411 575 l 411 688 q 389 766 411 738 q 301 794 367 794 q 217 765 238 794 q 196 689 196 736 l 196 161 q 220 94 196 121 q 301 68 244 68 q 386 94 361 68 q 411 161 411 121 l 411 271 l 504 283 l 504 140 q 451 28 504 67 q 303 -10 399 -10 m 25 332 l 25 375 l 357 375 l 333 332 l 25 332 m 25 471 l 25 514 l 438 514 l 414 471 l 25 471 z "},"!":{"ha":324,"x_min":107,"x_max":200,"o":"m 133 261 l 107 861 l 200 861 l 172 261 l 133 261 m 153 3 q 119 13 124 3 q 114 43 114 22 q 119 74 114 65 q 153 83 124 83 q 188 74 182 83 q 193 43 193 65 q 188 13 193 22 q 153 3 182 3 z "},"¡":{"ha":324,"x_min":118,"x_max":213,"o":"m 164 660 q 199 651 193 660 q 204 621 204 642 q 199 589 204 599 q 164 579 194 579 q 131 589 136 579 q 126 621 126 599 q 131 651 126 642 q 164 660 136 660 m 144 403 l 185 403 l 213 -197 l 118 -197 l 144 403 z "},"f":{"ha":317,"x_min":32,"x_max":343,"o":"m 92 601 l 32 601 l 32 653 l 92 653 l 92 758 q 119 841 92 818 q 218 864 146 864 l 343 864 l 343 813 l 260 813 q 199 798 214 813 q 185 742 185 783 l 185 653 l 304 653 l 297 601 l 185 601 l 185 0 l 92 0 l 92 601 z "},"ﬁ":{"ha":572,"x_min":32,"x_max":517,"o":"m 92 601 l 32 601 l 32 653 l 92 653 l 92 758 q 119 841 92 818 q 218 864 146 864 l 346 864 l 346 813 l 263 813 q 203 798 218 813 q 189 742 189 783 l 189 653 l 461 653 l 454 601 l 189 601 l 189 0 l 92 0 l 92 601 m 425 653 l 517 653 l 517 0 l 425 0 l 425 653 z "},"ﬂ":{"ha":583,"x_min":32,"x_max":508,"o":"m 92 601 l 32 601 l 32 653 l 92 653 l 92 758 q 119 842 92 818 q 218 864 146 865 l 507 861 l 461 813 l 263 813 q 203 798 218 813 q 189 742 189 783 l 189 653 l 308 653 l 300 601 l 189 601 l 189 0 l 92 0 l 92 601 m 417 861 l 508 861 l 508 0 l 417 0 l 417 861 z "},"ƒ":{"ha":431,"x_min":-99,"x_max":408,"o":"m -86 -242 l -99 -168 l -10 -168 q 41 -149 28 -168 q 58 -87 54 -131 l 131 601 l 71 601 l 76 653 l 136 653 l 147 758 q 165 822 151 799 q 208 854 179 844 q 283 864 236 864 l 408 864 l 401 813 l 319 813 q 258 798 275 813 q 238 742 242 783 l 228 653 l 349 653 l 335 601 l 224 601 l 149 -110 q 112 -210 142 -178 q 15 -242 82 -242 l -86 -242 z "},"⁴":{"ha":429,"x_min":6,"x_max":424,"o":"m 253 319 l 254 429 l 40 429 l 6 482 l 240 879 l 346 879 l 344 482 l 424 482 l 413 429 l 344 429 l 346 319 l 253 319 m 92 482 l 257 482 l 257 781 l 92 482 z "},"⁄":{"ha":224,"x_min":-176,"x_max":429,"o":"m -176 -61 l 353 875 l 429 875 l -103 -61 l -176 -61 z "},"₣":{"ha":522,"x_min":0,"x_max":490,"o":"m 0 207 l 0 264 l 326 264 l 326 207 l 0 207 m 94 861 l 490 861 l 490 788 l 189 788 l 189 518 l 467 518 l 453 444 l 189 444 l 189 0 l 94 0 l 94 861 z "},"g":{"ha":550,"x_min":68,"x_max":475,"o":"m 142 -242 l 129 -168 l 321 -168 q 372 -149 360 -168 q 383 -87 383 -131 l 383 579 l 229 579 q 180 569 194 579 q 163 540 165 560 q 160 483 160 519 l 160 168 q 164 109 160 129 q 181 81 168 89 q 222 74 194 74 l 343 74 l 333 0 l 175 0 q 101 15 124 0 q 74 69 79 31 q 68 178 68 107 l 68 515 q 81 599 68 569 q 126 641 93 629 q 221 653 158 653 l 475 653 l 475 -110 q 449 -210 475 -178 q 356 -242 422 -242 l 142 -242 z "},"ğ":{"ha":550,"x_min":68,"x_max":475,"o":"m 142 -242 l 129 -168 l 321 -168 q 372 -149 360 -168 q 383 -87 383 -131 l 383 579 l 229 579 q 180 569 194 579 q 163 540 165 560 q 160 483 160 519 l 160 168 q 164 109 160 129 q 181 81 168 89 q 222 74 194 74 l 343 74 l 333 0 l 175 0 q 101 15 124 0 q 74 69 79 31 q 68 178 68 107 l 68 515 q 81 599 68 569 q 126 641 93 629 q 221 653 158 653 l 475 653 l 475 -110 q 449 -210 475 -178 q 356 -242 422 -242 l 142 -242 m 272 729 q 187 749 218 729 q 143 800 156 769 q 131 863 131 831 l 190 863 q 209 802 190 828 q 272 776 228 776 q 342 801 322 776 q 361 863 361 826 l 419 863 q 385 767 419 806 q 272 729 351 729 z "},"ǧ":{"ha":550,"x_min":68,"x_max":475,"o":"m 114 867 l 179 867 l 275 783 l 371 867 l 435 867 l 318 739 l 231 739 l 114 867 m 142 -242 l 129 -168 l 321 -168 q 372 -149 360 -168 q 383 -87 383 -131 l 383 579 l 229 579 q 180 569 194 579 q 163 540 165 560 q 160 483 160 519 l 160 168 q 164 109 160 129 q 181 81 168 89 q 222 74 194 74 l 343 74 l 333 0 l 175 0 q 101 15 124 0 q 74 69 79 31 q 68 178 68 107 l 68 515 q 81 599 68 569 q 126 641 93 629 q 221 653 158 653 l 475 653 l 475 -110 q 449 -210 475 -178 q 356 -242 422 -242 l 142 -242 z "},"ĝ":{"ha":550,"x_min":68,"x_max":475,"o":"m 142 -242 l 129 -168 l 321 -168 q 372 -149 360 -168 q 383 -87 383 -131 l 383 579 l 229 579 q 180 569 194 579 q 163 540 165 560 q 160 483 160 519 l 160 168 q 164 109 160 129 q 181 81 168 89 q 222 74 194 74 l 343 74 l 333 0 l 175 0 q 101 15 124 0 q 74 69 79 31 q 68 178 68 107 l 68 515 q 81 599 68 569 q 126 641 93 629 q 221 653 158 653 l 475 653 l 475 -110 q 449 -210 475 -178 q 356 -242 422 -242 l 142 -242 m 114 739 l 231 867 l 318 867 l 435 739 l 369 739 l 275 821 l 179 739 l 114 739 z "},"ģ":{"ha":550,"x_min":68,"x_max":475,"o":"m 142 -242 l 129 -168 l 321 -168 q 372 -149 360 -168 q 383 -87 383 -131 l 383 579 l 229 579 q 180 569 194 579 q 163 540 165 560 q 160 483 160 519 l 160 168 q 164 109 160 129 q 181 81 168 89 q 222 74 194 74 l 343 74 l 333 0 l 175 0 q 101 15 124 0 q 74 69 79 31 q 68 178 68 107 l 68 515 q 81 599 68 569 q 126 641 93 629 q 221 653 158 653 l 475 653 l 475 -110 q 449 -210 475 -178 q 356 -242 422 -242 l 142 -242 m 271 739 q 242 745 250 739 q 235 765 235 751 q 243 816 235 788 q 265 871 251 844 q 290 913 278 897 l 336 913 q 300 851 314 879 q 285 793 286 822 q 308 788 303 793 q 313 775 313 783 q 305 747 313 756 q 271 739 297 739 z "},"ġ":{"ha":550,"x_min":68,"x_max":475,"o":"m 142 -242 l 129 -168 l 321 -168 q 372 -149 360 -168 q 383 -87 383 -131 l 383 579 l 229 579 q 180 569 194 579 q 163 540 165 560 q 160 483 160 519 l 160 168 q 164 109 160 129 q 181 81 168 89 q 222 74 194 74 l 343 74 l 333 0 l 175 0 q 101 15 124 0 q 74 69 79 31 q 68 178 68 107 l 68 515 q 81 599 68 569 q 126 641 93 629 q 221 653 158 653 l 475 653 l 475 -110 q 449 -210 475 -178 q 356 -242 422 -242 l 142 -242 m 272 735 q 240 744 244 735 q 235 774 235 754 q 240 806 235 797 q 272 815 244 815 q 308 806 303 815 q 313 774 313 797 q 307 744 313 754 q 272 735 301 735 z "},"ß":{"ha":660,"x_min":-57,"x_max":607,"o":"m -36 -242 l -57 -168 l 31 -168 q 81 -149 69 -168 q 93 -87 93 -131 l 92 601 l 32 601 l 32 653 l 92 653 l 92 746 q 121 840 92 815 q 235 864 150 864 l 336 864 q 420 853 389 864 q 465 813 451 842 q 478 726 478 783 l 478 661 q 469 630 478 640 q 439 610 461 619 q 386 589 404 606 q 362 548 368 572 q 356 496 356 524 q 365 429 356 451 q 411 388 375 407 q 472 353 447 367 q 514 331 496 340 q 575 287 556 310 q 601 236 594 264 q 607 171 607 208 l 607 156 q 566 33 607 74 q 411 -8 525 -8 q 270 33 313 -8 q 228 147 228 74 l 228 240 l 310 251 l 310 151 q 318 104 310 126 q 349 68 326 82 q 414 54 372 54 q 494 74 465 54 q 524 151 524 93 q 520 214 524 190 q 503 254 517 238 q 458 288 490 271 q 409 315 439 300 q 354 344 379 331 q 303 381 321 363 q 278 427 285 400 q 271 496 271 454 q 297 610 271 568 q 386 658 324 651 l 386 729 q 365 797 385 782 q 296 813 346 813 l 278 813 q 202 797 219 813 q 185 729 185 781 l 185 -110 q 159 -210 185 -178 q 65 -242 133 -242 l -36 -242 z "},"`":{"ha":208,"x_min":0,"x_max":208,"o":"m 149 739 l 0 872 l 86 872 l 208 739 l 149 739 z "},"̀":{"ha":0,"x_min":0,"x_max":208,"o":"m 149 739 l 0 872 l 86 872 l 208 739 l 149 739 z "},">":{"ha":529,"x_min":122,"x_max":465,"o":"m 122 164 l 122 240 l 411 453 l 122 668 l 122 744 l 465 483 l 465 422 l 122 164 z "},"≥":{"ha":558,"x_min":106,"x_max":449,"o":"m 106 164 l 106 240 l 393 453 l 106 668 l 106 744 l 449 483 l 449 422 l 106 164 m 106 -17 l 106 38 l 449 38 l 449 -17 l 106 -17 z "},"₲":{"ha":490,"x_min":42,"x_max":449,"o":"m 250 -6 q 135 7 182 -6 q 65 49 89 19 q 42 131 42 79 l 42 729 q 94 839 42 810 q 247 868 147 868 q 397 839 344 868 q 449 728 449 810 l 449 586 l 371 579 l 371 710 q 342 776 371 760 q 250 792 313 792 q 156 776 188 792 q 125 711 125 761 l 125 144 q 140 97 125 113 q 184 76 156 82 q 250 71 213 71 q 311 76 286 71 q 349 97 336 82 q 363 144 363 113 l 363 383 l 242 383 l 250 463 l 449 463 l 449 131 q 425 49 449 79 q 358 7 401 19 q 250 -6 314 -6 m 200 -118 l 267 947 l 292 947 l 224 -118 l 200 -118 z "},"«":{"ha":733,"x_min":89,"x_max":644,"o":"m 560 69 l 381 326 l 565 594 l 644 594 l 460 326 l 638 69 l 560 69 m 268 69 l 89 326 l 275 594 l 353 594 l 168 326 l 346 69 l 268 69 z "},"»":{"ha":711,"x_min":78,"x_max":633,"o":"m 376 69 l 554 326 l 369 594 l 447 594 l 633 326 l 454 69 l 376 69 m 85 69 l 263 326 l 78 594 l 157 594 l 342 326 l 163 69 l 85 69 z "},"‹":{"ha":442,"x_min":89,"x_max":353,"o":"m 268 69 l 89 326 l 275 594 l 353 594 l 168 326 l 346 69 l 268 69 z "},"›":{"ha":442,"x_min":89,"x_max":353,"o":"m 96 69 l 274 326 l 89 594 l 168 594 l 353 326 l 174 69 l 96 69 z "},"h":{"ha":549,"x_min":75,"x_max":481,"o":"m 75 874 l 167 874 l 167 586 q 224 640 189 621 q 317 658 260 658 q 422 636 386 658 q 469 581 457 614 q 481 518 481 549 l 481 0 l 389 0 l 389 488 q 360 564 389 540 q 278 588 331 588 q 206 569 232 588 q 167 522 181 551 l 167 0 l 75 0 l 75 874 z "},"ħ":{"ha":549,"x_min":17,"x_max":481,"o":"m 17 733 l 17 769 l 275 769 l 275 733 l 17 733 m 75 874 l 167 874 l 167 586 q 224 640 189 621 q 317 658 260 658 q 422 636 386 658 q 469 581 457 614 q 481 518 481 549 l 481 0 l 389 0 l 389 488 q 360 564 389 540 q 278 588 331 588 q 206 569 232 588 q 167 522 181 551 l 167 0 l 75 0 l 75 874 z "},"ĥ":{"ha":549,"x_min":-43,"x_max":481,"o":"m 75 874 l 167 874 l 167 586 q 224 640 189 621 q 317 658 260 658 q 422 636 386 658 q 469 581 457 614 q 481 518 481 549 l 481 0 l 389 0 l 389 488 q 360 564 389 540 q 278 588 331 588 q 206 569 232 588 q 167 522 181 551 l 167 0 l 75 0 l 75 874 m -42 961 l 75 1089 l 163 1089 l 279 961 l 214 961 l 119 1043 l 24 961 l -42 961 z "},"̉":{"ha":0,"x_min":0,"x_max":208,"o":"m 79 739 q 90 768 79 756 q 115 791 101 781 q 140 814 129 801 q 151 843 151 826 q 137 874 151 863 q 101 886 122 886 q 59 870 74 886 q 40 835 44 854 l 0 850 q 35 910 6 888 q 113 932 64 932 q 182 910 156 932 q 208 854 208 889 q 197 808 208 825 q 172 782 186 792 q 146 763 157 772 q 135 739 135 754 l 79 739 z "},"̛":{"ha":0,"x_min":0,"x_max":128,"o":"m 6 619 l 0 653 q 59 669 43 653 q 74 722 75 686 l 128 722 q 101 645 128 671 q 6 619 74 619 z "},"˝":{"ha":271,"x_min":0,"x_max":271,"o":"m 0 739 l 56 872 l 140 872 l 60 739 l 0 739 m 129 739 l 185 872 l 271 872 l 189 739 l 129 739 z "},"̋":{"ha":0,"x_min":0,"x_max":271,"o":"m 0 739 l 56 872 l 140 872 l 60 739 l 0 739 m 129 739 l 185 872 l 271 872 l 189 739 l 129 739 z "},"-":{"ha":554,"x_min":85,"x_max":469,"o":"m 85 385 l 85 460 l 469 460 l 469 385 l 85 385 z "},"‐":{"ha":554,"x_min":85,"x_max":469,"o":"m 85 385 l 85 460 l 469 460 l 469 385 l 85 385 z "},"i":{"ha":240,"x_min":68,"x_max":172,"o":"m 75 0 l 75 653 l 167 653 l 167 0 l 75 0 m 119 736 q 77 745 86 736 q 68 781 68 754 q 77 817 68 807 q 119 826 86 826 q 163 817 153 826 q 172 781 172 807 q 163 745 172 754 q 119 736 153 736 z "},"í":{"ha":242,"x_min":43,"x_max":250,"o":"m 75 653 l 167 653 l 167 0 l 75 0 l 75 653 m 43 739 l 165 872 l 251 872 l 103 739 l 43 739 z "},"ĭ":{"ha":242,"x_min":-24,"x_max":265,"o":"m 75 653 l 167 653 l 167 0 l 75 0 l 75 653 m 118 729 q 33 749 64 729 q -11 800 1 769 q -24 863 -24 831 l 36 863 q 55 802 36 828 q 118 776 74 776 q 188 801 168 776 q 207 863 207 826 l 265 863 q 231 767 265 806 q 118 729 197 729 z "},"ǐ":{"ha":242,"x_min":-40,"x_max":281,"o":"m -40 867 l 26 867 l 121 783 l 217 867 l 281 867 l 164 739 l 76 739 l -40 867 m 75 653 l 167 653 l 167 0 l 75 0 l 75 653 z "},"î":{"ha":242,"x_min":-40,"x_max":281,"o":"m 75 653 l 167 653 l 167 0 l 75 0 l 75 653 m -40 739 l 76 867 l 164 867 l 281 739 l 215 739 l 121 821 l 25 739 l -40 739 z "},"ȉ":{"ha":242,"x_min":-122,"x_max":210,"o":"m 75 653 l 167 653 l 167 0 l 75 0 l 75 653 m 26 739 l -122 872 l -36 872 l 86 739 l 26 739 m 150 739 l 1 872 l 88 872 l 210 739 l 150 739 z "},"ï":{"ha":242,"x_min":7,"x_max":233,"o":"m 75 653 l 167 653 l 167 0 l 75 0 l 75 653 m 192 733 q 160 743 164 733 q 156 772 156 753 q 160 803 156 794 q 192 813 164 813 q 227 803 222 813 q 232 772 232 794 q 227 743 232 753 q 192 733 222 733 m 44 733 q 12 743 17 733 q 7 772 7 753 q 12 803 7 794 q 44 813 17 813 q 80 803 75 813 q 85 772 85 794 q 79 743 85 753 q 44 733 74 733 z "},"ị":{"ha":240,"x_min":68,"x_max":172,"o":"m 75 0 l 75 653 l 167 653 l 167 0 l 75 0 m 119 736 q 77 745 86 736 q 68 781 68 754 q 77 817 68 807 q 119 826 86 826 q 163 817 153 826 q 172 781 172 807 q 163 745 172 754 q 119 736 153 736 m 118 -139 q 85 -129 90 -139 q 81 -99 81 -119 q 85 -67 81 -76 q 118 -58 90 -58 q 153 -67 149 -58 q 158 -99 158 -76 q 153 -129 158 -119 q 118 -139 147 -139 z "},"ı":{"ha":242,"x_min":75,"x_max":167,"o":"m 75 653 l 167 653 l 167 0 l 75 0 l 75 653 z "},"ì":{"ha":242,"x_min":-32,"x_max":176,"o":"m 75 653 l 167 653 l 167 0 l 75 0 l 75 653 m 117 739 l -32 872 l 54 872 l 176 739 l 117 739 z "},"ỉ":{"ha":242,"x_min":15,"x_max":225,"o":"m 75 653 l 167 653 l 167 0 l 75 0 l 75 653 m 94 739 q 106 768 94 756 q 131 791 117 781 q 156 814 144 801 q 167 843 167 826 q 152 874 167 863 q 117 886 138 886 q 74 870 89 886 q 56 835 60 854 l 15 850 q 50 910 21 888 q 128 932 79 932 q 197 910 171 932 q 224 854 224 889 q 213 808 224 825 q 187 782 201 792 q 161 763 172 772 q 150 739 150 754 l 94 739 z "},"ȋ":{"ha":242,"x_min":-24,"x_max":265,"o":"m 117 867 q 231 828 197 867 q 265 733 265 790 l 207 733 q 187 795 207 771 q 118 819 167 819 q 54 794 74 819 q 35 733 35 768 l -24 733 q -11 797 -24 767 q 33 847 1 828 q 117 867 64 867 m 75 653 l 167 653 l 167 0 l 75 0 l 75 653 z "},"ī":{"ha":242,"x_min":-37,"x_max":279,"o":"m 75 653 l 167 653 l 167 0 l 75 0 l 75 653 m -37 746 l -37 804 l 279 804 l 279 746 l -37 746 z "},"∆":{"ha":738,"x_min":39,"x_max":699,"o":"m 39 0 l 318 832 l 426 832 l 699 0 l 39 0 m 574 60 l 347 757 l 117 60 l 574 60 z "},"∞":{"ha":1126,"x_min":72,"x_max":1054,"o":"m 275 104 q 121 165 169 104 q 72 344 72 225 q 121 525 72 464 q 275 586 169 586 q 371 563 326 586 q 452 506 415 540 q 517 439 489 472 q 564 385 546 406 q 608 438 582 404 q 670 505 635 471 q 749 563 706 539 q 846 586 793 586 q 1005 525 956 586 q 1054 344 1054 464 q 1003 165 1054 225 q 846 104 953 104 q 753 126 796 104 q 674 178 710 147 q 610 242 638 210 q 564 294 582 274 q 517 240 544 272 q 452 176 489 207 q 371 125 415 146 q 275 104 326 104 m 301 181 q 410 222 354 181 q 521 335 467 264 q 452 415 486 376 q 382 480 418 454 q 301 506 346 506 q 199 464 229 506 q 168 343 168 422 q 199 222 168 263 q 301 181 229 181 m 819 185 q 921 223 883 185 q 958 346 958 261 q 921 470 958 432 q 819 508 883 508 q 751 490 782 508 q 694 443 721 471 q 647 387 668 415 q 608 338 626 358 q 650 292 626 318 q 701 241 674 265 q 759 201 729 217 q 819 185 789 185 z "},"∫":{"ha":431,"x_min":-99,"x_max":408,"o":"m -86 -242 l -99 -168 l -10 -168 q 41 -149 28 -168 q 58 -87 54 -131 l 147 758 q 165 822 151 799 q 208 854 179 844 q 283 864 236 864 l 408 864 l 401 813 l 319 813 q 258 798 275 813 q 238 742 242 783 l 149 -110 q 112 -210 142 -178 q 15 -242 82 -242 l -86 -242 z "},"į":{"ha":242,"x_min":-51,"x_max":168,"o":"m 75 653 l 167 653 l 167 0 l 75 0 l 75 653 m 118 735 q 85 744 90 735 q 81 774 81 754 q 85 806 81 797 q 118 815 90 815 q 153 806 149 815 q 158 774 158 797 q 153 744 158 754 q 118 735 147 735 m 58 -236 q -20 -206 11 -236 q -51 -125 -51 -176 q -22 -49 -51 -89 q 78 14 8 -8 l 129 8 q 49 -42 81 -11 q 18 -114 18 -72 q 38 -167 18 -146 q 86 -187 57 -187 q 123 -182 107 -187 q 156 -161 139 -176 l 168 -203 q 114 -228 140 -221 q 58 -236 88 -236 z "},"ĩ":{"ha":242,"x_min":-31,"x_max":272,"o":"m 75 653 l 167 653 l 167 0 l 75 0 l 75 653 m -31 733 q -8 822 -31 793 q 51 850 15 850 q 103 836 82 850 q 142 808 124 822 q 182 793 161 793 q 217 811 208 793 q 226 850 226 829 l 272 850 q 247 762 272 788 q 190 736 221 736 q 140 751 161 736 q 102 781 119 767 q 63 796 85 796 q 30 779 42 796 q 18 733 18 763 l -31 733 z "},"j":{"ha":279,"x_min":-60,"x_max":210,"o":"m -47 -242 l -60 -168 l 51 -168 q 101 -149 89 -168 q 113 -87 113 -131 l 113 653 l 204 653 l 204 -110 q 178 -210 204 -178 q 85 -242 153 -242 l -47 -242 m 158 736 q 115 745 125 736 q 106 781 106 754 q 115 817 106 807 q 158 826 125 826 q 201 817 192 826 q 210 781 210 807 q 201 745 210 754 q 158 736 192 736 z "},"ĵ":{"ha":272,"x_min":-60,"x_max":317,"o":"m -49 -242 l -60 -168 l 50 -168 q 99 -149 88 -168 q 111 -87 111 -131 l 111 653 l 203 653 l 203 -110 q 177 -210 203 -178 q 85 -242 151 -242 l -49 -242 m -4 739 l 113 867 l 200 867 l 317 739 l 251 739 l 157 821 l 61 739 l -4 739 z "},"ȷ":{"ha":272,"x_min":-60,"x_max":203,"o":"m -49 -242 l -60 -168 l 50 -168 q 99 -149 88 -168 q 111 -87 111 -131 l 111 653 l 203 653 l 203 -110 q 177 -210 203 -178 q 85 -242 151 -242 l -49 -242 z "},"k":{"ha":497,"x_min":75,"x_max":504,"o":"m 75 0 l 75 869 l 167 869 l 167 0 l 75 0 m 399 0 l 203 300 l 128 300 l 128 369 l 203 369 l 378 669 l 464 636 l 285 343 l 504 0 l 399 0 z "},"ķ":{"ha":497,"x_min":75,"x_max":504,"o":"m 75 0 l 75 869 l 167 869 l 167 0 l 75 0 m 399 0 l 203 300 l 128 300 l 128 369 l 203 369 l 378 669 l 464 636 l 285 343 l 504 0 l 399 0 m 221 -233 q 255 -171 242 -200 q 268 -114 268 -142 q 242 -107 247 -114 q 238 -89 238 -100 q 243 -65 238 -72 q 279 -58 249 -58 q 310 -65 306 -58 q 315 -87 315 -71 q 308 -140 315 -111 q 290 -192 301 -168 q 265 -233 278 -217 l 221 -233 z "},"ĸ":{"ha":504,"x_min":50,"x_max":479,"o":"m 50 0 l 50 756 l 142 756 l 142 0 l 50 0 m 103 300 l 103 369 l 188 369 l 188 300 l 103 300 m 374 0 l 161 335 l 344 653 l 447 653 l 260 343 l 479 0 l 374 0 z "},"₭":{"ha":569,"x_min":3,"x_max":549,"o":"m 3 436 l 3 499 l 549 499 l 549 436 l 3 436 m 446 -15 l 193 464 l 432 869 l 503 826 l 290 469 l 531 28 l 446 -15 m 96 861 l 190 861 l 190 0 l 96 0 l 96 861 z "},"l":{"ha":242,"x_min":75,"x_max":167,"o":"m 75 869 l 167 869 l 167 0 l 75 0 l 75 869 z "},"ĺ":{"ha":242,"x_min":43,"x_max":250,"o":"m 75 869 l 167 869 l 167 0 l 75 0 l 75 869 m 43 961 l 165 1094 l 251 1094 l 103 961 l 43 961 z "},"ľ":{"ha":242,"x_min":75,"x_max":333,"o":"m 75 869 l 167 869 l 167 0 l 75 0 l 75 869 m 242 699 l 274 899 l 333 899 l 282 699 l 242 699 z "},"ļ":{"ha":242,"x_min":68,"x_max":167,"o":"m 75 869 l 167 869 l 167 0 l 75 0 l 75 869 m 68 -233 q 102 -171 89 -200 q 115 -114 115 -142 q 90 -107 94 -114 q 85 -89 85 -100 q 90 -65 85 -72 q 126 -58 96 -58 q 158 -65 153 -58 q 163 -87 163 -71 q 156 -140 163 -111 q 137 -192 149 -168 q 113 -233 125 -217 l 68 -233 z "},"ŀ":{"ha":225,"x_min":75,"x_max":289,"o":"m 75 869 l 167 869 l 167 0 l 75 0 l 75 869 m 249 322 q 215 332 219 322 q 211 363 211 342 q 215 394 211 385 q 249 403 219 403 q 283 394 278 403 q 289 363 289 385 q 283 332 289 342 q 249 322 278 322 z "},"⟨":{"ha":401,"x_min":146,"x_max":256,"o":"m 194 122 l 146 594 l 208 594 l 254 122 l 194 122 m 147 221 l 193 685 l 256 685 l 207 221 l 147 221 z "},"<":{"ha":529,"x_min":64,"x_max":407,"o":"m 407 164 l 64 422 l 64 483 l 407 744 l 407 668 l 119 453 l 407 240 l 407 164 z "},"≤":{"ha":558,"x_min":121,"x_max":464,"o":"m 464 164 l 121 422 l 121 483 l 464 744 l 464 668 l 175 453 l 464 240 l 464 164 m 131 -17 l 131 38 l 460 38 l 460 -17 l 131 -17 z "},"₤":{"ha":615,"x_min":68,"x_max":549,"o":"m 426 -3 q 346 3 396 -3 q 243 16 296 10 q 151 22 190 22 q 101 17 122 22 q 68 4 81 13 l 68 39 q 149 172 125 100 q 172 351 172 244 q 158 485 172 424 q 128 599 143 546 q 114 697 114 651 q 167 832 114 790 q 310 874 219 874 q 454 831 403 874 q 506 685 506 788 l 506 625 l 411 625 l 411 676 q 381 788 411 758 q 306 817 350 817 q 233 789 261 817 q 206 708 206 761 q 220 608 206 663 q 249 490 235 554 q 263 347 263 426 q 238 172 263 236 q 172 79 213 108 q 188 79 179 79 q 206 79 196 79 q 259 74 231 79 q 316 65 288 69 q 367 61 344 61 q 426 83 403 61 q 450 164 450 104 l 450 239 l 549 256 l 549 169 q 540 82 549 121 q 506 21 532 43 q 426 -3 479 -1 m 68 276 l 78 319 l 394 319 l 385 276 l 68 276 m 68 394 l 78 438 l 399 438 l 389 394 l 68 394 z "},"₺":{"ha":601,"x_min":22,"x_max":546,"o":"m 192 4 q 142 21 160 4 q 125 78 125 38 l 125 861 l 219 861 l 219 124 q 228 90 219 99 q 254 81 238 81 l 303 81 q 390 90 358 82 q 437 122 422 99 q 451 188 451 144 l 451 493 l 546 529 l 546 175 q 488 40 546 76 q 307 4 429 4 l 192 4 m 22 303 l 22 354 l 351 425 l 351 374 l 22 303 m 22 482 l 22 535 l 351 604 l 351 553 l 22 482 z "},"ǉ":{"ha":521,"x_min":75,"x_max":451,"o":"m 75 869 l 167 869 l 167 0 l 75 0 l 75 869 m 194 -242 l 182 -168 l 293 -168 q 342 -149 331 -168 q 354 -87 354 -131 l 354 653 l 446 653 l 446 -110 q 420 -210 446 -178 q 326 -242 394 -242 l 194 -242 m 400 736 q 357 745 367 736 q 347 781 347 754 q 357 817 347 807 q 400 826 367 826 q 442 817 433 826 q 451 781 451 807 q 442 745 451 754 q 400 736 433 736 z "},"¬":{"ha":857,"x_min":58,"x_max":797,"o":"m 706 88 l 706 397 l 58 397 l 58 463 l 797 463 l 797 88 l 706 88 z "},"◊":{"ha":721,"x_min":90,"x_max":631,"o":"m 342 0 l 90 449 l 343 893 l 383 893 l 631 449 l 382 0 l 342 0 m 363 97 l 563 449 l 363 796 l 161 449 l 363 97 z "},"ł":{"ha":367,"x_min":33,"x_max":335,"o":"m 121 869 l 213 869 l 213 0 l 121 0 l 121 869 m 53 278 l 33 350 l 315 425 l 335 353 l 53 278 z "},"m":{"ha":863,"x_min":75,"x_max":794,"o":"m 75 0 l 75 654 l 149 654 l 158 586 q 219 643 181 624 q 317 663 258 663 q 407 647 374 663 q 457 607 440 632 q 478 554 474 582 l 457 538 q 494 615 467 588 q 558 652 521 642 q 631 663 594 663 q 736 640 701 663 q 783 585 771 618 q 794 521 794 551 l 794 0 l 703 0 l 703 489 q 672 565 703 542 q 592 589 642 589 q 513 565 546 589 q 481 489 481 542 l 481 0 l 389 0 l 389 492 q 359 566 389 543 q 278 589 329 589 q 206 570 232 589 q 167 522 181 551 l 167 0 l 75 0 z "},"¯":{"ha":317,"x_min":0,"x_max":317,"o":"m 0 746 l 0 804 l 317 804 l 317 746 l 0 746 z "},"̱":{"ha":0,"x_min":0,"x_max":338,"o":"m 0 -126 l 0 -68 l 338 -68 l 338 -126 l 0 -126 z "},"̄":{"ha":0,"x_min":0,"x_max":317,"o":"m 0 746 l 0 804 l 317 804 l 317 746 l 0 746 z "},"₼":{"ha":633,"x_min":44,"x_max":589,"o":"m 44 8 l 86 746 q 151 848 90 819 q 317 876 213 876 q 484 848 425 876 q 547 746 543 819 l 589 8 l 496 8 l 454 715 q 443 757 453 738 q 405 789 433 776 q 317 801 376 801 q 231 790 260 801 q 192 758 201 778 q 181 715 182 738 l 139 8 l 44 8 m 301 650 l 308 950 l 335 500 l 324 200 l 301 650 z "},"µ":{"ha":522,"x_min":50,"x_max":456,"o":"m 214 0 q 109 21 144 0 q 62 72 74 42 q 50 133 50 103 l 50 653 l 142 653 l 142 172 q 171 97 142 119 q 253 74 200 74 l 364 74 l 364 653 l 456 653 l 456 0 l 214 0 m 168 -242 q 76 -210 101 -242 q 50 -110 50 -178 l 50 653 l 142 653 l 142 -87 q 154 -149 142 -131 q 203 -168 167 -168 l 217 -168 l 204 -242 l 168 -242 z "},"−":{"ha":583,"x_min":72,"x_max":513,"o":"m 72 408 l 72 460 l 513 460 l 513 408 l 72 408 z "},"′":{"ha":269,"x_min":89,"x_max":179,"o":"m 103 588 l 89 885 l 179 885 l 167 588 l 103 588 z "},"μ":{"ha":522,"x_min":50,"x_max":456,"o":"m 214 0 q 109 21 144 0 q 62 72 74 42 q 50 133 50 103 l 50 653 l 142 653 l 142 172 q 171 97 142 119 q 253 74 200 74 l 364 74 l 364 653 l 456 653 l 456 0 l 214 0 m 168 -242 q 76 -210 101 -242 q 50 -110 50 -178 l 50 653 l 142 653 l 142 -87 q 154 -149 142 -131 q 203 -168 167 -168 l 217 -168 l 204 -242 l 168 -242 z "},"×":{"ha":517,"x_min":81,"x_max":438,"o":"m 89 558 l 126 596 l 438 283 l 400 247 l 89 558 m 117 243 l 81 279 l 392 592 l 429 554 l 117 243 z "},"n":{"ha":549,"x_min":75,"x_max":481,"o":"m 75 654 l 149 654 l 158 586 q 219 642 179 621 q 317 664 258 664 q 439 628 397 664 q 481 521 481 592 l 481 0 l 389 0 l 389 490 q 359 565 389 542 q 278 588 329 588 q 207 569 233 588 q 167 522 181 551 l 167 0 l 75 0 l 75 654 z "},"ń":{"ha":549,"x_min":75,"x_max":481,"o":"m 75 654 l 149 654 l 158 586 q 219 642 179 621 q 317 664 258 664 q 439 628 397 664 q 481 521 481 592 l 481 0 l 389 0 l 389 490 q 359 565 389 542 q 278 588 329 588 q 207 569 233 588 q 167 522 181 551 l 167 0 l 75 0 l 75 654 m 197 739 l 319 872 l 406 872 l 257 739 l 197 739 z "},"₦":{"ha":586,"x_min":26,"x_max":561,"o":"m 81 0 l 81 861 l 175 861 l 408 189 l 408 861 l 503 861 l 503 0 l 404 0 l 174 629 l 174 0 l 81 0 m 26 350 l 32 379 l 561 379 l 554 350 l 26 350 m 26 464 l 32 494 l 561 494 l 554 464 l 26 464 z "},"ň":{"ha":549,"x_min":75,"x_max":481,"o":"m 114 867 l 181 867 l 276 783 l 371 867 l 436 867 l 318 739 l 232 739 l 114 867 m 75 654 l 149 654 l 158 586 q 219 642 179 621 q 317 664 258 664 q 439 628 397 664 q 481 521 481 592 l 481 0 l 389 0 l 389 490 q 359 565 389 542 q 278 588 329 588 q 207 569 233 588 q 167 522 181 551 l 167 0 l 75 0 l 75 654 z "},"ņ":{"ha":549,"x_min":75,"x_max":481,"o":"m 75 654 l 149 654 l 158 586 q 219 642 179 621 q 317 664 258 664 q 439 628 397 664 q 481 521 481 592 l 481 0 l 389 0 l 389 490 q 359 565 389 542 q 278 588 329 588 q 207 569 233 588 q 167 522 181 551 l 167 0 l 75 0 l 75 654 m 222 -233 q 256 -171 243 -200 q 269 -114 269 -142 q 244 -107 249 -114 q 239 -89 239 -100 q 244 -65 239 -72 q 281 -58 250 -58 q 312 -65 307 -58 q 317 -87 317 -71 q 310 -140 317 -111 q 291 -192 303 -168 q 267 -233 279 -217 l 222 -233 z "},"ǌ":{"ha":828,"x_min":75,"x_max":758,"o":"m 75 654 l 149 654 l 158 586 q 219 642 179 621 q 317 664 258 664 q 439 628 397 664 q 481 521 481 592 l 481 0 l 389 0 l 389 490 q 359 565 389 542 q 278 588 329 588 q 207 569 233 588 q 167 522 181 551 l 167 0 l 75 0 l 75 654 m 501 -242 l 489 -168 l 600 -168 q 649 -149 638 -168 q 661 -87 661 -131 l 661 653 l 753 653 l 753 -110 q 727 -210 753 -178 q 633 -242 701 -242 l 501 -242 m 707 736 q 664 745 674 736 q 654 781 654 754 q 664 817 654 807 q 707 826 674 826 q 749 817 740 826 q 758 781 758 807 q 749 745 758 754 q 707 736 740 736 z "},"≠":{"ha":546,"x_min":72,"x_max":496,"o":"m 78 -61 l 426 653 l 489 653 l 138 -61 l 78 -61 m 72 139 l 72 190 l 496 190 l 496 139 l 72 139 m 72 408 l 72 460 l 496 460 l 496 408 l 72 408 z "},"ñ":{"ha":549,"x_min":75,"x_max":481,"o":"m 75 654 l 149 654 l 158 586 q 219 642 179 621 q 317 664 258 664 q 439 628 397 664 q 481 521 481 592 l 481 0 l 389 0 l 389 490 q 359 565 389 542 q 278 588 329 588 q 207 569 233 588 q 167 522 181 551 l 167 0 l 75 0 l 75 654 m 125 733 q 148 822 125 793 q 207 850 171 850 q 258 836 238 850 q 298 808 279 822 q 338 793 317 793 q 373 811 364 793 q 382 850 382 829 l 428 850 q 402 762 428 788 q 346 736 376 736 q 296 751 317 736 q 258 781 275 767 q 218 796 240 796 q 185 779 197 796 q 174 733 174 763 l 125 733 z "},"#":{"ha":828,"x_min":31,"x_max":774,"o":"m 126 0 l 218 293 l 31 293 l 44 336 l 232 336 l 288 511 l 99 511 l 111 556 l 301 556 l 378 797 l 433 797 l 357 556 l 535 556 l 611 797 l 668 797 l 590 556 l 774 556 l 760 511 l 578 511 l 522 336 l 707 336 l 693 293 l 508 293 l 417 0 l 360 0 l 451 293 l 275 293 l 182 0 l 126 0 m 465 336 l 521 511 l 343 511 l 288 336 l 465 336 z "},"№":{"ha":1100,"x_min":72,"x_max":1036,"o":"m 72 0 l 72 861 l 167 861 l 397 203 l 400 196 l 401 194 l 401 861 l 494 861 l 494 0 l 397 0 l 169 622 l 167 632 l 165 632 l 165 0 l 72 0 m 825 -6 q 701 17 743 -6 q 644 74 660 39 q 629 147 629 110 l 629 507 q 644 581 629 546 q 703 638 660 615 q 833 660 747 660 q 958 638 914 660 q 1019 582 1001 617 q 1036 508 1036 547 l 1036 160 q 1018 77 1036 115 q 955 17 1000 39 q 825 -6 910 -6 m 825 69 q 914 95 883 69 q 944 172 944 121 l 944 492 q 915 563 944 538 q 833 589 886 589 q 751 564 781 589 q 721 492 721 539 l 721 164 q 750 94 721 118 q 825 69 779 69 z "},"o":{"ha":532,"x_min":63,"x_max":469,"o":"m 258 -6 q 135 17 176 -6 q 78 74 93 39 q 63 147 63 110 l 63 507 q 78 581 63 546 q 137 638 93 615 q 267 660 181 660 q 391 638 347 660 q 452 582 435 617 q 469 508 469 547 l 469 160 q 451 77 469 115 q 388 17 433 39 q 258 -6 343 -6 m 258 69 q 347 95 317 69 q 378 172 378 121 l 378 492 q 349 563 378 538 q 267 589 319 589 q 184 564 214 589 q 154 492 154 539 l 154 164 q 183 94 154 118 q 258 69 213 69 z "},"ó":{"ha":532,"x_min":63,"x_max":469,"o":"m 258 -6 q 135 17 176 -6 q 78 74 93 39 q 63 147 63 110 l 63 507 q 78 581 63 546 q 137 638 93 615 q 267 660 181 660 q 391 638 347 660 q 452 582 435 617 q 469 508 469 547 l 469 160 q 451 77 469 115 q 388 17 433 39 q 258 -6 343 -6 m 258 69 q 347 95 317 69 q 378 172 378 121 l 378 492 q 349 563 378 538 q 267 589 319 589 q 184 564 214 589 q 154 492 154 539 l 154 164 q 183 94 154 118 q 258 69 213 69 m 188 739 l 310 872 l 396 872 l 247 739 l 188 739 z "},"ŏ":{"ha":532,"x_min":63,"x_max":469,"o":"m 258 -6 q 135 17 176 -6 q 78 74 93 39 q 63 147 63 110 l 63 507 q 78 581 63 546 q 137 638 93 615 q 267 660 181 660 q 391 638 347 660 q 452 582 435 617 q 469 508 469 547 l 469 160 q 451 77 469 115 q 388 17 433 39 q 258 -6 343 -6 m 258 69 q 347 95 317 69 q 378 172 378 121 l 378 492 q 349 563 378 538 q 267 589 319 589 q 184 564 214 589 q 154 492 154 539 l 154 164 q 183 94 154 118 q 258 69 213 69 m 263 729 q 177 749 208 729 q 133 800 146 769 q 121 863 121 831 l 181 863 q 199 802 181 828 q 263 776 218 776 q 332 801 313 776 q 351 863 351 826 l 410 863 q 376 767 410 806 q 263 729 342 729 z "},"ǒ":{"ha":532,"x_min":63,"x_max":469,"o":"m 104 867 l 171 867 l 267 783 l 361 867 l 426 867 l 308 739 l 222 739 l 104 867 m 258 -6 q 135 17 176 -6 q 78 74 93 39 q 63 147 63 110 l 63 507 q 78 581 63 546 q 137 638 93 615 q 267 660 181 660 q 391 638 347 660 q 452 582 435 617 q 469 508 469 547 l 469 160 q 451 77 469 115 q 388 17 433 39 q 258 -6 343 -6 m 258 69 q 347 95 317 69 q 378 172 378 121 l 378 492 q 349 563 378 538 q 267 589 319 589 q 184 564 214 589 q 154 492 154 539 l 154 164 q 183 94 154 118 q 258 69 213 69 z "},"ô":{"ha":532,"x_min":63,"x_max":469,"o":"m 258 -6 q 135 17 176 -6 q 78 74 93 39 q 63 147 63 110 l 63 507 q 78 581 63 546 q 137 638 93 615 q 267 660 181 660 q 391 638 347 660 q 452 582 435 617 q 469 508 469 547 l 469 160 q 451 77 469 115 q 388 17 433 39 q 258 -6 343 -6 m 258 69 q 347 95 317 69 q 378 172 378 121 l 378 492 q 349 563 378 538 q 267 589 319 589 q 184 564 214 589 q 154 492 154 539 l 154 164 q 183 94 154 118 q 258 69 213 69 m 106 739 l 222 867 l 310 867 l 426 739 l 361 739 l 267 821 l 171 739 l 106 739 z "},"ố":{"ha":532,"x_min":63,"x_max":622,"o":"m 258 -6 q 135 17 176 -6 q 78 74 93 39 q 63 147 63 110 l 63 507 q 78 581 63 546 q 137 638 93 615 q 267 660 181 660 q 391 638 347 660 q 452 582 435 617 q 469 508 469 547 l 469 160 q 451 77 469 115 q 388 17 433 39 q 258 -6 343 -6 m 258 69 q 347 95 317 69 q 378 172 378 121 l 378 492 q 349 563 378 538 q 267 589 319 589 q 184 564 214 589 q 154 492 154 539 l 154 164 q 183 94 154 118 q 258 69 213 69 m 106 739 l 222 867 l 310 867 l 426 739 l 361 739 l 267 821 l 171 739 l 106 739 m 414 840 l 536 974 l 622 974 l 474 840 l 414 840 z "},"ộ":{"ha":532,"x_min":63,"x_max":469,"o":"m 258 -6 q 135 17 176 -6 q 78 74 93 39 q 63 147 63 110 l 63 507 q 78 581 63 546 q 137 638 93 615 q 267 660 181 660 q 391 638 347 660 q 452 582 435 617 q 469 508 469 547 l 469 160 q 451 77 469 115 q 388 17 433 39 q 258 -6 343 -6 m 258 69 q 347 95 317 69 q 378 172 378 121 l 378 492 q 349 563 378 538 q 267 589 319 589 q 184 564 214 589 q 154 492 154 539 l 154 164 q 183 94 154 118 q 258 69 213 69 m 264 -139 q 231 -129 236 -139 q 226 -99 226 -119 q 231 -67 226 -76 q 264 -58 236 -58 q 299 -67 294 -58 q 304 -99 304 -76 q 299 -129 304 -119 q 264 -139 293 -139 m 106 739 l 222 867 l 310 867 l 426 739 l 361 739 l 267 821 l 171 739 l 106 739 z "},"ồ":{"ha":532,"x_min":63,"x_max":514,"o":"m 258 -6 q 135 17 176 -6 q 78 74 93 39 q 63 147 63 110 l 63 507 q 78 581 63 546 q 137 638 93 615 q 267 660 181 660 q 391 638 347 660 q 452 582 435 617 q 469 508 469 547 l 469 160 q 451 77 469 115 q 388 17 433 39 q 258 -6 343 -6 m 258 69 q 347 95 317 69 q 378 172 378 121 l 378 492 q 349 563 378 538 q 267 589 319 589 q 184 564 214 589 q 154 492 154 539 l 154 164 q 183 94 154 118 q 258 69 213 69 m 106 739 l 222 867 l 310 867 l 426 739 l 361 739 l 267 821 l 171 739 l 106 739 m 454 840 l 306 974 l 392 974 l 514 840 l 454 840 z "},"ổ":{"ha":532,"x_min":63,"x_max":564,"o":"m 258 -6 q 135 17 176 -6 q 78 74 93 39 q 63 147 63 110 l 63 507 q 78 581 63 546 q 137 638 93 615 q 267 660 181 660 q 391 638 347 660 q 452 582 435 617 q 469 508 469 547 l 469 160 q 451 77 469 115 q 388 17 433 39 q 258 -6 343 -6 m 258 69 q 347 95 317 69 q 378 172 378 121 l 378 492 q 349 563 378 538 q 267 589 319 589 q 184 564 214 589 q 154 492 154 539 l 154 164 q 183 94 154 118 q 258 69 213 69 m 106 739 l 222 867 l 310 867 l 426 739 l 361 739 l 267 821 l 171 739 l 106 739 m 435 840 q 446 869 435 857 q 471 892 457 882 q 496 915 485 903 q 507 944 507 928 q 492 976 507 964 q 457 988 478 988 q 415 972 429 988 q 396 936 400 956 l 356 951 q 390 1011 361 989 q 468 1033 419 1033 q 538 1012 511 1033 q 564 956 564 990 q 553 910 564 926 q 527 883 542 893 q 501 865 513 874 q 490 840 490 856 l 435 840 z "},"ỗ":{"ha":532,"x_min":63,"x_max":469,"o":"m 258 -6 q 135 17 176 -6 q 78 74 93 39 q 63 147 63 110 l 63 507 q 78 581 63 546 q 137 638 93 615 q 267 660 181 660 q 391 638 347 660 q 452 582 435 617 q 469 508 469 547 l 469 160 q 451 77 469 115 q 388 17 433 39 q 258 -6 343 -6 m 258 69 q 347 95 317 69 q 378 172 378 121 l 378 492 q 349 563 378 538 q 267 589 319 589 q 184 564 214 589 q 154 492 154 539 l 154 164 q 183 94 154 118 q 258 69 213 69 m 106 739 l 222 867 l 310 867 l 426 739 l 361 739 l 267 821 l 171 739 l 106 739 m 113 901 q 135 990 113 961 q 194 1018 158 1018 q 246 1004 225 1018 q 285 976 267 990 q 325 961 304 961 q 360 979 351 961 q 369 1018 369 997 l 415 1018 q 390 930 415 956 q 333 904 364 904 q 283 919 304 904 q 245 949 263 935 q 206 964 228 964 q 173 947 185 964 q 161 901 161 931 l 113 901 z "},"ȍ":{"ha":532,"x_min":24,"x_max":469,"o":"m 258 -6 q 135 17 176 -6 q 78 74 93 39 q 63 147 63 110 l 63 507 q 78 581 63 546 q 137 638 93 615 q 267 660 181 660 q 391 638 347 660 q 452 582 435 617 q 469 508 469 547 l 469 160 q 451 77 469 115 q 388 17 433 39 q 258 -6 343 -6 m 258 69 q 347 95 317 69 q 378 172 378 121 l 378 492 q 349 563 378 538 q 267 589 319 589 q 184 564 214 589 q 154 492 154 539 l 154 164 q 183 94 154 118 q 258 69 213 69 m 172 739 l 24 872 l 110 872 l 232 739 l 172 739 m 296 739 l 147 872 l 233 872 l 356 739 l 296 739 z "},"ö":{"ha":532,"x_min":63,"x_max":469,"o":"m 258 -6 q 135 17 176 -6 q 78 74 93 39 q 63 147 63 110 l 63 507 q 78 581 63 546 q 137 638 93 615 q 267 660 181 660 q 391 638 347 660 q 452 582 435 617 q 469 508 469 547 l 469 160 q 451 77 469 115 q 388 17 433 39 q 258 -6 343 -6 m 258 69 q 347 95 317 69 q 378 172 378 121 l 378 492 q 349 563 378 538 q 267 589 319 589 q 184 564 214 589 q 154 492 154 539 l 154 164 q 183 94 154 118 q 258 69 213 69 m 338 733 q 306 743 310 733 q 301 772 301 753 q 306 803 301 794 q 338 813 310 813 q 373 803 368 813 q 378 772 378 794 q 373 743 378 753 q 338 733 368 733 m 190 733 q 158 743 163 733 q 153 772 153 753 q 158 803 153 794 q 190 813 163 813 q 226 803 221 813 q 231 772 231 794 q 225 743 231 753 q 190 733 219 733 z "},"ȫ":{"ha":532,"x_min":63,"x_max":469,"o":"m 258 -6 q 135 17 176 -6 q 78 74 93 39 q 63 147 63 110 l 63 507 q 78 581 63 546 q 137 638 93 615 q 267 660 181 660 q 391 638 347 660 q 452 582 435 617 q 469 508 469 547 l 469 160 q 451 77 469 115 q 388 17 433 39 q 258 -6 343 -6 m 258 69 q 347 95 317 69 q 378 172 378 121 l 378 492 q 349 563 378 538 q 267 589 319 589 q 184 564 214 589 q 154 492 154 539 l 154 164 q 183 94 154 118 q 258 69 213 69 m 338 733 q 306 743 310 733 q 301 772 301 753 q 306 803 301 794 q 338 813 310 813 q 373 803 368 813 q 378 772 378 794 q 373 743 378 753 q 338 733 368 733 m 190 733 q 158 743 163 733 q 153 772 153 753 q 158 803 153 794 q 190 813 163 813 q 226 803 221 813 q 231 772 231 794 q 225 743 231 753 q 190 733 219 733 m 108 849 l 108 907 l 425 907 l 425 849 l 108 849 z "},"ȱ":{"ha":532,"x_min":63,"x_max":469,"o":"m 258 -6 q 135 17 176 -6 q 78 74 93 39 q 63 147 63 110 l 63 507 q 78 581 63 546 q 137 638 93 615 q 267 660 181 660 q 391 638 347 660 q 452 582 435 617 q 469 508 469 547 l 469 160 q 451 77 469 115 q 388 17 433 39 q 258 -6 343 -6 m 258 69 q 347 95 317 69 q 378 172 378 121 l 378 492 q 349 563 378 538 q 267 589 319 589 q 184 564 214 589 q 154 492 154 539 l 154 164 q 183 94 154 118 q 258 69 213 69 m 264 735 q 231 744 236 735 q 226 774 226 754 q 231 806 226 797 q 264 815 236 815 q 299 806 294 815 q 304 774 304 797 q 299 744 304 754 q 264 735 293 735 m 108 849 l 108 907 l 425 907 l 425 849 l 108 849 z "}}}
